<svg width="151" height="154" viewBox="0 0 151 154" fill="none" xmlns="http://www.w3.org/2000/svg">
<path d="M27.6788 142.95L112.009 0.242067L123.778 11.7815L27.6788 142.95Z" fill="#B5E0C4"/>
<path d="M27.6791 142.95L27.6939 142.93L132.217 27.6416L138.409 34.815L27.6791 142.95Z" fill="#EEC4D5"/>
<path d="M27.679 142.95L116.046 22.0116L122.06 28.8268L27.679 142.95Z" fill="#D5EDE0"/>
<path d="M118.261 33.4201L123.322 39.4736L27.6791 142.95L118.261 33.4201Z" fill="white"/>
<path d="M135.294 53.969L128.677 44.0362L27.6793 142.95L135.294 53.969Z" fill="#E89CB3"/>
<mask id="mask0_744_10297" style="mask-type:alpha" maskUnits="userSpaceOnUse" x="92" y="40" width="27" height="27">
<path d="M117.796 61.0034C119.592 57.9083 119.076 53.8843 116.355 51.3981C115.063 50.2197 113.481 49.5745 111.869 49.436C114.966 52.7715 116.941 56.787 117.796 61.0034Z" fill="white"/>
<path d="M108.682 46.5769C108.401 44.9434 107.609 43.3976 106.306 42.2018C103.487 39.6272 99.2712 39.5835 96.3716 41.9221C100.729 42.2665 105.01 43.8233 108.682 46.5769Z" fill="white"/>
<path d="M95.4707 42.7625C94.9996 43.2847 94.6117 43.855 94.3071 44.462L94.2958 44.4616C94.2958 44.4616 93.7764 45.2277 93.3257 47.0678C98.3909 46.7657 103.552 48.5137 107.468 52.3408C110.952 55.7504 112.838 60.2024 113.105 64.7494C114.171 64.3416 114.795 63.972 115.079 63.7751C115.119 63.7478 115.148 63.7258 115.177 63.7095C115.779 63.3394 116.344 62.8713 116.844 62.3157C117.215 61.9046 117.531 61.4576 117.802 60.998C116.947 56.7815 114.972 52.766 111.875 49.4305C110.753 49.3349 109.611 49.4897 108.545 49.8918C108.833 48.8054 108.88 47.6662 108.693 46.5658C105.022 43.8065 100.741 42.2554 96.3833 41.911C96.0689 42.1641 95.7593 42.4402 95.4766 42.7569L95.4707 42.7625Z" fill="white"/>
<path d="M107.462 52.3407C103.546 48.5135 98.3909 46.7657 93.3201 47.0676C93.0154 48.3075 92.7385 50.033 92.6726 52.3349C96.6426 51.8297 100.782 53.0687 103.867 56.0845C106.625 58.7828 108 62.3815 107.983 65.9851C110.279 65.6646 111.946 65.1945 113.099 64.7549C112.833 60.2079 110.946 55.756 107.462 52.3464L107.462 52.3407Z" fill="white"/>
<path d="M103.868 56.0788C100.788 53.0632 96.6429 51.824 92.6728 52.3292C92.6304 53.8221 92.67 55.5511 92.8467 57.5522C95.453 57.0811 98.2304 57.824 100.267 59.8169C102.081 61.5865 102.928 63.9778 102.82 66.3469C104.816 66.3199 106.523 66.1818 107.978 65.9792C107.994 62.3757 106.62 58.777 103.862 56.0787L103.868 56.0788Z" fill="white"/>
<path d="M92.8524 57.5523C93.0618 59.9022 93.456 62.6167 94.1182 65.7383C94.1224 65.7784 94.1325 65.8129 94.1423 65.8532C94.1762 65.8541 94.2043 65.8607 94.2382 65.8617C97.56 66.2441 100.405 66.3731 102.831 66.3415C102.939 63.9781 102.087 61.5809 100.279 59.8115C98.2419 57.8186 95.4645 57.0757 92.8582 57.5468L92.8524 57.5523Z" fill="white"/>
</mask>
<g mask="url(#mask0_744_10297)">
<path d="M27.6748 142.95L112.005 0.242067L123.774 11.7815L27.6748 142.95Z" fill="#74C892"/>
<path d="M27.6751 142.95L27.6899 142.93L132.213 27.6416L138.405 34.815L27.6751 142.95Z" fill="#E493B3"/>
<path d="M27.6749 142.95L116.042 22.0116L122.056 28.8268L27.6749 142.95Z" fill="#B3E2C9"/>
<path d="M118.256 33.4201L123.318 39.4736L27.6751 142.95L118.256 33.4201Z" fill="#F3F1F1"/>
<path d="M135.29 53.969L128.673 44.0362L27.6753 142.95L135.29 53.969Z" fill="#D84370"/>
</g>
</svg>
