<svg width="115" height="129" viewBox="0 0 115 129" fill="none" xmlns="http://www.w3.org/2000/svg">
<g clip-path="url(#clip0_744_10329)">
<path d="M115 47.076L99.7395 26.188L0 129L115 47.076Z" fill="#AAC4E3"/>
<path d="M0 129L98.4684 36.5578L63.7997 3.81348L0 129Z" fill="#FBFDEE"/>
<path d="M0 129L76.295 10.667L60.4176 0L0 129Z" fill="#AAC4E3"/>
<path d="M75.8267 37.5017C75.8267 37.5017 74.3698 38.6985 72.9797 37.7768C71.8945 37.0483 71.5823 36.7807 71.0322 36.6915C70.6903 36.632 69.6348 36.7807 69.6348 36.7807C69.6348 36.7807 71.166 34.9223 72.3405 35.2568C73.5149 35.5913 74.7266 35.9928 75.8267 37.5017Z" fill="#77934C"/>
<path d="M79.5061 41.1145C79.5061 41.1145 78.3391 42.5938 79.2906 43.9615C80.0339 45.0319 80.3089 45.3441 80.413 45.8868C80.4799 46.2287 80.3535 47.2843 80.3535 47.2843C80.3535 47.2843 82.1821 45.7232 81.8253 44.5488C81.4685 43.3743 81.0374 42.1775 79.5061 41.1145Z" fill="#77934C"/>
<path d="M77.1796 44.9055C77.1796 44.9055 76.4288 46.1171 75.1577 46.1766C73.8866 46.236 72.5486 45.567 72.5486 45.567C72.5486 45.567 72.5784 46.4293 73.2251 46.7638C73.8718 47.0983 74.6523 47.0909 74.6523 47.0909C74.6523 47.0909 74.9422 47.745 75.3807 47.7376C75.8193 47.7302 76.0497 47.1504 76.0497 47.1504C76.0497 47.1504 76.9714 46.7341 77.5141 45.961C77.6256 45.7975 77.9972 45.1731 77.6776 44.9501C77.358 44.727 77.187 44.9055 77.187 44.9055H77.1796Z" fill="#BEDA74"/>
<path d="M71.1809 43.7756C71.1809 43.7756 70.4599 42.5491 70.9951 41.3895C71.5303 40.2299 72.7493 39.3676 72.7493 39.3676C72.7493 39.3676 71.9763 38.9959 71.3742 39.4048C70.7721 39.8136 70.4153 40.5123 70.4153 40.5123C70.4153 40.5123 69.7017 40.4677 69.501 40.8617C69.3003 41.2557 69.7091 41.724 69.7091 41.724C69.7091 41.724 69.6497 42.7349 70.0882 43.5749C70.1774 43.7459 70.5639 44.3703 70.9059 44.1845C71.2478 43.9986 71.1735 43.7682 71.1735 43.7682L71.1809 43.7756Z" fill="#BEDA74"/>
<path d="M74.615 44.6677C74.615 44.6677 73.4926 44.6677 72.8905 43.8946C72.2884 43.1215 72.1546 42.0139 72.1546 42.0139C72.1546 42.0139 71.6046 42.3707 71.664 42.9059C71.7235 43.4411 72.0729 43.9317 72.0729 43.9317C72.0729 43.9317 71.7681 44.3703 71.9688 44.6454C72.1695 44.9204 72.6452 44.8312 72.6452 44.8312C72.6452 44.8312 73.3217 45.2475 74.0724 45.2772C74.2285 45.2772 74.8009 45.2772 74.8083 44.9799C74.8157 44.6825 74.6225 44.6528 74.6225 44.6528L74.615 44.6677Z" fill="#BEDA74"/>
<path d="M75.4774 39.2113C75.4774 39.2113 76.4883 39.3228 77.2391 40.1034C77.9898 40.8839 78.3094 42.1104 78.3094 42.1104C78.3094 42.1104 78.8372 41.6123 78.696 41.0102C78.5547 40.4081 78.1087 39.9101 78.1087 39.9101C78.1087 39.9101 78.3615 39.36 78.1087 39.0775C77.856 38.7951 77.358 38.9809 77.358 38.9809C77.358 38.9809 76.466 38.3639 75.6706 38.4457C75.5071 38.4606 74.8976 38.5795 74.9347 38.9066C74.9719 39.2336 75.4774 39.2039 75.4774 39.2039V39.2113Z" fill="#BEDA74"/>
<path d="M75.2692 44.5338C75.2692 44.5338 77.4397 44.5635 77.7965 43.441C78.1533 42.3186 76.8599 41.04 76.8599 41.04C76.8599 41.04 76.3842 41.0846 76.4511 41.1441C76.518 41.2036 77.0606 42.5862 76.6518 43.1511C76.243 43.7161 75.2692 44.5338 75.2692 44.5338Z" fill="#BEDA74"/>
<path d="M76.2653 40.832C76.2653 40.832 75.232 38.9291 74.0725 39.1595C72.9129 39.3899 72.4371 41.1517 72.4371 41.1517C72.4371 41.1517 72.7047 41.5456 72.7345 41.4564C72.7642 41.3672 73.6934 40.2225 74.3921 40.2968C75.0908 40.3711 76.2727 40.8246 76.2727 40.8246L76.2653 40.832Z" fill="#BEDA74"/>
<path d="M73.8941 43.6715C73.8941 43.6715 72.7419 43.0991 73.1062 42.4152C73.4704 41.7313 74.2732 41.5901 74.2732 41.5901C74.2732 41.5901 73.4704 42.4078 73.6636 42.6308C73.8569 42.8538 73.8941 43.6715 73.8941 43.6715Z" fill="#BEDA74"/>
<path d="M74.9124 41.3672C74.9124 41.3672 76.1463 41.7389 75.8936 42.4748C75.6409 43.2107 74.8752 43.4783 74.8752 43.4783C74.8752 43.4783 75.5368 42.5342 75.3064 42.3558C75.0759 42.1774 74.9124 41.3672 74.9124 41.3672Z" fill="#BEDA74"/>
</g>
<defs>
<clipPath id="clip0_744_10329">
<rect width="115" height="129" fill="white"/>
</clipPath>
</defs>
</svg>
