<svg width="144" height="151" viewBox="0 0 144 151" fill="none" xmlns="http://www.w3.org/2000/svg">
<path d="M129.469 40.7076L127.522 42.6693L13.6346 150.602L135.001 49.0012L129.469 40.7076Z" fill="black"/>
<path d="M13.6349 150.601L117.065 21.0798L110.769 12.0828L13.6349 150.601Z" fill="white"/>
<path d="M120.212 27.1464L13.6351 150.601L126.817 34.0261L120.212 27.1464Z" fill="white"/>
<path d="M91.9454 4.18901L13.635 150.601L101.062 11.9698L91.9454 4.18901Z" fill="black"/>
<path d="M108.572 15.2165L13.6345 150.601L103.356 8.21268L108.572 15.2165Z" fill="#BABABA"/>
<path d="M112.245 25.1982L13.6349 150.601L117.164 33.7814L112.245 25.1982Z" fill="#B5F183"/>
<path d="M123.887 37.1075L13.6716 150.569L127.522 42.669L123.887 37.1075Z" fill="#BABABA"/>
</svg>
