<svg width="181" height="153" viewBox="0 0 181 153" fill="none" xmlns="http://www.w3.org/2000/svg">
<g clip-path="url(#clip0_744_10363)">
<path d="M36.7238 152.379L139.432 17.0765L143.028 25.2069L36.7238 152.379Z" fill="black"/>
<path d="M36.7238 152.379L149.891 29.0458L153.489 37.182L36.7238 152.379Z" fill="black"/>
<path d="M36.7238 152.379L129.118 6.32447L132.583 14.1576L36.7238 152.379Z" fill="black"/>
<path d="M36.7242 152.38L141.041 1.94353L144.494 10.5526L36.7242 152.38Z" fill="white"/>
<path d="M36.7238 152.379L146.632 20.1976L150.438 28.4875L36.7238 152.379Z" fill="white"/>
<path d="M36.7238 152.379L155.974 33.6536L161.885 47.5933L36.7238 152.379Z" fill="white"/>
<path d="M116.322 47.6269L105.317 62.1093L105.152 70.084L121.994 49.8281L116.322 47.6269Z" fill="#FBFB0D"/>
<path d="M128.522 52.364L104.989 78.0036L104.854 84.5484L117.331 72.127L117.068 66.1017L121.134 68.339L134.75 54.7835L128.522 52.364Z" fill="#011995"/>
<path d="M105.7 43.5022L105.5 53.197L110.839 45.4982L105.7 43.5022Z" fill="#FB1F26"/>
<path d="M110.839 45.498L105.5 53.1968L105.317 62.1092L116.322 47.6268L110.839 45.498Z" fill="#F7901E"/>
<path d="M121.994 49.828L105.152 70.0839L104.989 78.0035L128.522 52.3639L121.994 49.828Z" fill="#0DB904"/>
<path d="M130.772 73.6405L147.42 59.7034L134.75 54.7835L121.134 68.339L130.772 73.6405Z" fill="#750184"/>
<path d="M104.627 95.529L117.867 84.4442L117.331 72.127L104.854 84.5484L104.627 95.529Z" fill="#750185"/>
</g>
<defs>
<clipPath id="clip0_744_10363">
<rect width="154.314" height="101.503" fill="white" transform="matrix(0.929003 -0.370072 0.356581 0.934264 0.529732 57.5481)"/>
</clipPath>
</defs>
</svg>
