<svg width="147" height="176" viewBox="0 0 147 176" fill="none" xmlns="http://www.w3.org/2000/svg">
<path d="M8.34441 145.435L89.4761 33.9227L95.2515 40.0006L8.34441 145.435Z" fill="#313146"/>
<path d="M8.34439 145.435L83.8798 32.5916L89.8733 38.4605L8.34439 145.435Z" fill="#3F4082"/>
<path d="M8.34402 145.435L81.6201 14.6453L93.0446 24.743L8.34402 145.435Z" fill="#4848C2"/>
<path d="M8.34375 145.435L110.439 53.6414L103.559 48.8162L8.34375 145.435Z" fill="#453232"/>
<path d="M8.34895 145.438L112.833 40.5518L100.931 30.6818L8.34895 145.438Z" fill="#1E1E1E"/>
<path d="M8.34442 145.435L112.535 58.9379L105.834 53.8712L8.34442 145.435Z" fill="#7E4443"/>
<path d="M8.34396 145.435L130.656 59.352L119.16 48.9028L8.34396 145.435Z" fill="#C14A4A"/>
<path d="M86.2389 55.7703C86.2018 55.7608 86.1624 55.7521 86.1269 55.7397C85.6136 55.5583 85.1071 55.3561 84.5871 55.1993C84.0057 55.0245 83.4054 54.9801 82.828 55.1859C81.9509 55.5013 81.3017 56.0644 81.013 56.9667C80.8489 57.475 80.8923 57.9912 81.0325 58.5043C81.2092 59.1514 81.5258 59.7332 81.9121 60.2794C82.4172 60.9957 82.9928 61.6525 83.6841 62.2019C84.2376 62.6406 84.8402 62.9866 85.5329 63.1598C86.4715 63.3923 87.3336 63.226 88.1311 62.7118C88.5057 62.4705 88.8371 62.1793 89.114 61.8307C89.5474 61.2871 89.7001 60.6667 89.618 59.9797C89.5603 59.4954 89.4087 59.0344 89.2284 58.5813C89.2208 58.5625 89.211 58.5445 89.2087 58.5265C89.2056 58.5063 89.2102 58.4862 89.2132 58.4654C89.2344 58.4687 89.2594 58.4682 89.2753 58.4781C89.3351 58.514 89.3911 58.5535 89.4494 58.5924C90.0286 58.9881 90.6101 59.383 91.1878 59.7817C91.2635 59.8349 91.3119 59.8333 91.3823 59.7738C91.7031 59.5033 92.027 59.2382 92.3523 58.9738C92.4144 58.9231 92.4174 58.891 92.3689 58.8255C92.2606 58.683 92.1259 58.5962 91.9578 58.5223C91.4596 58.3038 90.966 58.0727 90.486 57.8186C89.7872 57.4483 89.1006 57.0541 88.4086 56.6667C88.3624 56.6415 88.3185 56.5969 88.2958 56.5518C87.8329 55.6628 87.4018 54.7601 87.0222 53.8349C86.8949 53.5243 86.7805 53.2071 86.6562 52.8943C86.632 52.8335 86.6358 52.7851 86.6743 52.7318C86.7318 52.6527 86.7772 52.5675 86.8347 52.4884C86.874 52.4337 86.8718 52.3934 86.8248 52.3435C86.7695 52.2875 86.7188 52.2264 86.6733 52.1624C86.6218 52.0878 86.5802 52.0985 86.5174 52.1506C86.1557 52.4526 85.7903 52.7508 85.4263 53.0498C85.331 53.1284 85.2379 53.21 85.138 53.2826C85.0737 53.3302 85.0654 53.3727 85.098 53.447C85.4291 54.1984 85.8011 54.9294 86.2131 55.6416C86.2298 55.6724 86.2457 55.7047 86.2623 55.7355L86.2465 55.7666L86.2389 55.7703ZM83.8428 59.9823C83.4657 59.5378 83.1113 59.0786 82.8272 58.5711C82.603 58.1704 82.4242 57.7554 82.3755 57.298C82.3436 57.002 82.3632 56.7097 82.5394 56.4576C82.8208 56.0553 83.2264 55.8651 83.7169 55.8409C84.2619 55.8145 84.7729 55.9704 85.2695 56.177C85.9554 56.4606 86.5822 56.8524 87.222 57.2228C87.2644 57.248 87.3 57.294 87.328 57.3361C87.5605 57.7131 87.7969 58.0863 88.0165 58.4698C88.296 58.9601 88.5324 59.4714 88.6507 60.0237C88.719 60.3455 88.7365 60.6659 88.6527 60.9872C88.4773 61.6521 87.6231 62.3895 86.5868 62.0945C86.1742 61.9772 85.8078 61.7731 85.4633 61.526C84.8507 61.0874 84.3313 60.5522 83.8466 59.9823L83.8428 59.9823Z" fill="white"/>
</svg>
