<svg width="111" height="127" viewBox="0 0 111 127" fill="none" xmlns="http://www.w3.org/2000/svg">
<g clip-path="url(#clip0_744_10465)">
<path d="M0 126.04L106.14 17L88.64 9L0 126.04Z" fill="#AA958C"/>
<path d="M0 126.04L110.64 34.5L99.64 23.5L0 126.04Z" fill="#D7C8EB"/>
<path d="M0 126.04L84.14 15L73.14 0L1.64 123.5L0 126.04Z" fill="#7AE2FC"/>
<mask id="mask0_744_10465" style="mask-type:luminance" maskUnits="userSpaceOnUse" x="59" y="28" width="28" height="28">
<path d="M86.3313 47.5315C87.8201 44.1322 86.7793 40.0346 83.6435 37.7816C82.1547 36.7144 80.4287 36.2269 78.729 36.2796C77.5433 36.3191 76.3838 36.609 75.3166 37.1492C75.4747 35.9634 75.3693 34.7644 75.0267 33.6445C74.5261 32.0239 73.4984 30.5483 72.0095 29.4811C68.8606 27.2412 64.6444 27.6101 61.9171 30.1267C61.5087 30.5087 61.1266 30.9304 60.7972 31.3915C60.3492 32.0239 60.0066 32.7091 59.7695 33.4074C59.7695 33.4337 59.7431 33.4732 59.73 33.5259C59.5982 33.8553 59.3611 34.58 59.1898 35.7658C59.0053 37.0438 58.9131 38.8488 59.1107 41.2731C59.2425 42.8015 59.4928 44.5934 59.9144 46.6356C60.5864 49.8504 62.062 54.3696 62.3519 55.2655L62.2992 55.3446C62.2992 55.3446 62.3255 55.3446 62.3782 55.3446C62.3914 55.3973 62.4046 55.4236 62.4046 55.4236L62.4573 55.3446C63.3928 55.3314 68.1491 55.2392 71.4035 54.8307C73.472 54.5672 75.2375 54.2247 76.7395 53.8426C79.098 53.2497 80.7713 52.5645 81.9175 51.9716C82.9716 51.4314 83.5776 50.9703 83.8543 50.7331C83.8938 50.7068 83.9202 50.6804 83.9465 50.6541C84.5263 50.2061 85.0533 49.6528 85.5144 49.0203C85.857 48.546 86.1205 48.0585 86.3445 47.5447L86.3313 47.5315Z" fill="white"/>
</mask>
<g mask="url(#mask0_744_10465)">
<path d="M0 126.04L106.14 17L88.64 9L0 126.04Z" fill="#603524"/>
<path d="M0 126.04L110.64 34.5L99.64 23.5L0 126.04Z" fill="#B799DE"/>
<path d="M0 126.04L84.14 15L73.14 0L1.64 123.5L0 126.04Z" fill="#00CCFF"/>
</g>
</g>
<defs>
<clipPath id="clip0_744_10465">
<rect width="110.64" height="126.04" fill="white"/>
</clipPath>
</defs>
</svg>
