<svg width="167" height="167" viewBox="0 0 167 167" fill="none" xmlns="http://www.w3.org/2000/svg">
<path d="M27.4878 153.507L129.208 48.6039L116.222 35.802L27.3595 153.544" fill="#995095"/>
<path d="M28.1965 153.179L153.737 52.549L150.743 24.4061L27.3593 153.544" fill="#0038A5"/>
<path d="M27.3596 153.544L113.308 40.0064L100.968 25.4103L29.1393 151.505L27.3596 153.544Z" fill="#D30470"/>
<path d="M112.16 71.9913C113.552 69.4588 113.03 66.198 110.738 64.2102C109.651 63.2676 108.337 62.763 107.01 62.6742C106.086 62.6124 105.157 62.7505 104.293 63.0898C104.502 62.1854 104.503 61.2456 104.306 60.3408C104.024 59.0412 103.333 57.8154 102.242 56.8782C99.9396 54.9011 96.6377 54.8622 94.3363 56.6098C93.992 56.8712 93.6689 57.1705 93.3765 57.5112C92.9835 57.9693 92.6678 58.4717 92.4326 58.9946C92.4226 59.017 92.4081 59.0441 92.3917 59.0788C92.2673 59.3278 92.0327 59.8729 91.8206 60.7754C91.591 61.752 91.3897 63.1508 91.3807 65.0473C91.375 66.2486 91.4481 67.6513 91.641 69.2742C91.9443 71.8265 92.7762 75.4473 92.9431 76.161L92.9579 76.2242L93.0226 76.2297C93.7531 76.2903 97.4568 76.5833 100.026 76.5101C101.66 76.4637 103.058 76.3306 104.245 76.1493C106.12 75.8629 107.474 75.4591 108.407 75.0892C109.269 74.7473 109.774 74.4359 110.002 74.2759C110.033 74.2549 110.058 74.2364 110.079 74.2231C110.562 73.9141 111.013 73.5286 111.408 73.0725C111.703 72.7331 111.951 72.3699 112.16 71.9911L112.16 71.9913Z" fill="#CCCCCC"/>
</svg>
