<svg width="111" height="143" viewBox="0 0 111 143" fill="none" xmlns="http://www.w3.org/2000/svg">
<g clip-path="url(#clip0_744_10545)">
<path d="M0.580017 142.16L99.53 17.96L107.19 25.35" fill="#ECABEC"/>
<path d="M0 142.71L84.33 0L96.1 11.54L0 142.71Z" fill="#FBF9BB"/>
<path d="M0 142.71V142.69L100.43 31.88L110.73 34.57L0 142.71Z" fill="white"/>
<path d="M0 142.71L89.25 18.51L90.36 31.24L0 142.71Z" fill="#84C99D"/>
<path d="M107.62 53.73L101 43.8L0 142.71L107.62 53.73Z" fill="#7A7A7A"/>
<mask id="mask0_744_10545" style="mask-type:luminance" maskUnits="userSpaceOnUse" x="64" y="39" width="28" height="29">
<path d="M90.6614 62.1382C92.7512 58.9458 92.3922 54.6123 89.5973 51.8045C88.2639 50.4711 86.5972 49.6891 84.8664 49.4455C83.6612 49.2788 82.4304 49.3814 81.2637 49.7404C81.6355 48.5736 81.7252 47.3428 81.5585 46.1377C81.3278 44.4068 80.5457 42.7401 79.1995 41.4067C76.3789 38.599 72.0582 38.2528 68.8658 40.3426C68.3915 40.6503 67.9299 41.0221 67.5196 41.4324C66.9555 41.9965 66.494 42.6247 66.135 43.2914C66.1221 43.3171 66.0965 43.3555 66.0709 43.394C65.8785 43.7145 65.5196 44.4068 65.1478 45.5736C64.7503 46.83 64.34 48.6506 64.1349 51.1378C64.0067 52.7148 63.9554 54.561 64.0452 56.7021C64.1862 60.074 64.9042 64.9075 65.0452 65.8563V65.946L65.1478 65.9588C66.0965 66.0999 70.93 66.8307 74.3019 66.9589C76.443 67.0486 78.302 66.9973 79.8662 66.8691C82.3534 66.664 84.174 66.2537 85.4305 65.8563C86.5972 65.4845 87.2895 65.1255 87.61 64.9332C87.6485 64.9075 87.687 64.8819 87.7126 64.8691C88.3793 64.5101 89.0075 64.0357 89.5716 63.4844C89.9947 63.0613 90.3537 62.6126 90.6614 62.1382Z" fill="white"/>
</mask>
<g mask="url(#mask0_744_10545)">
<g opacity="0.51">
<path d="M0.580017 142.16L99.53 17.96L107.19 25.35" fill="#E161E1"/>
<path d="M0 142.71L84.33 0L96.1 11.54L0 142.71Z" fill="#FDF980"/>
<path d="M0 142.71V142.69L100.43 31.88L110.73 34.57L0 142.71Z" fill="white"/>
<path d="M0 142.71L89.25 18.51L90.36 31.24L0 142.71Z" fill="#159B46"/>
<path d="M107.62 53.73L101 43.8L0 142.71L107.62 53.73Z" fill="black"/>
</g>
</g>
<path d="M90.6614 62.1382C92.7512 58.9458 92.3922 54.6123 89.5973 51.8045C88.2639 50.4711 86.5972 49.6891 84.8664 49.4455C83.6612 49.2788 82.4304 49.3814 81.2637 49.7404C81.6355 48.5736 81.7252 47.3428 81.5586 46.1377C81.3278 44.4068 80.5457 42.7401 79.1995 41.4067C76.3789 38.599 72.0582 38.2528 68.8658 40.3426C68.3915 40.6503 67.9299 41.0221 67.5196 41.4324C66.9555 41.9965 66.494 42.6247 66.135 43.2914C66.1221 43.3171 66.0965 43.3555 66.0709 43.394C65.8785 43.7145 65.5196 44.4068 65.1478 45.5736C64.7503 46.83 64.34 48.6506 64.1349 51.1378C64.0067 52.7148 63.9554 54.561 64.0452 56.7021C64.1862 60.074 64.9042 64.9075 65.0452 65.8563V65.946L65.1478 65.9588C66.0965 66.0999 70.93 66.8307 74.3019 66.9589C76.443 67.0486 78.302 66.9973 79.8662 66.8691C82.3534 66.664 84.174 66.2537 85.4305 65.8563C86.5972 65.4845 87.2895 65.1255 87.61 64.9332C87.6485 64.9075 87.687 64.8819 87.7126 64.8691C88.3793 64.5101 89.0075 64.0357 89.5716 63.4844C89.9947 63.0613 90.3537 62.6126 90.6614 62.1382Z" stroke="#FF00FF" stroke-width="0.5" stroke-miterlimit="10"/>
</g>
<defs>
<clipPath id="clip0_744_10545">
<rect width="110.73" height="142.71" fill="white"/>
</clipPath>
</defs>
</svg>
