<svg width="183" height="157" viewBox="0 0 183 157" fill="none" xmlns="http://www.w3.org/2000/svg">
<g clip-path="url(#clip0_744_10620)">
<path d="M40.0881 155.262L159.707 43.0956L165 49.5941L40.0881 155.262Z" fill="#7F7F7F"/>
<path d="M40.0881 155.262L138.551 17.1246L143.836 23.615L40.0881 155.262Z" fill="#FFAEC9"/>
<path d="M40.0881 155.262L149.126 30.1055L155.558 38.002L40.0881 155.262Z" fill="#FFAEC9"/>
<path d="M40.0881 155.262L123.886 11.6374L128.978 17.8892L40.0881 155.262Z" fill="#7F7F7F"/>
<path d="M40.4736 154.626L131.079 14.3368L137.997 22.8286L40.4736 154.626Z" fill="#C4C4C4"/>
<path d="M40.0881 155.262L139.732 28.2971L145.238 35.4139L40.0881 155.262Z" fill="white"/>
<path d="M40.0881 155.262L152.738 38.7411L157.973 45.1681L40.0881 155.262Z" fill="#C4C4C4"/>
</g>
<defs>
<clipPath id="clip0_744_10620">
<rect width="157.324" height="91.6733" fill="white" transform="matrix(0.89642 -0.443206 0.409164 0.912461 2.5787 71.6138)"/>
</clipPath>
</defs>
</svg>
