<svg width="126" height="142" viewBox="0 0 126 142" fill="none" xmlns="http://www.w3.org/2000/svg">
<g clip-path="url(#clip0_744_10657)">
<path d="M126 34.6951L116.387 22.9839L0 142L126 34.6951Z" fill="#B8EBA4"/>
<path d="M0 142L121.18 18.3181L105.252 4.5072L0 142Z" fill="white"/>
<path d="M0 142L104.876 8.17454L94.0607 0L0 142Z" fill="#B8EBA4"/>
<path d="M90.3678 32.0823C90.1987 31.7837 89.9825 31.5131 89.8604 31.1958C89.6255 30.6359 89.6818 30.0853 90.0953 29.6188C90.4336 29.2362 90.9692 29.1615 91.4202 29.4228C91.5142 29.4788 91.6082 29.5441 91.7115 29.6188C91.9183 29.1802 92.219 28.8722 92.7358 28.8536C93.2808 28.8442 93.7882 29.2362 93.9667 29.7961C94.1359 30.3093 94.0795 30.8225 93.9761 31.3638C94.0325 31.2985 94.0889 31.2331 94.1547 31.1678C94.4366 30.9065 94.6903 30.5986 95.0098 30.4119C95.489 30.132 96.0152 30.132 96.4756 30.5053C96.9079 30.8599 96.9267 31.3264 96.7481 31.8397C96.7951 31.8397 96.8327 31.8584 96.8797 31.8584C97.8006 31.989 98.1952 32.8382 97.7066 33.622C97.3683 34.1633 96.8327 34.3592 96.2407 34.4712C95.9964 34.5179 95.7427 34.5365 95.5548 34.5552C95.94 34.7138 96.3723 34.8538 96.7763 35.0591C97.2368 35.3017 97.5187 35.7123 97.5657 36.2349C97.6314 36.9068 97.171 37.4014 96.4944 37.4294C96.4287 37.4294 96.3535 37.4294 96.2689 37.4387C96.2689 37.504 96.2783 37.56 96.2877 37.6253C96.3911 38.3905 95.8367 38.9598 95.0568 38.8851C94.5493 38.8291 94.1641 38.5772 93.8822 38.1666C93.76 37.9893 93.6472 37.8026 93.5251 37.6067C93.4875 37.8586 93.4687 38.1199 93.4029 38.3719C93.2808 38.9038 92.9801 39.3144 92.4445 39.5103C91.8431 39.7343 91.2511 39.4637 91.0256 38.8664C90.9974 38.7918 90.9786 38.7171 90.9504 38.6331C90.7719 38.6891 90.6027 38.7731 90.4336 38.8011C89.71 38.9038 89.1368 38.3345 89.165 37.5413C89.1838 36.9534 89.5127 36.5242 89.9074 36.1323C90.0577 35.983 90.2363 35.8523 90.349 35.759C89.9919 35.843 89.5879 35.9456 89.1744 36.0109C88.7422 36.0856 88.3287 36.0016 87.9623 35.7497C87.2105 35.2364 87.2199 34.3406 87.9623 33.8367C87.9998 33.8087 88.0374 33.79 88.0656 33.762C88.0562 33.7434 88.0562 33.7247 88.0374 33.7154C87.671 33.3421 87.5112 32.9128 87.7555 32.4183C87.9998 31.9143 88.4603 31.7277 88.9959 31.709C89.4845 31.6904 89.898 31.9237 90.3114 32.1383L90.3866 32.2316L90.4242 32.2036L90.349 32.0637L90.3678 32.0823ZM94.1171 32.2783C94.1923 32.241 94.2674 32.1943 94.352 32.1663C94.5399 32.1103 94.6621 31.9237 94.6057 31.7464C94.5493 31.5597 94.3332 31.4664 94.1641 31.5411C93.9855 31.6157 93.9198 31.8117 94.0043 31.9983C94.0325 32.0637 94.0325 32.1476 94.0419 32.2223C94.0325 32.2223 94.0231 32.241 94.0325 32.2503L92.8861 33.706C92.8579 33.6594 92.8391 33.6314 92.8297 33.594C92.6512 33.0435 92.4727 32.4929 92.3129 31.933C92.2941 31.8677 92.3317 31.7744 92.3787 31.7184C92.5196 31.5224 92.5103 31.3358 92.3317 31.2145C92.1814 31.1118 91.9652 31.1491 91.8713 31.3078C91.7585 31.4851 91.8243 31.6717 92.031 31.7837C92.0874 31.821 92.172 31.877 92.1814 31.9237C92.2753 32.5396 92.3599 33.1461 92.4539 33.818C91.8243 33.4914 91.2417 33.1835 90.6591 32.8755C90.6309 32.8662 90.6309 32.8195 90.6121 32.7915C90.6591 32.5956 90.5745 32.4369 90.396 32.4183C90.2738 32.3996 90.0953 32.4742 90.0295 32.5676C89.9731 32.6515 90.0107 32.8475 90.0765 32.9315C90.1893 33.0808 90.3584 33.0901 90.5088 32.9502C90.5745 32.9782 90.6403 32.9875 90.6967 33.0248C91.1947 33.3981 91.6833 33.7713 92.219 34.1819C91.6645 34.3499 91.1665 34.5085 90.6591 34.6672C90.5276 34.7045 90.4336 34.7325 90.302 34.6205C90.1517 34.4806 89.9262 34.5272 89.8322 34.7045C89.7382 34.8725 89.7758 35.0311 89.9356 35.1431C90.1047 35.2551 90.2926 35.1991 90.4054 35.0218C90.443 34.9565 90.49 34.8725 90.5463 34.8632C91.1195 34.7792 91.6927 34.7045 92.3129 34.6205C91.9934 35.2271 91.7115 35.787 91.4108 36.3376C91.3826 36.3842 91.2887 36.4215 91.2229 36.4309C90.988 36.4682 90.847 36.6082 90.8846 36.8135C90.9128 37.0094 91.1101 37.1307 91.2981 37.0748C91.4954 37.0188 91.5706 36.8415 91.4954 36.6082C91.4766 36.5429 91.4672 36.4495 91.4954 36.4029C91.8713 35.899 92.2565 35.3951 92.6794 34.8538C92.8673 35.451 93.0459 35.9923 93.2056 36.5429C93.2244 36.5988 93.1586 36.6735 93.121 36.7388C92.9989 36.9161 93.0271 37.1121 93.1962 37.2241C93.356 37.3267 93.5627 37.2801 93.6566 37.1121C93.76 36.9441 93.6942 36.7575 93.5063 36.6455C93.4499 36.6082 93.3653 36.5708 93.3559 36.5242C93.2714 35.955 93.1868 35.3857 93.1022 34.7512L94.897 35.6843C94.897 35.6843 94.897 35.7403 94.897 35.7497C94.85 35.9363 94.897 36.1043 95.0849 36.1509C95.1883 36.1789 95.3762 36.1509 95.4326 36.0763C95.4984 35.9923 95.5172 35.8056 95.4796 35.703C95.4138 35.535 95.2541 35.5164 95.0755 35.563C95.0004 35.5817 94.8876 35.5444 94.8218 35.4977C94.5681 35.3204 94.3238 35.1338 94.0795 34.9471C93.8446 34.7698 93.6097 34.5925 93.3466 34.3872C93.9197 34.2006 94.4554 34.0326 94.9816 33.874C95.0474 33.8553 95.1413 33.8927 95.2071 33.93C95.4044 34.0606 95.6018 34.042 95.7145 33.8553C95.8085 33.6967 95.7615 33.4914 95.5924 33.3981C95.4138 33.2954 95.2447 33.3608 95.1319 33.5567C95.0943 33.6127 95.038 33.6967 94.9816 33.706C94.4178 33.79 93.854 33.8647 93.2526 33.9486L94.1077 32.2689C94.1077 32.2689 94.1265 32.2689 94.1265 32.2503L94.1171 32.2783Z" fill="#67123C"/>
<path d="M94.0419 32.2316C94.0325 32.1569 94.0419 32.073 94.0043 32.0076C93.9198 31.821 93.9855 31.625 94.1641 31.5504C94.3332 31.4757 94.5493 31.5784 94.6057 31.7557C94.6621 31.933 94.5399 32.1196 94.352 32.1756C94.2674 32.1943 94.1923 32.2503 94.1171 32.2876L94.0419 32.2316Z" fill="#F2EC4F"/>
<path d="M90.6027 32.8102L90.4993 32.9781C90.349 33.1088 90.1705 33.1088 90.0671 32.9595C90.0013 32.8662 89.9637 32.6702 90.0201 32.5955C90.0859 32.5022 90.2644 32.4276 90.3866 32.4462C90.5745 32.4742 90.6497 32.6235 90.6027 32.8195V32.8102Z" fill="#F3EF50"/>
<path d="M90.3678 32.0823L90.443 32.2222L90.4054 32.2502L90.3302 32.1569L90.3772 32.0823H90.3678Z" fill="#FCFCFC"/>
<path d="M94.0983 32.2969L94.0231 32.2503C94.0231 32.2503 94.0231 32.2316 94.0325 32.2223L94.1077 32.2783C94.1077 32.2783 94.1077 32.2969 94.0889 32.2969H94.0983Z" fill="#F2EC4F"/>
<path d="M92.1813 33.8927L92.623 34.0887L92.5572 33.4728H92.6042L92.8109 34.0513L93.1586 33.6407L93.215 33.6687L92.9801 34.1633L93.6472 34.0887V34.126L93.0364 34.35L93.4593 34.7046L93.4217 34.7605L92.9237 34.5179L93.0176 35.2925H92.9895L92.7451 34.5646L92.3599 35.0218L92.3129 34.9938L92.5666 34.4526L91.7961 34.5366V34.5086L92.529 34.266L92.1438 33.958L92.1813 33.902V33.8927Z" fill="#711F34"/>
<path d="M92.1438 33.958L92.0122 33.8833L92.031 33.8367L92.1813 33.902L92.1438 33.958Z" fill="#711F34"/>
<path d="M93.4499 34.6952L93.4969 34.7885L93.4124 34.7512L93.4499 34.6952Z" fill="#711F34"/>
<path d="M94.0983 32.297L93.2432 33.9767C93.8446 33.8927 94.4084 33.8181 94.9722 33.7341C95.0286 33.7341 95.085 33.6408 95.1225 33.5848C95.2353 33.3888 95.4044 33.3235 95.583 33.4261C95.7427 33.5195 95.7991 33.7247 95.7051 33.8834C95.5924 34.0607 95.4044 34.0887 95.1977 33.958C95.1319 33.9207 95.038 33.8834 94.9722 33.9021C94.4366 34.0607 93.9104 34.2287 93.3372 34.4153C93.6003 34.6206 93.8352 34.7979 94.0701 34.9752C94.3144 35.1618 94.5587 35.3485 94.8124 35.5258C94.8782 35.5724 94.991 35.6097 95.0662 35.5911C95.2447 35.5538 95.4044 35.5724 95.4702 35.7311C95.5078 35.843 95.489 36.0203 95.4232 36.1043C95.3669 36.179 95.1789 36.207 95.0756 36.179C94.8876 36.123 94.8406 35.9643 94.8876 35.7777C94.8876 35.7591 94.8876 35.7404 94.8876 35.7124L93.0929 34.7792C93.1774 35.4044 93.262 35.983 93.3466 36.5522C93.3466 36.5989 93.4405 36.6362 93.4969 36.6736C93.6848 36.7855 93.7506 36.9628 93.6473 37.1401C93.5533 37.2988 93.3466 37.3548 93.1868 37.2521C93.0177 37.1401 92.9895 36.9535 93.1116 36.7669C93.1492 36.7109 93.215 36.6269 93.1962 36.5709C93.0365 36.0203 92.8579 35.4698 92.67 34.8819C92.2566 35.4231 91.8713 35.927 91.486 36.4309C91.4484 36.4776 91.4672 36.5709 91.486 36.6362C91.5612 36.8602 91.486 37.0468 91.2887 37.1028C91.0914 37.1588 90.9034 37.0375 90.8752 36.8415C90.847 36.6362 90.9786 36.4963 91.2135 36.4589C91.2793 36.4496 91.3733 36.4123 91.4015 36.3656C91.7021 35.815 91.9934 35.2551 92.3035 34.6486C91.6834 34.7326 91.1102 34.8072 90.537 34.8912C90.4806 34.8912 90.4336 34.9939 90.396 35.0498C90.2832 35.2365 90.0859 35.2925 89.9262 35.1712C89.7664 35.0592 89.7288 34.9005 89.8228 34.7326C89.9168 34.5553 90.1423 34.4993 90.2926 34.6486C90.4148 34.7699 90.5182 34.7419 90.6497 34.6952C91.1477 34.5366 91.6552 34.378 92.2096 34.21C91.674 33.8087 91.1853 33.4261 90.6873 33.0529C90.6309 33.0155 90.5651 32.9969 90.4994 32.9782L90.6027 32.8102C90.6027 32.8102 90.6215 32.8849 90.6497 32.8942C91.2323 33.2022 91.8149 33.5008 92.4445 33.8367C92.3505 33.1648 92.2659 32.549 92.172 31.9424C92.172 31.8864 92.078 31.8304 92.0216 31.8024C91.8149 31.6904 91.7491 31.5038 91.8619 31.3265C91.9559 31.1679 92.172 31.1305 92.3223 31.2332C92.4915 31.3545 92.5103 31.5411 92.3693 31.7371C92.3223 31.7931 92.2847 31.8957 92.3035 31.9517C92.4727 32.5023 92.6512 33.0529 92.8204 33.6128C92.8297 33.6408 92.8485 33.6688 92.8767 33.7247L94.0231 32.269L94.0983 32.3157V32.297ZM93.4123 34.7512L93.4969 34.7886L93.4499 34.6952L93.0271 34.3406L93.6567 34.1167V34.0794L92.9801 34.154L93.215 33.6594L93.1586 33.6314L92.811 34.042L92.6042 33.4541H92.5572L92.623 34.0794L92.1814 33.8834L92.031 33.8181L92.0122 33.8647L92.1438 33.9394L92.5291 34.2473L91.7961 34.4899V34.5179L92.5666 34.434L92.3129 34.9752L92.3599 35.0032L92.7452 34.5459L92.9895 35.2831H93.0177L92.9237 34.4993L93.4217 34.7419L93.4123 34.7512Z" fill="#F0E94E"/>
</g>
<defs>
<clipPath id="clip0_744_10657">
<rect width="126" height="142" fill="white"/>
</clipPath>
</defs>
</svg>
