<svg width="130" height="139" viewBox="0 0 130 139" fill="none" xmlns="http://www.w3.org/2000/svg">
<g clip-path="url(#clip0_744_10680)">
<path d="M0 138.04L93.01 6.38L87.94 0L0 138.04Z" fill="#8200C1"/>
<path d="M0 138.04L120.46 28.68L116.4 24.33L0 138.04Z" fill="#5B00D1"/>
<path d="M0 138.04L108.83 10.91L105.79 6.95001L0 138.04Z" fill="#03CBFE"/>
<path d="M0 138.04L117.44 16.54L113.32 13.75L0 138.04Z" fill="#03CBFE"/>
<path d="M0 138.04L96.55 10.91L91.59 8.38L0 138.04Z" fill="#5B00D1"/>
<path d="M0 138.04L103.82 9.40001L99.58 6.95001L0 138.04Z" fill="#027DD0"/>
<path d="M0 138.04L111.76 15.53L107.47 11.66L0 138.04Z" fill="#FEE404"/>
<path d="M0 138.04L119.87 21.87L116.51 17.5L0 138.04Z" fill="#027DD0"/>
<path d="M0 138.04L129.49 28.37L122.03 25.48L0 138.04Z" fill="#8200C1"/>
</g>
<defs>
<clipPath id="clip0_744_10680">
<rect width="129.49" height="138.04" fill="white"/>
</clipPath>
</defs>
</svg>
