<svg width="121" height="125" viewBox="0 0 121 125" fill="none" xmlns="http://www.w3.org/2000/svg">
<g clip-path="url(#clip0_744_10696)">
<path d="M0 124.13C0.31 123.25 76 0 76 0L93.88 11.18L0 124.13Z" fill="#636363"/>
<path d="M0 124.13C0.58 122.93 91.28 0 91.28 0L104.57 8.26L0 124.13Z" fill="#BABABA"/>
<path d="M116.76 23.04L104.57 13.51C104.57 13.51 1.3 122.87 0 124.13C0 124.13 117.49 23.64 116.76 23.03V23.04Z" fill="#94E7D2"/>
<path d="M0 124.13C0.6 123.24 93.88 11.17 93.88 11.17L104.57 19.02L0 124.13Z" fill="white"/>
<path d="M120.08 30.35L110.33 23.04C110.33 23.04 1.3 122.87 0 124.13C0 124.13 120.82 30.95 120.08 30.34V30.35Z" fill="#226B90"/>
</g>
<defs>
<clipPath id="clip0_744_10696">
<rect width="120.09" height="124.13" fill="white"/>
</clipPath>
</defs>
</svg>
