<svg width="164" height="149" viewBox="0 0 164 149" fill="none" xmlns="http://www.w3.org/2000/svg">
<path d="M45.2805 148.03L156.689 69.5613L150.161 52.3225L46.0657 147.251L45.2805 148.03Z" fill="#003C79"/>
<path d="M45.2806 148.029L133.507 25.9748L126.476 17.186L45.2806 148.029Z" fill="#45D1D6"/>
<path d="M139.213 31.5593L148.832 44.085L45.2807 148.03L139.213 31.5593Z" fill="#7AB8E3"/>
<path d="M45.2805 148.03L121.849 13.1049L105.665 10.0134L45.2805 148.03Z" fill="#008977"/>
<path d="M112.597 17.1989L122.963 22.9663L45.2806 148.029L112.597 17.1989Z" fill="#24B0AE"/>
<path d="M123.373 36.5013L131.759 47.2842L45.2804 148.03L123.373 36.5013Z" fill="#F4F0FF"/>
<path d="M137.959 46.6472L146.857 58.2308L45.2803 148.03L137.959 46.6472Z" fill="#0090CE"/>
</svg>
