<svg width="176" height="154" viewBox="0 0 176 154" fill="none" xmlns="http://www.w3.org/2000/svg">
<path d="M41.1983 153.951L136.435 43.4489L130.959 32.8057L41.1983 153.951Z" fill="#E0E0E0"/>
<path d="M41.1983 153.951L121.429 19.5358L114.15 8.89959L41.1983 153.951Z" fill="#FF9BC2"/>
<path d="M156.353 67.2145L151.024 58.4849L41.1979 153.951L156.353 67.2145Z" fill="#00DBDD"/>
<path d="M41.1982 153.95L156.601 53.7795L151.41 46.5943L41.1982 153.95Z" fill="#00BAF0"/>
<path d="M41.1985 153.951L135.02 28.7775L131.411 23.9129L41.1985 153.951Z" fill="#AEFB94"/>
<path d="M41.1982 153.951L144.888 44.2994L140.507 37.9689L41.1982 153.951Z" fill="#FFF997"/>
<path d="M41.1982 153.951L124.794 23.7744L121.318 19.0871L41.1982 153.951Z" fill="#FF5F9A"/>
<path d="M41.1988 153.951L129.812 26.2365L126.27 21.459L41.1988 153.951Z" fill="#F1BBE6"/>
<path d="M41.1981 153.951L145.878 52.179L142.099 47.4439L41.1981 153.951Z" fill="#6BE6FF"/>
</svg>
