<svg width="110" height="127" viewBox="0 0 110 127" fill="none" xmlns="http://www.w3.org/2000/svg">
<g clip-path="url(#clip0_744_10800)">
<path d="M0 126.04L99.64 23.5L88.23 9.55005L0 126.04Z" fill="#C2998F"/>
<path d="M0 126.04L109.4 31.2001L103.99 16.8L0 126.04Z" fill="#8FD1A2"/>
<path d="M0 126.04L94.03 1.95L73.14 0L1.64 123.5L0 126.04Z" fill="#F6D0D7"/>
<mask id="mask0_744_10800" style="mask-type:luminance" maskUnits="userSpaceOnUse" x="61" y="25" width="28" height="28">
<path d="M88.3313 44.5315C89.8201 41.1322 88.7793 37.0346 85.6435 34.7816C84.1547 33.7144 82.4287 33.2269 80.729 33.2796C79.5432 33.3191 78.3838 33.609 77.3166 34.1492C77.4747 32.9634 77.3693 31.7644 77.0267 30.6445C76.526 29.0239 75.4984 27.5483 74.0095 26.4811C70.8606 24.2412 66.6444 24.6101 63.9171 27.1267C63.5086 27.5087 63.1266 27.9304 62.7972 28.3915C62.3492 29.0239 62.0066 29.7091 61.7695 30.4074C61.7695 30.4337 61.7431 30.4732 61.7299 30.5259C61.5982 30.8553 61.361 31.58 61.1898 32.7658C61.0053 34.0438 60.9131 35.8488 61.1107 38.2731C61.2425 39.8015 61.4928 41.5934 61.9144 43.6356C62.5864 46.8504 64.062 51.3696 64.3519 52.2655L64.2992 52.3446C64.2992 52.3446 64.3255 52.3446 64.3782 52.3446C64.3914 52.3973 64.4046 52.4236 64.4046 52.4236L64.4573 52.3446C65.3927 52.3314 70.1491 52.2392 73.4034 51.8307C75.472 51.5672 77.2375 51.2247 78.7395 50.8426C81.0979 50.2497 82.7712 49.5645 83.9175 48.9716C84.9715 48.4314 85.5776 47.9703 85.8543 47.7331C85.8938 47.7068 85.9202 47.6804 85.9465 47.6541C86.5263 47.2061 87.0533 46.6528 87.5144 46.0203C87.857 45.546 88.1205 45.0585 88.3445 44.5447L88.3313 44.5315Z" fill="white"/>
</mask>
<g mask="url(#mask0_744_10800)">
<path d="M0 126.04L99.64 23.5L88.23 9.55005L0 126.04Z" fill="#8E3E2A"/>
<path d="M0 126.04L109.4 31.2001L103.99 16.8L0 126.04Z" fill="#2BAC4F"/>
<path d="M0 126.04L94.03 1.95L73.14 0L1.64 123.5L0 126.04Z" fill="#F5A9B8"/>
</g>
</g>
<defs>
<clipPath id="clip0_744_10800">
<rect width="109.4" height="126.04" fill="white"/>
</clipPath>
</defs>
</svg>
