<svg width="112" height="142" viewBox="0 0 112 142" fill="none" xmlns="http://www.w3.org/2000/svg">
<g clip-path="url(#clip0_744_10840)">
<path d="M82.03 0L96.88 43.42L0 141.84L82.03 0Z" fill="#FCD700"/>
<path d="M82.03 0L93.27 20.99L0 141.84L82.03 0Z" fill="#8E0CC0"/>
<path d="M102.33 37.89L111.06 54.19L0 141.84L102.33 37.89Z" fill="#8E0CC0"/>
<path d="M71.56 43.42C63.23 43.42 56.47 50.3 56.47 58.78C56.47 67.26 63.22 74.14 71.56 74.14C79.9 74.14 86.65 67.27 86.65 58.78C86.65 50.29 79.89 43.42 71.56 43.42ZM71.56 70.33C65.29 70.33 60.21 65.16 60.21 58.77C60.21 52.38 65.29 47.22 71.56 47.22C77.83 47.22 82.91 52.39 82.91 58.77C82.91 65.15 77.83 70.33 71.56 70.33Z" fill="white"/>
</g>
<defs>
<clipPath id="clip0_744_10840">
<rect width="111.06" height="141.84" fill="white"/>
</clipPath>
</defs>
</svg>
