<svg width="139" height="130" viewBox="0 0 139 130" fill="none" xmlns="http://www.w3.org/2000/svg">
<path d="M74.9825 2.10476L86.8216 7.31404L3.06408 129.304L74.9825 2.10476Z" fill="#D22D00"/>
<path d="M3.06404 129.304C3.26425 128.859 84.9279 9.6816 84.9279 9.6816L98.6607 12.9965L3.064 129.302L3.06404 129.304Z" fill="#FD9856"/>
<path d="M3.06368 129.304C3.41492 128.717 100.555 10.6288 100.555 10.6288L109.552 18.2058L3.06372 129.306L3.06368 129.304Z" fill="white"/>
<path d="M136.241 28.7524L121.864 18.2057C121.864 18.2057 3.69022 128.649 3.06244 129.302C3.06244 129.302 136.586 29.0845 136.239 28.7525L136.241 28.7524Z" fill="#A00362"/>
<path d="M3.0639 129.304C3.35733 128.836 107.184 19.6265 107.184 19.6265L115.428 24.784L3.0639 129.304Z" fill="#D163A2"/>
</svg>
