<svg width="127" height="143" viewBox="0 0 127 143" fill="none" xmlns="http://www.w3.org/2000/svg">
<path d="M92 11L117 17L11 142.34L92 11Z" fill="white"/>
<path d="M75.5 7L89.5 33L11 142.34L75.5 7Z" fill="white"/>
<path d="M106.5 44L127 50.5L11 142.34L106.5 44Z" fill="white"/>
<path d="M109.5 22L118.5 40.5L11 142.34L109.5 22Z" fill="white"/>
<path d="M79.53 44.34L76.74 39.5099C74.58 40.7599 72.78 42.56 71.53 44.72L76.36 47.5099C77.12 46.1999 78.21 45.1099 79.52 44.3499L79.53 44.34Z" fill="#242424"/>
<path d="M76.37 56.15L71.54 58.94C72.79 61.1 74.59 62.9 76.75 64.15L79.54 59.32C78.23 58.56 77.14 57.47 76.38 56.16L76.37 56.15Z" fill="#939292"/>
<path d="M76.37 47.5L71.54 44.71C70.33 46.8 69.63 49.23 69.63 51.82H75.2C75.2 50.24 75.63 48.77 76.37 47.5Z" fill="#494949"/>
<path d="M79.53 44.34C80.8 43.6 82.28 43.17 83.85 43.17V37.6C83.6 37.6 83.36 37.6 83.12 37.62C82.39 37.66 81.68 37.75 80.99 37.89C80.16 38.06 79.35 38.31 78.58 38.62C78.43 38.68 78.28 38.74 78.13 38.81C77.66 39.02 77.19 39.26 76.75 39.51L79.54 44.34H79.53Z" fill="black"/>
<path d="M76.37 56.15C75.63 54.88 75.2 53.4 75.2 51.83H69.63C69.63 54.42 70.33 56.85 71.54 58.94L76.37 56.15Z" fill="#6E6E6E"/>
<path d="M91.34 56.15L96.17 58.94C97.38 56.85 98.08 54.42 98.08 51.83H92.51C92.51 53.41 92.08 54.88 91.34 56.15Z" fill="#929392"/>
<path d="M79.53 59.31L76.74 64.14C78.04 64.89 79.47 65.45 80.99 65.76C81.68 65.9 82.4 65.99 83.12 66.03C83.36 66.04 83.61 66.05 83.85 66.05V60.48C82.27 60.48 80.8 60.05 79.53 59.31Z" fill="#B7B6B6"/>
<path d="M88.18 59.31L90.97 64.14C93.13 62.89 94.93 61.0899 96.18 58.9299L91.35 56.14C90.59 57.45 89.5 58.5399 88.19 59.2999L88.18 59.31Z" fill="#B6B6B7"/>
<path d="M88.18 44.34L90.97 39.51C90.85 39.44 90.73 39.37 90.6 39.3C90.33 39.16 90.06 39.02 89.78 38.89C89.53 38.78 89.28 38.67 89.02 38.57C88.33 38.3 87.61 38.08 86.88 37.92C86.14 37.76 85.37 37.65 84.59 37.61C84.35 37.6 84.1 37.59 83.86 37.59V43.16C85.44 43.16 86.91 43.59 88.18 44.33V44.34Z" fill="#242424"/>
<path d="M88.18 59.31C86.91 60.05 85.43 60.48 83.86 60.48V66.05C84.11 66.05 84.35 66.05 84.59 66.03C85.37 65.99 86.14 65.88 86.88 65.72C88.21 65.43 89.46 64.96 90.62 64.33C90.65 64.31 90.69 64.29 90.72 64.27C90.8 64.22 90.88 64.18 90.96 64.13L88.17 59.3L88.18 59.31Z" fill="#DCDCDB"/>
<path d="M88.18 44.34C89.49 45.1 90.58 46.19 91.34 47.5L96.17 44.7099C94.99 42.6699 93.32 40.96 91.33 39.72C91.21 39.65 91.09 39.5799 90.97 39.5099L88.18 44.34Z" fill="#494949"/>
<path d="M96.68 45.66C96.52 45.34 96.35 45.02 96.17 44.71L91.34 47.5C92.08 48.77 92.51 50.25 92.51 51.82H98.08C98.08 49.91 97.7 48.09 97.01 46.42C96.9 46.16 96.79 45.91 96.67 45.65L96.68 45.66Z" fill="#6E6E6F"/>
<path d="M83.12 66.03C82.39 65.99 81.68 65.8999 80.99 65.7599C79.47 65.4499 78.04 64.89 76.74 64.14L73.94 68.9799C76.86 70.67 80.24 71.64 83.85 71.64V66.0499C83.6 66.0499 83.36 66.05 83.12 66.03Z" fill="#B0EC61"/>
<path d="M71.53 58.94L66.69 61.74C68.43 64.74 70.94 67.25 73.94 68.99L76.74 64.15C74.58 62.9 72.78 61.1 71.53 58.94Z" fill="#FEF75B"/>
<path d="M71.53 44.71L66.69 41.91C65 44.83 64.03 48.21 64.03 51.82H69.62C69.62 49.23 70.32 46.8 71.53 44.71Z" fill="#EEA752"/>
<path d="M90.72 64.28C90.72 64.28 90.65 64.32 90.62 64.34C89.46 64.97 88.2 65.44 86.88 65.73C86.14 65.89 85.37 66 84.59 66.04C84.35 66.05 84.1 66.06 83.86 66.06V71.65C87.47 71.65 90.85 70.68 93.77 68.99L90.97 64.15C90.89 64.2 90.81 64.25 90.73 64.29L90.72 64.28Z" fill="#7FFB6F"/>
<path d="M98.08 51.82C98.08 54.41 97.38 56.84 96.17 58.93L101.01 61.73C102.7 58.81 103.67 55.43 103.67 51.82H98.08Z" fill="#6DDBEC"/>
<path d="M90.96 64.14L93.76 68.98C96.76 67.24 99.27 64.73 101.01 61.73L96.17 58.93C94.92 61.09 93.12 62.89 90.96 64.14Z" fill="#7DD7BB"/>
<path d="M69.62 51.82H64.03C64.03 55.43 65 58.81 66.69 61.73L71.53 58.93C70.32 56.84 69.62 54.41 69.62 51.82Z" fill="#F7D055"/>
<path d="M96.68 45.66C96.8 45.91 96.91 46.17 97.02 46.43C97.71 48.1 98.09 49.92 98.09 51.83H103.68C103.68 48.22 102.71 44.84 101.02 41.92L96.18 44.72C96.36 45.03 96.53 45.34 96.69 45.67L96.68 45.66Z" fill="#5F7FE0"/>
<path d="M76.74 39.51L73.94 34.67C70.94 36.41 68.43 38.92 66.69 41.92L71.53 44.72C72.78 42.56 74.58 40.76 76.74 39.51Z" fill="#E88156"/>
<path d="M91.33 39.72C93.33 40.96 94.99 42.68 96.17 44.71L101.01 41.91C99.27 38.91 96.76 36.4 93.76 34.66L90.96 39.5C91.08 39.57 91.2 39.64 91.32 39.71L91.33 39.72Z" fill="#6F50F2"/>
<path d="M84.58 37.61C85.36 37.65 86.13 37.76 86.87 37.92C87.61 38.08 88.32 38.3 89.01 38.57C89.27 38.67 89.52 38.7799 89.77 38.8899C90.05 39.0199 90.32 39.1499 90.59 39.2999C90.71 39.3699 90.83 39.4399 90.96 39.5099L93.76 34.67C90.84 32.98 87.46 32.0099 83.85 32.0099V37.5999C84.1 37.5999 84.34 37.5999 84.58 37.6199V37.61Z" fill="#AF5DAF"/>
<path d="M78.12 38.8C78.27 38.73 78.42 38.67 78.57 38.61C79.34 38.3 80.15 38.05 80.98 37.88C81.67 37.74 82.39 37.65 83.11 37.61C83.35 37.6 83.6 37.59 83.84 37.59V32C80.23 32 76.85 32.97 73.93 34.66L76.73 39.5C77.18 39.24 77.64 39.01 78.11 38.8H78.12Z" fill="#E45D5C"/>
</svg>
