<svg width="121" height="125" viewBox="0 0 121 125" fill="none" xmlns="http://www.w3.org/2000/svg">
<g clip-path="url(#clip0_744_10937)">
<path d="M0 124.13C0.31 123.25 76 0 76 0L87.39 18.99L0 124.13Z" fill="#DC2D49"/>
<path d="M0 124.13C0.58 122.93 87.39 6.96002 87.39 6.96002L104.58 8.27002L0 124.13Z" fill="#C0D958"/>
<path d="M104.57 28.31L96.73 16.94C96.73 16.94 1.3 122.87 0 124.13C0 124.13 105.31 28.92 104.57 28.31Z" fill="#B1F2DE"/>
<path d="M120.08 30.35L110.33 23.04C110.33 23.04 1.3 122.87 0 124.13C0 124.13 120.82 30.95 120.08 30.34V30.35Z" fill="#932D97"/>
<path d="M89.161 36.6369C86.1882 33.9661 82.3398 34.3994 79.5484 34.8717C79.7208 32.0425 79.7371 28.1747 76.7644 25.504C73.7916 22.8333 69.0161 21.6642 65.6128 25.4586C62.2095 29.2531 63.8714 33.8535 66.8567 36.5346C69.8421 39.2157 73.6779 38.772 76.4693 38.2998C76.2969 41.1289 76.2806 44.9967 79.2533 47.6675C82.2261 50.3382 87.0016 51.5073 90.4049 47.7128C93.8082 43.9184 92.1463 39.318 89.161 36.6369ZM68.7752 34.4201C68.3575 34.0429 64.7865 30.6763 67.7388 27.376C70.6911 24.0756 74.4305 27.2642 74.8481 27.6415C77.0358 29.5993 76.8282 32.7906 76.6538 35.3537L76.6308 35.3559L76.633 35.3788C74.0941 35.8272 70.9514 36.379 68.7637 34.4212L68.7752 34.4201ZM81.1707 45.5415C78.983 43.5837 79.1906 40.3923 79.365 37.8292L79.388 37.8271L79.3858 37.8041C81.9247 37.3557 85.0674 36.8039 87.2551 38.7617C87.6728 39.139 91.2438 42.5055 88.2915 45.8059C85.3392 49.1062 81.5998 45.9176 81.1821 45.5404L81.1707 45.5415Z" fill="#393939"/>
</g>
<defs>
<clipPath id="clip0_744_10937">
<rect width="120.09" height="124.13" fill="white"/>
</clipPath>
</defs>
</svg>
