<svg width="124" height="178" viewBox="0 0 124 178" fill="none" xmlns="http://www.w3.org/2000/svg">
<path d="M0.0600586 153.097L109.729 48.0534L105.576 39.459L0.0600586 153.097Z" fill="#8F8ED1"/>
<path d="M108.904 24.9965L102.387 16.9898L0.0600586 153.097L108.904 24.9965Z" fill="#FC7AC8"/>
<path d="M0.0600586 153.097L110.712 60.7425L104.656 52.7866L0.0600586 153.097Z" fill="#BAB9EC"/>
<path d="M0.0600586 153.097L108.226 36.543L102.525 29.0554L0.0600586 153.097Z" fill="#7A7A7A"/>
<path d="M0.0600586 153.097L10.6832 136.053L91.6866 14.8158L97.8638 22.9301L0.0600586 153.097Z" fill="#FCBAD3"/>
<mask id="mask0_744_10966" style="mask-type:luminance" maskUnits="userSpaceOnUse" x="68" y="48" width="28" height="28">
<path d="M95.3313 67.5315C96.8201 64.1322 95.7793 60.0346 92.6435 57.7816C91.1547 56.7144 89.4287 56.2269 87.729 56.2796C86.5432 56.3191 85.3838 56.609 84.3166 57.1492C84.4747 55.9634 84.3693 54.7644 84.0267 53.6445C83.526 52.0239 82.4984 50.5483 81.0095 49.4811C77.8606 47.2412 73.6444 47.6101 70.9171 50.1267C70.5086 50.5087 70.1266 50.9304 69.7972 51.3915C69.3492 52.0239 69.0066 52.7091 68.7695 53.4074C68.7695 53.4337 68.7431 53.4732 68.7299 53.5259C68.5982 53.8553 68.361 54.58 68.1898 55.7658C68.0053 57.0438 67.9131 58.8488 68.1107 61.2731C68.2425 62.8015 68.4928 64.5934 68.9144 66.6356C69.5864 69.8504 71.062 74.3696 71.3519 75.2655L71.2992 75.3446C71.2992 75.3446 71.3255 75.3446 71.3782 75.3446C71.3914 75.3973 71.4046 75.4236 71.4046 75.4236L71.4573 75.3446C72.3927 75.3314 77.1491 75.2392 80.4034 74.8307C82.472 74.5672 84.2375 74.2247 85.7395 73.8426C88.0979 73.2497 89.7712 72.5645 90.9175 71.9716C91.9715 71.4314 92.5776 70.9703 92.8543 70.7331C92.8938 70.7068 92.9202 70.6804 92.9465 70.6541C93.5263 70.2061 94.0533 69.6528 94.5144 69.0203C94.857 68.546 95.1205 68.0585 95.3445 67.5447L95.3313 67.5315Z" fill="white"/>
</mask>
<g mask="url(#mask0_744_10966)">
<path d="M-0.000488281 153.013L109.669 47.9701L105.515 39.3757L-0.000488281 153.013Z" fill="#2A29AB"/>
<path d="M108.843 24.9132L102.326 16.9066L-0.000488281 153.013L108.843 24.9132Z" fill="#FF0099"/>
<path d="M-0.000488281 153.013L110.651 60.6592L104.595 52.7034L-0.000488281 153.013Z" fill="#7F7DE1"/>
<path d="M-0.000488281 153.013L108.166 36.4598L102.465 28.9721L-0.000488281 153.013Z" fill="black"/>
<path d="M-0.000488281 153.013L10.6227 135.97L91.626 14.7325L97.8033 22.8468L-0.000488281 153.013Z" fill="#FF7EB0"/>
</g>
</svg>
