<svg width="130" height="170" viewBox="0 0 130 170" fill="none" xmlns="http://www.w3.org/2000/svg">
<path d="M0.412545 144.956L94.4393 36.8425L122.782 48.8935L0.412545 144.956Z" fill="#80CAF6"/>
<path d="M0.413124 144.956L51.8831 17.3822L75.6933 25.9745L0.413124 144.956Z" fill="#F87DB0"/>
<path d="M0.412584 144.956L84.3602 12.7029L111.694 22.709L0.412584 144.956Z" fill="#FAE77A"/>
<mask id="mask0_744_11011" style="mask-type:luminance" maskUnits="userSpaceOnUse" x="45" y="40" width="40" height="38">
<path d="M83.4463 65.5177C85.2193 60.8037 83.5137 55.3255 79.1018 52.4979C77.0073 51.1587 74.6331 50.6223 72.3335 50.8161C70.7293 50.9551 69.1788 51.4313 67.7714 52.2403C67.9003 50.6219 67.6711 49.0046 67.1263 47.5115C66.3311 45.3512 64.8321 43.4254 62.7376 42.0862C58.3088 39.2774 52.6214 40.0809 49.1064 43.6877C48.5804 44.235 48.0929 44.8338 47.6797 45.4825C47.1182 46.3718 46.7032 47.325 46.4321 48.2885C46.434 48.3242 46.4011 48.3796 46.3871 48.452C46.2322 48.9079 45.963 49.907 45.8162 51.5264C45.6582 53.2717 45.6632 55.7246 46.1056 58.9958C46.3942 61.0576 46.8624 63.468 47.5808 66.2053C48.7229 70.5138 51.0481 76.5321 51.5054 77.7254L51.4397 77.8364C51.4397 77.8364 51.4754 77.8345 51.5468 77.8307C51.5685 77.9011 51.5882 77.9359 51.5882 77.9359L51.654 77.825C52.9208 77.7398 59.3601 77.2724 63.7411 76.4846C66.5255 75.9785 68.8935 75.3872 70.9016 74.7612C74.0551 73.7879 76.2735 72.739 77.7843 71.8529C79.1739 71.0449 79.962 70.3764 80.3199 70.035C80.3716 69.9965 80.4054 69.9589 80.4392 69.9213C81.1926 69.2724 81.867 68.4845 82.4465 67.5943C82.8766 66.9268 83.1986 66.2471 83.4651 65.5346L83.4463 65.5177Z" fill="white"/>
</mask>
<g mask="url(#mask0_744_11011)">
<path d="M0.000435392 145.446L94.0272 37.3322L122.37 49.3833L0.000435392 145.446Z" fill="#2D9CF2"/>
<path d="M0.0010146 145.446L51.4709 17.8719L75.2811 26.4642L0.0010146 145.446Z" fill="#F62C72"/>
<path d="M0.000474733 145.446L83.9481 13.1926L111.282 23.1987L0.000474733 145.446Z" fill="#FCD700"/>
</g>
</svg>
