<svg width="163" height="142" viewBox="0 0 163 142" fill="none" xmlns="http://www.w3.org/2000/svg">
<path d="M31.4729 141.502L149.916 23.8146L155.413 31.9706L31.4729 141.502Z" fill="#28246C"/>
<path d="M31.473 141.502L131.541 0.868786L137.112 9.10021L31.473 141.502Z" fill="#93C73D"/>
<path d="M31.4729 141.502L138.095 7.74582L143.285 16.8112L31.4729 141.502Z" fill="#0A733B"/>
<path d="M31.473 141.502L142.689 17.3458L148.275 25.5997L31.473 141.502Z" fill="#4DBFED"/>
<path d="M132.423 29.3578C132.449 29.5378 132.476 29.7168 132.501 29.8954C132.571 30.4223 132.592 30.9343 132.597 31.4408C132.6 32.1897 132.608 32.9331 132.605 33.6693C132.598 34.4517 132.584 35.2261 132.566 35.9938C132.542 36.7572 132.512 37.5126 132.476 38.2614C132.468 38.4212 132.452 38.5778 132.457 38.7406C132.437 38.7644 132.447 38.7994 132.445 38.8304C132.366 40.0721 132.272 41.2939 132.163 42.4956C132.158 42.5526 132.138 42.5597 132.079 42.5436C130.835 42.2089 129.608 41.8956 128.395 41.6033C128.344 41.5919 128.292 41.5828 128.241 41.5714C127.968 41.4965 127.694 41.4419 127.422 41.3792C126.808 41.2423 126.197 41.113 125.59 40.9878C125.543 40.9793 125.496 40.9709 125.449 40.9624C125.38 40.9475 125.38 40.9475 125.41 40.8841C125.526 40.6395 125.636 40.3943 125.742 40.1424C125.766 40.0855 125.792 40.0275 125.812 39.9676C125.827 39.9215 125.85 39.9101 125.901 39.9202C126.402 40.027 126.908 40.1367 127.415 40.2478C128.091 40.4011 128.77 40.5584 129.454 40.7247C129.472 40.7282 129.489 40.7401 129.505 40.7301C129.526 40.7376 129.548 40.7477 129.571 40.7518C130.05 40.8714 130.532 40.9936 131.015 41.1208C131.071 41.1353 131.088 41.1242 131.094 41.0709C131.121 40.7116 131.151 40.3539 131.177 39.9919C131.185 39.8596 131.206 39.7326 131.195 39.5942C131.224 39.4958 131.219 39.387 131.226 39.281C131.27 38.579 131.306 37.8701 131.339 37.1534C131.368 36.3859 131.392 35.6093 131.411 34.8271C131.423 34.0598 131.43 33.2858 131.433 32.5052C131.43 31.8753 131.429 31.242 131.416 30.6024C131.415 30.4845 131.413 30.3665 131.392 30.2424C131.389 30.1808 131.388 30.1194 131.382 30.0562C131.266 28.8686 130.961 27.6782 130.331 26.5C130.309 26.4575 130.313 26.4376 130.344 26.426C130.653 26.3109 130.987 26.2687 131.356 26.3331C131.396 26.3407 131.419 26.3569 131.444 26.4094C131.828 27.1882 132.102 27.9793 132.293 28.7765C132.34 28.9687 132.38 29.1613 132.422 29.3542L132.423 29.3578Z" fill="#FBFCFC"/>
<path d="M128.094 22.7007C128.28 22.8148 128.466 22.9181 128.65 23.044C129.019 23.2959 129.369 23.5921 129.705 23.9287C129.724 23.9479 129.753 23.9661 129.752 23.9948C129.751 24.0187 129.723 24.0127 129.705 24.0163C129.349 24.1037 129.019 24.245 128.719 24.4429C128.686 24.4639 128.657 24.4481 128.621 24.4206C128.198 24.091 127.761 23.8556 127.316 23.7032C127.27 23.6877 127.225 23.6771 127.18 23.6653C127.158 23.6565 127.138 23.6466 127.116 23.6402C126.618 23.5074 126.137 23.461 125.671 23.5017C125.188 23.5464 124.754 23.7066 124.384 24.0109C123.954 24.3686 123.658 24.8759 123.455 25.4793C123.243 26.0935 123.139 26.7589 123.094 27.4535C123.08 27.6475 123.063 27.8412 123.076 28.0423C123.058 28.2623 123.067 28.4893 123.077 28.714C123.099 29.3224 123.194 29.9329 123.247 30.5368C123.251 30.5867 123.252 30.6349 123.261 30.6829C123.271 30.7394 123.256 30.747 123.21 30.7328C122.807 30.6099 122.407 30.4886 122.007 30.3757C121.683 30.2871 121.361 30.2358 121.042 30.2199C121.032 30.2174 121.021 30.2148 121.013 30.2149C120.712 30.1917 120.413 30.1941 120.121 30.2236C119.479 30.2934 118.878 30.4765 118.347 30.8729C117.892 31.2179 117.55 31.688 117.319 32.2829C117.112 32.8089 117.007 33.3708 116.96 33.9522C116.941 34.1708 116.922 34.3895 116.937 34.6101C116.931 34.8832 116.961 35.1538 117.009 35.4207C117.157 36.2519 117.498 36.9507 118.035 37.5259C118.541 38.0681 119.139 38.4408 119.799 38.7086C120.166 38.8593 120.542 38.9715 120.928 39.0526C120.961 39.0592 120.994 39.0827 121.029 39.0704C121.057 39.0764 121.085 39.0872 121.113 39.0908C121.711 39.1933 122.317 39.2751 122.925 39.3764C123.212 39.4254 123.498 39.4754 123.787 39.5248C123.858 39.5376 123.86 39.5366 123.831 39.6037C123.696 39.9143 123.555 40.2229 123.395 40.5183C123.372 40.5621 123.349 40.5736 123.299 40.5648C122.769 40.4736 122.241 40.3874 121.715 40.3075C121.234 40.2382 120.758 40.1611 120.291 40.0275C120.191 40.0002 120.094 39.9601 119.993 39.9446C119.858 39.8949 119.724 39.8475 119.591 39.7967C118.967 39.5588 118.388 39.2414 117.865 38.811C117.287 38.3389 116.82 37.757 116.484 37.041C116.282 36.6099 116.14 36.1484 116.054 35.6615C116.049 35.6356 116.051 35.607 116.037 35.5836C116.019 35.4227 115.994 35.2609 115.983 35.0996C115.891 33.8083 116.046 32.5692 116.548 31.4181C116.865 30.6733 117.328 30.1011 117.911 29.6837C118.531 29.2459 119.223 29.0312 119.963 28.9561C120.628 28.8965 121.307 28.9494 122 29.1193C122.055 29.1323 122.06 29.1114 122.055 29.0555C121.972 28.0596 121.999 27.0852 122.142 26.1341C122.252 25.3685 122.442 24.6517 122.753 24.0179C123.214 23.0682 123.89 22.4537 124.802 22.2182C125.736 21.9915 126.734 22.0987 127.794 22.5599C127.894 22.604 127.995 22.6556 128.096 22.7034L128.094 22.7007Z" fill="#FCFCFB"/>
<path d="M125.521 35.2265C125.52 35.1675 125.482 35.189 125.461 35.1899C125.15 35.1894 124.84 35.1903 124.531 35.1985C123.498 35.2358 122.481 35.322 121.492 35.4959C120.899 35.608 120.321 35.7544 119.76 35.9656C119.164 36.1951 118.676 36.591 118.26 37.108C118.23 37.1438 118.215 37.1467 118.182 37.11C117.98 36.8748 117.812 36.6129 117.672 36.3246C117.653 36.2861 117.656 36.2624 117.683 36.231C117.969 35.8894 118.281 35.5849 118.635 35.3435C118.955 35.1265 119.303 34.9731 119.66 34.8426C120.564 34.5195 121.512 34.3391 122.48 34.2141C123.518 34.0969 124.576 34.0532 125.656 34.0736C125.714 34.0752 125.736 34.0564 125.748 33.9942C125.973 32.6224 126.236 31.2531 126.56 29.8988C126.765 28.993 126.996 28.0977 127.309 27.2502C127.461 26.8302 127.633 26.4234 127.864 26.0724C128.075 25.7524 128.33 25.4813 128.608 25.2457C128.962 24.9466 129.358 24.7225 129.81 24.6031C130.998 24.3022 132.225 24.7237 133.485 25.8678C133.935 26.2779 134.344 26.7453 134.728 27.243C134.752 27.2736 134.775 27.303 134.798 27.3337C134.907 27.4943 135.027 27.6491 135.136 27.8097C135.628 28.528 136.031 29.2732 136.285 30.0605C136.619 31.1069 136.62 32.0297 136.326 32.8399C136.164 33.2756 135.928 33.6428 135.633 33.9579C135.374 34.2344 135.071 34.4573 134.745 34.6531C134.256 34.948 133.682 35.0626 133.097 35.1565C133.044 35.1653 133.027 35.1463 133.028 35.0886C133.035 34.7208 133.04 34.3514 133.042 33.9792C133.042 33.9347 133.065 33.9233 133.098 33.9168C133.334 33.8644 133.563 33.7989 133.777 33.7016C133.9 33.6454 134.009 33.5694 134.121 33.4984C134.543 33.2298 134.885 32.8703 135.128 32.4042C135.333 32.0054 135.439 31.5469 135.409 31.0107C135.373 30.4295 135.187 29.8431 134.89 29.257C134.658 28.7994 134.384 28.3663 134.065 27.9611C134.051 27.9401 134.037 27.9166 134.022 27.8966C133.707 27.4799 133.365 27.0946 132.988 26.7576C132.22 26.0747 131.446 25.7333 130.665 25.7995C130.22 25.8406 129.834 26.0046 129.489 26.2533C129.043 26.5765 128.678 26.9943 128.435 27.5541C128.176 28.1407 127.986 28.7709 127.815 29.4133C127.495 30.5794 127.247 31.7716 127.016 32.9649C126.944 33.3221 126.878 33.6799 126.809 34.0375C126.805 34.0598 126.776 34.0945 126.831 34.11C126.838 34.1638 126.871 34.162 126.903 34.1626C127.321 34.1744 127.738 34.1826 128.157 34.185C129.053 34.1985 129.95 34.1978 130.845 34.157C130.933 34.1527 130.934 34.1541 130.931 34.2522C130.926 34.5819 130.917 34.91 130.91 35.2384C130.909 35.3031 130.89 35.3283 130.829 35.3288C130.266 35.3438 129.701 35.3478 129.136 35.341C128.322 35.3392 127.51 35.3185 126.699 35.2776C126.642 35.275 126.622 35.2989 126.611 35.354C126.406 36.4124 126.151 37.4391 125.845 38.4329C125.596 39.2105 125.313 39.9669 124.972 40.6858C124.724 41.1957 124.452 41.6892 124.107 42.13C123.96 42.3153 123.8 42.4857 123.617 42.6375C123.426 42.7954 123.231 42.9481 123.021 43.0783C122.349 43.4939 121.624 43.7559 120.814 43.7716C120.001 43.7964 119.277 43.5528 118.63 43.086C118.235 42.8032 117.898 42.4582 117.604 42.0705C117.589 42.0519 117.572 42.0329 117.557 42.0152C117.375 41.7636 117.202 41.5033 117.057 41.2239C116.597 40.3295 116.415 39.3737 116.646 38.321C116.648 38.3105 116.65 38.2987 116.653 38.2896C116.659 38.2747 116.654 38.2511 116.672 38.2452C116.69 38.2402 116.698 38.2617 116.707 38.2737C116.929 38.5619 117.173 38.8252 117.44 39.0615C117.462 39.0811 117.473 39.1005 117.472 39.1329C117.455 39.753 117.631 40.3067 117.915 40.824C118.012 41.0023 118.123 41.1716 118.243 41.3348C118.258 41.3549 118.274 41.3725 118.29 41.3902C118.301 41.4048 118.31 41.4216 118.321 41.4362C118.529 41.7166 118.766 41.9658 119.036 42.1809C119.406 42.4762 119.817 42.6806 120.286 42.7555C120.708 42.8256 121.118 42.7836 121.52 42.6588C122.03 42.5036 122.476 42.2404 122.877 41.8969C123.034 41.7633 123.181 41.6201 123.307 41.4549C123.635 41.0228 123.887 40.5374 124.111 40.0341C124.593 38.9308 124.953 37.7567 125.264 36.5462C125.365 36.141 125.456 35.7299 125.542 35.3145C125.55 35.2807 125.559 35.2482 125.511 35.2277L125.521 35.2265Z" fill="#FBFCFC"/>
</svg>
