<svg width="129" height="175" viewBox="0 0 129 175" fill="none" xmlns="http://www.w3.org/2000/svg">
<path d="M0.593437 147.737L99.0512 13.1996L112.095 29.2396L0.593437 147.737Z" fill="#7FE5B0"/>
<path d="M83.1382 10.5638L95.8286 26.1697L0.592875 147.737L83.1382 10.5638Z" fill="#F689D8"/>
<path d="M0.592852 147.737L106.643 30.2562L119.539 46.1128L0.592852 147.737Z" fill="#88C3F6"/>
<mask id="mask0_744_11062" style="mask-type:luminance" maskUnits="userSpaceOnUse" x="66" y="41" width="28" height="28">
<path d="M93.3313 60.5315C94.8201 57.1322 93.7793 53.0346 90.6435 50.7816C89.1547 49.7144 87.4287 49.2269 85.729 49.2796C84.5432 49.3191 83.3838 49.609 82.3166 50.1492C82.4747 48.9634 82.3693 47.7644 82.0267 46.6445C81.526 45.0239 80.4984 43.5483 79.0095 42.4811C75.8606 40.2412 71.6444 40.6101 68.9171 43.1267C68.5086 43.5087 68.1266 43.9304 67.7972 44.3915C67.3492 45.0239 67.0066 45.7091 66.7695 46.4074C66.7695 46.4337 66.7431 46.4732 66.7299 46.5259C66.5982 46.8553 66.361 47.58 66.1898 48.7658C66.0053 50.0438 65.9131 51.8488 66.1107 54.2731C66.2425 55.8015 66.4928 57.5934 66.9144 59.6356C67.5864 62.8504 69.062 67.3696 69.3519 68.2655L69.2992 68.3446C69.2992 68.3446 69.3255 68.3446 69.3782 68.3446C69.3914 68.3973 69.4046 68.4236 69.4046 68.4236L69.4573 68.3446C70.3927 68.3314 75.1491 68.2392 78.4034 67.8307C80.472 67.5672 82.2375 67.2247 83.7395 66.8426C86.0979 66.2497 87.7712 65.5645 88.9175 64.9716C89.9715 64.4314 90.5776 63.9703 90.8543 63.7331C90.8938 63.7068 90.9202 63.6804 90.9465 63.6541C91.5263 63.2061 92.0533 62.6528 92.5144 62.0203C92.857 61.546 93.1205 61.0585 93.3445 60.5447L93.3313 60.5315Z" fill="white"/>
</mask>
<g mask="url(#mask0_744_11062)">
<path d="M1.00066 147.061L99.4584 12.5236L112.502 28.5636L1.00066 147.061Z" fill="#0BD36A"/>
<path d="M83.5454 9.88775L96.2358 25.4937L1.0001 147.061L83.5454 9.88775Z" fill="#F51EB9"/>
<path d="M1.00008 147.06L107.05 29.5801L119.946 45.4368L1.00008 147.06Z" fill="#1C90F4"/>
</g>
</svg>
