<svg width="126" height="148" viewBox="0 0 126 148" fill="none" xmlns="http://www.w3.org/2000/svg">
<g clip-path="url(#clip0_744_11051)">
<path d="M0 148C0.369571 146.951 90.6046 0 90.6046 0L100.249 16.0841L0 148Z" fill="black"/>
<path d="M0 148C0.691456 146.569 94.4076 14.2361 94.4076 14.2361L100.249 27.4587L0 148Z" fill="#939393"/>
<path d="M126 35.6855L115.33 20.2095C115.33 20.2095 1.54982 146.498 0 148C0 148 126.87 36.4009 126 35.6855Z" fill="#F6ED80"/>
<path d="M120.468 50.1599L117.548 40.2877C117.548 40.2877 1.54982 146.498 0 148C0 148 121.339 50.8873 120.468 50.1599Z" fill="#65BBE6"/>
<path d="M111.313 30.0936L106.735 15.6549C106.735 15.6549 1.54982 146.498 0 148C0 148 112.183 30.809 111.313 30.0817V30.0936Z" fill="#EC94C5"/>
</g>
<defs>
<clipPath id="clip0_744_11051">
<rect width="126" height="148" fill="white"/>
</clipPath>
</defs>
</svg>
