<svg width="163" height="160" viewBox="0 0 163 160" fill="none" xmlns="http://www.w3.org/2000/svg">
<path d="M103.965 19.5478L74.9593 78.9552L68.0307 74.3841L91.4374 13.6112L103.965 19.5478Z" fill="#FD1E26"/>
<path d="M116.417 20.5563L81.2774 83.4928L74.9593 78.955L106.062 14.5792L116.417 20.5563Z" fill="#F9921E"/>
<path d="M124.166 28.8305L86.8077 87.466L81.2775 83.4927L114.713 23.024L124.166 28.8305Z" fill="#FDFD08"/>
<path d="M137.43 34.8972L92.2888 91.403L86.8076 87.4659L125.961 26.4214L137.43 34.8972Z" fill="#0DBB01"/>
<path d="M144.333 47.2398L98.586 95.9242L92.2885 91.403L134.036 39.1213L144.333 47.2398Z" fill="#011897"/>
<path d="M162.269 61.7858L104.284 100.017L98.5861 95.9244L146.698 44.5016L162.269 61.7858Z" fill="#750185"/>
<path d="M72.6436 62.804L114.75 93.042L42.0655 143.649L72.6436 62.804Z" fill="#FCD700"/>
<path d="M68.9211 69.0795L68.667 69.7008L68.9264 69.0797L68.9211 69.0795Z" fill="#55CDFC"/>
<path d="M101.033 102.656L101.529 103.93L101.537 103.922L101.041 102.648L101.033 102.656Z" fill="white"/>
<path d="M73.5762 60.049L71.8727 64.6129L101.611 66.9734L113.523 94.0984L117.52 91.3599L104.586 62.8549L73.5762 60.049Z" fill="#241F20"/>
<path d="M71.3531 65.9907L70.169 69.1607L98.6362 71.0917L109.138 97.1017L112.573 94.7457L113.522 94.0981L101.611 66.9732L71.872 64.6127L71.3531 65.9907Z" fill="#7C4A21"/>
<path d="M69.9291 69.8004L68.3426 74.0496L95.3487 75.6415L105.035 99.9126L108.815 97.3217L109.137 97.1016L98.636 71.0917L70.1687 69.1607L69.9291 69.8004Z" fill="#55CDFC"/>
<path d="M101.041 102.649L105.036 99.9132L95.3496 75.642L68.3434 74.0501L66.5747 78.7776L92.2119 80.0313L101.041 102.649Z" fill="#F7A8B8"/>
<path d="M92.2117 80.0311L66.5718 78.78L64.8486 83.3879L88.6118 85.0122L96.9685 105.437L101.033 102.657L92.2117 80.0311Z" fill="white"/>
<path d="M101.033 102.656L101.041 102.649L92.2116 80.0308L101.033 102.656Z" fill="white"/>
<path d="M71.1067 95.2426C73.3624 92.2613 78.0265 91.5739 81.519 93.7046C85.0135 95.8376 85.8514 99.8791 83.3911 102.737C80.9308 105.594 76.2688 106.284 72.9788 104.275C69.6888 102.265 68.8488 98.2216 71.1067 95.2426Z" stroke="#7B03AE" stroke-width="1.37301" stroke-miterlimit="10"/>
</svg>
