<svg width="142" height="168" viewBox="0 0 142 168" fill="none" xmlns="http://www.w3.org/2000/svg">
<path d="M9.4763 144.7L105.7 8.51879L99.658 3.13044L9.4763 144.7Z" fill="black"/>
<path d="M9.47601 144.7L135.614 38.4983L130.808 33.3745L9.47601 144.7Z" fill="black"/>
<path d="M9.47601 144.7L132.87 32.6825L129.119 27.8228L9.47601 144.7Z" fill="#FFA7C8"/>
<path d="M9.47601 144.7L119.837 15.794L116.745 11.7865L9.47601 144.7Z" fill="#A4E600"/>
<path d="M9.47601 144.7L128.472 21.5872L125.378 17.5783L9.47601 144.7Z" fill="#FFC600"/>
<path d="M9.47591 144.7L107.5 15.6442L103.902 11.0331L9.47591 144.7Z" fill="#85D9EB"/>
<path d="M9.47601 144.7L114.474 14.6065L111.298 10.6681L9.47601 144.7Z" fill="#00A2EC"/>
<path d="M9.47601 144.7L119.268 24.3705L115.651 19.8449L9.47601 144.7Z" fill="white"/>
<path d="M9.47601 144.7L127.417 29.524L123.754 24.9569L9.47601 144.7Z" fill="#FF5861"/>
</svg>
