<svg width="116" height="136" viewBox="0 0 116 136" fill="none" xmlns="http://www.w3.org/2000/svg">
<g clip-path="url(#clip0_744_11193)">
<path d="M116 49.1762L104.764 32.7114L0 136L116 49.1762Z" fill="#E195A7"/>
<path d="M0 136L111.536 27.1047L92.3012 7.17407L0 136Z" fill="#F8F2FD"/>
<path d="M0 136L91.3971 11.9568L78.1997 0L0 136Z" fill="#E195A7"/>
<path d="M93.2455 29.1648L93.407 30.3686C93.407 30.3686 96.4823 33.5032 98.6375 32.978C100.793 32.4529 101.043 30.0535 100.906 28.8982C100.768 27.7429 99.8321 25.0123 97.6043 25.3677C95.3765 25.7232 93.2455 29.1567 93.2455 29.1567V29.1648Z" fill="#B175BC"/>
<path d="M93.0438 31.0149L92.0348 31.1522C92.0348 31.1522 90.8725 33.5355 91.3003 35.3371C91.7281 37.1387 93.3666 37.9951 94.3353 37.8819C95.3039 37.7688 97.2653 36.5005 96.9667 34.6423C96.668 32.7842 93.0438 31.0149 93.0438 31.0149Z" fill="#B175BC"/>
<path d="M90.1379 29.5849L90.7271 28.5831C90.7271 28.5831 89.8715 26.0787 88.2895 25.1011C86.7074 24.1236 84.9477 24.681 84.3504 25.4485C83.7531 26.216 83.2526 28.5023 84.7782 29.6011C86.3038 30.6998 90.1379 29.5849 90.1379 29.5849Z" fill="#B175BC"/>
<path d="M91.0016 31.9359L90.5899 31.0068C90.5899 31.0068 87.9827 30.5383 86.3684 31.4512C84.754 32.3641 84.3827 34.1738 84.7621 35.0705C85.1414 35.9673 86.893 37.5103 88.5962 36.7105C90.2993 35.9107 91.0016 31.9359 91.0016 31.9359Z" fill="#B175BC"/>
<path d="M91.7765 31.1118C92.3694 31.1118 92.85 30.6307 92.85 30.0373C92.85 29.4438 92.3694 28.9628 91.7765 28.9628C91.1836 28.9628 90.7029 29.4438 90.7029 30.0373C90.7029 30.6307 91.1836 31.1118 91.7765 31.1118Z" fill="#E0B5D5"/>
<path d="M91.7765 30.8048C92.2 30.8048 92.5433 30.4611 92.5433 30.0373C92.5433 29.6134 92.2 29.2698 91.7765 29.2698C91.353 29.2698 91.0096 29.6134 91.0096 30.0373C91.0096 30.4611 91.353 30.8048 91.7765 30.8048Z" fill="#FDFD08"/>
<path d="M92.7048 28.5427L91.6958 28.6801C91.6958 28.6801 89.9361 26.7007 89.8716 24.8426C89.807 22.9845 91.155 21.7241 92.1155 21.5787C93.0761 21.4333 95.3039 22.1281 95.5138 23.9943C95.7236 25.8605 92.7048 28.5427 92.7048 28.5427Z" fill="#B175BC"/>
</g>
<defs>
<clipPath id="clip0_744_11193">
<rect width="116" height="136" fill="white"/>
</clipPath>
</defs>
</svg>
