<svg width="150" height="158" viewBox="0 0 150 158" fill="none" xmlns="http://www.w3.org/2000/svg">
<g clip-path="url(#clip0_744_11089)">
<path d="M23.8283 152.737C24.1958 151.692 111.258 12.2361 111.258 12.2361L122.283 20.6588L23.8283 152.737Z" fill="#4D8592"/>
<path d="M23.8283 152.737C24.5159 151.312 121.323 14.3031 121.323 14.3031L133.213 23.8306L23.8283 152.737Z" fill="#6CCB99"/>
<path d="M150 41.1751L139.888 29.4617C139.888 29.4617 25.3695 151.24 23.8283 152.737C23.8283 152.737 150.865 41.9116 150 41.1869V41.1751Z" fill="#D8C686"/>
<path d="M23.8283 152.737C24.5396 151.68 126.349 26.1829 126.349 26.1829L137.114 36.8865L23.8283 152.737Z" fill="#707E6D"/>
<path d="M146.574 51.9856L142.045 46.3546C142.045 46.3546 25.3695 151.24 23.8283 152.737C23.8283 152.737 147.439 52.7103 146.574 51.9856Z" fill="#B86962"/>
</g>
<defs>
<clipPath id="clip0_744_11089">
<rect width="150" height="158" fill="white"/>
</clipPath>
</defs>
</svg>
