<svg width="129" height="120" viewBox="0 0 129 120" fill="none" xmlns="http://www.w3.org/2000/svg">
<g clip-path="url(#clip0_744_11100)">
<path d="M64.9758 2.89124L74.516 6.26844C74.516 6.26844 0.544922 120.292 0 119.992L64.9758 2.89124Z" fill="#73DEFF"/>
<path d="M0 119.992C0.15453 119.506 64.8538 13.3468 64.8538 13.3468L73.8084 19.842L0 119.992Z" fill="#FFE1ED"/>
<path d="M0 119.992C0.374125 119.636 113.327 24.8309 113.327 24.8309L125.234 34.3308L0 119.992Z" fill="#73DEFF"/>
<path d="M0 119.992C0.292794 119.328 79.8595 7.15125 79.8595 7.15125L93.0515 10.164L0 119.992Z" fill="#FFB5D6"/>
<path d="M129 20.4333L115.084 11.1844C115.084 11.1844 0.683185 119.279 0 119.992C0 119.992 129.415 20.7491 129 20.4333Z" fill="#FFE1ED"/>
<path d="M0 119.992C0.30906 119.498 112.278 0 112.278 0L122.29 4.43815L0 119.992Z" fill="#FFB5D6"/>
<path d="M0 119.992C0.30906 119.49 85.3981 15.817 85.3981 15.817L98.2973 19.4048L0 119.992Z" fill="#FE8CBF"/>
</g>
<defs>
<clipPath id="clip0_744_11100">
<rect width="129" height="120" fill="white"/>
</clipPath>
</defs>
</svg>
