<svg width="149" height="145" viewBox="0 0 149 145" fill="none" xmlns="http://www.w3.org/2000/svg">
<path d="M7.85059 144.942L127.402 23.3508L137.423 25.8696L7.85059 144.942Z" fill="#011897"/>
<path d="M123.515 15.7593L133.532 18.2782L7.85059 144.942L123.515 15.7593Z" fill="#0DBB01"/>
<path d="M7.85059 144.942L97.2972 19.8076L95.0503 2.82203L7.85059 144.942Z" fill="#FD1E26"/>
<path d="M7.85059 144.942L143.414 33.0405L131.413 30.0234L7.85059 144.942Z" fill="#750185"/>
<path d="M7.85059 144.942L110.269 17.0894L98.561 14.1451L7.85059 144.942Z" fill="#F9921E"/>
<path d="M104.391 21.5749L116.029 24.5029L7.85059 144.942L104.391 21.5749Z" fill="#FDFD08"/>
<path d="M71.3668 70.5881C71.264 68.5992 69.5684 67.0702 67.5795 67.173C65.5906 67.2758 64.0616 68.9714 64.1644 70.9603C64.2672 72.9492 65.9629 74.4782 67.9518 74.3754C69.9407 74.2726 71.4696 72.5769 71.3668 70.5881Z" fill="white"/>
<path d="M70.44 73.3652C69.7485 74.0796 68.8184 74.4812 67.8253 74.4976C66.8305 74.5142 65.8903 74.1413 65.1758 73.4481C64.4613 72.7566 64.0598 71.8265 64.0433 70.8334C64.0267 69.8386 64.3996 68.8984 65.0928 68.1839C65.7844 67.4694 66.7145 67.0679 67.7076 67.0514C68.7024 67.0348 69.6426 67.4077 70.3571 68.1009C71.0715 68.7925 71.4731 69.7226 71.4895 70.7157C71.5061 71.7105 71.1332 72.6507 70.44 73.3652ZM65.2606 68.3478C63.9232 69.7295 63.9579 71.9413 65.338 73.2804C66.7197 74.6178 68.9315 74.5832 70.2707 73.203C71.6081 71.8213 71.5734 69.6095 70.1933 68.2704C68.8116 66.933 66.5997 66.9676 65.2606 68.3478Z" fill="black"/>
<path d="M83.9259 76.029C81.2736 73.5442 77.5654 71.6284 74.0147 70.8661C72.6371 70.5706 70.6063 70.191 69.4258 71.2377C68.3088 72.228 69.5901 73.5822 70.368 74.2821C71.7587 75.5361 73.4039 76.4168 75.1087 77.1683C76.9493 77.9776 78.8648 78.7265 80.8348 79.1491C81.9926 79.3979 83.5591 79.8147 84.7091 79.3985C86.2679 78.8334 84.5711 76.6328 83.9259 76.029Z" fill="white"/>
<path d="M84.7382 79.4764C83.6745 79.8616 82.2796 79.5536 81.1599 79.3045C81.0407 79.2775 80.9283 79.2534 80.8192 79.2292C78.6914 78.7717 76.6316 77.9273 75.0763 77.2444C72.9861 76.3252 71.5178 75.4304 70.3133 74.3444C69.9373 74.0037 69.6442 73.6936 69.4212 73.3932C69.0967 72.9586 68.9231 72.5527 68.9092 72.1884C68.8953 71.8539 69.0124 71.5508 69.2577 71.2892C69.2939 71.2508 69.3318 71.214 69.373 71.1771C69.6603 70.9233 70.014 70.7357 70.4261 70.6182C70.7826 70.5168 71.1931 70.4657 71.6479 70.4671C72.4411 70.4676 73.2638 70.6209 74.034 70.7868C77.6198 71.5556 81.3392 73.494 83.9845 75.9708C84.3019 76.2681 84.7852 76.8554 85.0994 77.4448C85.5094 78.2168 85.544 78.8224 85.1964 79.1921C85.0831 79.3125 84.9304 79.4083 84.7398 79.4763L84.7382 79.4764ZM69.0715 72.1816C69.0958 72.7479 69.5495 73.4347 70.4232 74.2225C71.6137 75.296 73.0683 76.1816 75.1416 77.095C76.6902 77.7766 78.7382 78.6166 80.8524 79.0699C80.9632 79.094 81.0756 79.118 81.1948 79.1451C82.2943 79.3886 83.664 79.6912 84.682 79.3216C84.8465 79.2617 84.9784 79.1802 85.0744 79.079C85.4471 78.6814 85.2134 78.0131 84.9523 77.5205C84.6473 76.9472 84.178 76.3757 83.8711 76.0895C81.2468 73.6332 77.5565 71.7099 73.9991 70.9463C73.2373 70.7832 72.4263 70.631 71.6481 70.6314C70.6989 70.6306 69.99 70.8498 69.4822 71.2992C69.4441 71.3327 69.4093 71.366 69.378 71.4008C69.1641 71.6293 69.0615 71.8918 69.0731 72.1799L69.0715 72.1816Z" fill="black"/>
<path d="M77.0085 77.9628C78.2566 78.4492 79.5329 78.8711 80.8351 79.1506C81.9929 79.3994 83.5593 79.8162 84.7093 79.4C86.2682 78.8349 84.5714 76.6343 83.9262 76.0305C82.8503 75.0241 81.6033 74.1095 80.262 73.3292C80.0821 74.0869 79.3621 74.8592 78.7379 75.0143C79.1601 76.1839 78.2644 77.4448 77.2621 77.8617C77.1826 77.8957 77.0948 77.9301 77.0086 77.9644L77.0085 77.9628Z" fill="black"/>
<path d="M82.6664 77.5638C82.6348 77.5953 82.5835 77.598 82.5504 77.5665C81.3347 76.423 79.9275 75.6842 78.7033 75.0821C78.6624 75.0626 78.6449 75.0121 78.666 74.9712C78.6855 74.9304 78.736 74.9128 78.7769 74.9339C80.0114 75.5422 81.4305 76.2869 82.6636 77.4462C82.6968 77.4776 82.6978 77.529 82.668 77.5621L82.6664 77.5638Z" fill="white"/>
<path d="M69.167 71.6987L69.0449 71.6818L68.9045 71.6625C68.8494 71.6554 68.7891 71.6452 68.7221 71.6338L68.5061 71.5984C68.4291 71.5858 68.3486 71.5701 68.2666 71.556L68.1392 71.5328C68.0957 71.525 68.0537 71.5156 68.0101 71.5062L67.7466 71.4518C67.6577 71.4332 67.5705 71.4161 67.4817 71.3991C67.4381 71.3914 67.3945 71.382 67.3526 71.3742C67.3106 71.3648 67.2686 71.3553 67.2265 71.3442C67.144 71.3219 67.0664 71.2977 66.9937 71.2716C66.9565 71.2586 66.9225 71.2437 66.8871 71.2323C66.8532 71.2191 66.8193 71.2059 66.7888 71.1926C66.726 71.1659 66.6682 71.1407 66.6188 71.115C66.5693 71.0894 66.5266 71.0667 66.4908 71.0469C66.4549 71.0272 66.4291 71.0103 66.4103 70.9997C66.3914 70.9874 66.3828 70.9812 66.3828 70.9812C66.3777 70.9781 66.3756 70.9699 66.3803 70.9647C66.3834 70.9612 66.3866 70.9594 66.3899 70.9592C66.3899 70.9592 66.4015 70.9586 66.4232 70.9608C66.4448 70.9614 66.4765 70.963 66.5165 70.9676C66.5565 70.9705 66.605 70.9763 66.6585 70.9852C66.7138 70.9939 66.7755 71.0007 66.8409 71.0123C66.8743 71.0172 66.9079 71.0237 66.9448 71.0318C66.9801 71.0399 67.0169 71.0463 67.0539 71.0544C67.1293 71.0687 67.2083 71.0879 67.2891 71.1103C67.3699 71.1326 67.4528 71.1616 67.5355 71.1888C67.62 71.2177 67.7045 71.2465 67.7905 71.2719C67.9624 71.3228 68.1343 71.3737 68.2962 71.4217C68.3771 71.4458 68.4546 71.4683 68.5288 71.491L68.7378 71.5516C68.8018 71.5699 68.8608 71.5884 68.9147 71.6022L69.0512 71.6416L69.1707 71.6753C69.1707 71.6753 69.1811 71.6831 69.1781 71.6899C69.1767 71.6949 69.1703 71.6986 69.1653 71.6988L69.167 71.6987Z" fill="black"/>
<path d="M78.8 75.0639C78.7764 75.0884 78.737 75.0971 78.7046 75.0805C78.187 74.8251 77.6617 74.5818 77.155 74.3458C76.8149 74.1875 76.4953 74.0397 76.1754 73.887C73.7681 72.7387 71.3269 71.997 69.1169 71.7445C69.0717 71.7385 69.0398 71.6987 69.0441 71.6537C69.0501 71.6086 69.0899 71.5766 69.135 71.5809C70.3 71.7132 71.5268 71.98 72.7783 72.37C73.9235 72.7273 75.0888 73.1865 76.2441 73.7391C76.5623 73.8919 76.8836 74.0396 77.222 74.198C77.7303 74.4339 78.2558 74.6789 78.7751 74.9341C78.8159 74.9536 78.8335 75.0041 78.8123 75.045C78.8078 75.0536 78.8032 75.0604 78.7968 75.0657L78.8 75.0639Z" fill="black"/>
<path d="M73.8843 86.8128C71.2745 84.2843 69.1779 80.674 68.2448 77.1645C67.8824 75.8026 67.4052 73.7929 68.3936 72.562C69.3274 71.3986 70.7426 72.6131 71.4812 73.3549C72.801 74.6822 73.7615 76.282 74.5944 77.9498C75.4922 79.7486 76.3326 81.6251 76.8514 83.573C77.1561 84.7171 77.6492 86.2614 77.2882 87.4317C76.8009 89.0167 74.5202 87.4287 73.8843 86.8128Z" fill="white"/>
<path d="M77.1048 87.9254C76.752 88.2905 76.1461 88.2869 75.3535 87.9131C74.7497 87.629 74.1388 87.1744 73.8262 86.8719C71.2234 84.3514 69.108 80.7304 68.1649 77.1866C67.9629 76.4254 67.7699 75.6124 67.7306 74.8195C67.7071 74.3661 67.7389 73.9529 67.8214 73.5919C67.9176 73.1737 68.0881 72.8115 68.3282 72.512C68.3624 72.4687 68.3985 72.4287 68.4347 72.3903C68.6852 72.1318 68.9804 72.0004 69.3155 71.998C69.6804 71.9957 70.0932 72.1486 70.5437 72.4522C70.8549 72.6618 71.1795 72.9388 71.5365 73.297C72.6795 74.4459 73.6441 75.8696 74.6657 77.9126C75.4247 79.4332 76.3685 81.4487 76.9286 83.5521C76.9575 83.6618 76.988 83.7714 77.0206 83.8892C77.3235 84.9969 77.6984 86.3747 77.3659 87.4556C77.3062 87.6479 77.2182 87.8067 77.1032 87.9255L77.1048 87.9254ZM68.5535 72.5053C68.5204 72.5386 68.4891 72.5767 68.4563 72.6149C68.0306 73.1447 67.847 73.8627 67.8944 74.8111C67.9346 75.5889 68.1238 76.3922 68.3236 77.1436C69.2587 80.6596 71.3594 84.2531 73.9412 86.7531C74.2434 87.0462 74.837 87.4867 75.4238 87.7634C75.9272 87.9996 76.6062 88.2001 76.986 87.8104C77.0821 87.7109 77.1581 87.5759 77.2091 87.4073C77.5273 86.372 77.1588 85.0204 76.862 83.9339C76.8294 83.8161 76.7987 83.7048 76.7698 83.5951C76.2138 81.5065 75.2755 79.5007 74.5186 77.9883C73.5062 75.9614 72.5505 74.5505 71.4198 73.4142C70.5901 72.5809 69.883 72.1595 69.3157 72.1639C69.0271 72.1656 68.7692 72.2801 68.5518 72.5054L68.5535 72.5053Z" fill="black"/>
<path d="M75.4793 79.8088C76.027 81.0317 76.5084 82.2862 76.852 83.5727C77.1567 84.7169 77.6497 86.2612 77.2887 87.4315C76.8015 89.0165 74.5207 87.4285 73.8849 86.8125C72.8263 85.787 71.8532 84.5861 71.0076 83.284C71.7548 83.0679 72.4906 82.3113 72.6173 81.6792C73.806 82.0442 75.0227 81.0886 75.3897 80.0657C75.4187 79.9845 75.4505 79.8949 75.4792 79.8072L75.4793 79.8088Z" fill="black"/>
<path d="M75.356 85.4801C75.3245 85.5132 75.2714 85.5143 75.2399 85.4828C74.0226 84.3078 73.2078 82.9262 72.5416 81.7227C72.5196 81.6823 72.5336 81.6318 72.5739 81.6098C72.6143 81.5878 72.6648 81.6018 72.6868 81.6422C73.3474 82.8343 74.155 84.2047 75.3566 85.3639C75.3897 85.3954 75.3908 85.4484 75.3593 85.4799L75.356 85.4801Z" fill="white"/>
<path d="M68.8183 72.2875L68.779 72.1701L68.7339 72.0346C68.7162 71.9824 68.6966 71.9237 68.6734 71.8601L68.603 71.6546L68.5231 71.4247C68.4668 71.2666 68.4082 71.097 68.348 70.9275C68.317 70.8428 68.2845 70.7598 68.252 70.6768C68.2195 70.5939 68.1888 70.5141 68.1615 70.4342C68.1341 70.3543 68.1119 70.2774 68.093 70.202C68.0828 70.1644 68.0743 70.1283 68.0642 70.094C68.0557 70.0579 68.0474 70.0251 68.0407 69.9923C68.0257 69.9266 68.0142 69.8642 68.0048 69.8115C67.9937 69.7573 67.9862 69.7096 67.9809 69.67C67.9755 69.6305 67.9722 69.5991 67.9695 69.5777C67.9684 69.5561 67.9678 69.5445 67.9678 69.5445C67.9678 69.5445 67.9721 69.5327 67.9787 69.5324C67.9837 69.5321 67.9871 69.5336 67.9889 69.5368C67.9889 69.5368 67.9961 69.5464 68.0086 69.564C68.0211 69.5816 68.0392 69.6089 68.0608 69.6426C68.0825 69.6764 68.1079 69.7182 68.1353 69.7666C68.1627 69.815 68.1905 69.8717 68.2202 69.9332C68.2351 69.964 68.2501 69.9964 68.265 70.0288C68.2801 70.0629 68.2951 70.097 68.3102 70.1327C68.3405 70.2042 68.3677 70.2808 68.3951 70.3624C68.4072 70.4032 68.4209 70.444 68.4314 70.4866C68.4419 70.5293 68.4524 70.5719 68.4629 70.6145C68.484 70.7014 68.5051 70.7883 68.5279 70.8767L68.5945 71.1372C68.605 71.1798 68.6172 71.2223 68.626 71.265L68.6557 71.3896C68.6749 71.4716 68.694 71.552 68.7111 71.6275L68.757 71.8409C68.7704 71.9066 68.7835 71.9673 68.7946 72.0215L68.8217 72.1612L68.8446 72.2828C68.8446 72.2828 68.8419 72.2946 68.8354 72.2966C68.8287 72.2969 68.8236 72.2939 68.8217 72.289L68.8183 72.2875Z" fill="black"/>
<path d="M65.7252 72.0389L65.7289 72.0454C65.7289 72.0454 65.736 72.055 65.7414 72.063C65.7522 72.079 65.7667 72.1032 65.7865 72.1321C65.7972 72.1464 65.8063 72.1626 65.8171 72.1786C65.8296 72.1946 65.8422 72.2138 65.8548 72.2331C65.8817 72.2716 65.9137 72.313 65.9476 72.3594C65.9654 72.3817 65.9832 72.4041 66.0026 72.428C66.0237 72.4501 66.0416 72.4757 66.0644 72.4995C66.075 72.5105 66.0856 72.5233 66.0962 72.536C66.1068 72.5487 66.119 72.5597 66.1296 72.5725L66.1471 72.5898C66.1471 72.5898 66.1594 72.6025 66.1647 72.6088L66.2014 72.6451C66.2137 72.6577 66.2275 72.6686 66.2398 72.6813C66.2521 72.6939 66.2643 72.7049 66.2782 72.7175L66.3182 72.7519L66.3581 72.7864C66.4136 72.8317 66.4707 72.8768 66.5308 72.9169C66.5894 72.9587 66.6512 72.997 66.7127 73.032L66.7367 73.0457C66.7367 73.0457 66.752 73.0532 66.7606 73.0577C66.7759 73.0652 66.7913 73.0744 66.8066 73.0819C66.8373 73.0969 66.8696 73.1118 66.9002 73.1269C66.9309 73.1419 66.9629 73.1518 66.9919 73.1669C67.0072 73.1728 67.0224 73.1786 67.0377 73.1845L67.0597 73.1933L67.0817 73.2005L67.1256 73.2148C67.1407 73.219 67.1542 73.2233 67.1694 73.2275C67.1981 73.2376 67.2266 73.2428 67.2535 73.2497C67.2804 73.2566 67.3072 73.2602 67.3324 73.2672C67.3576 73.2725 67.3827 73.2762 67.4045 73.2801C67.4279 73.2838 67.4496 73.286 67.4696 73.2883C67.4796 73.2895 67.4897 73.2906 67.4997 73.2917C67.5096 73.2912 67.518 73.2941 67.5263 73.2937C67.5613 73.2969 67.588 73.2988 67.6064 73.3012C67.6163 73.3006 67.623 73.302 67.6281 73.3034L67.638 73.3029C67.638 73.3029 67.645 73.3091 67.6452 73.3124C67.6453 73.3157 67.6422 73.3192 67.6389 73.3194L67.611 73.3258C67.5929 73.3301 67.5667 73.3364 67.532 73.3399L67.5056 73.3412C67.4958 73.345 67.4859 73.3472 67.476 73.3477C67.4545 73.3488 67.433 73.35 67.4082 73.3529C67.3834 73.3542 67.3586 73.3555 67.332 73.3552L67.2904 73.354C67.2755 73.3548 67.2622 73.3538 67.2471 73.3513C67.2171 73.3478 67.1871 73.3461 67.1553 73.3411L67.1068 73.3336L67.0581 73.3229L67.0329 73.3175L67.0077 73.3105C66.9908 73.3064 66.974 73.3023 66.9555 73.2966C66.9217 73.2851 66.8864 73.277 66.8508 73.2622C66.8154 73.2508 66.7814 73.2359 66.7458 73.2212C66.7288 73.2137 66.7117 73.2047 66.6931 73.1973L66.6676 73.1854L66.642 73.1718C66.5721 73.1372 66.5052 73.0942 66.4398 73.0494C66.3744 73.0046 66.3136 72.953 66.2545 72.9013C66.1954 72.8496 66.1427 72.7942 66.0934 72.7387C66.0687 72.7101 66.0457 72.683 66.0243 72.6542C66.0013 72.6272 65.9816 72.5984 65.9618 72.5695C65.9511 72.5551 65.9421 72.5423 65.9331 72.5278L65.9061 72.4877C65.8898 72.4603 65.8735 72.4346 65.8588 72.4072L65.8385 72.3684C65.8312 72.3555 65.8257 72.3442 65.82 72.3312C65.8088 72.3068 65.7977 72.2842 65.7882 72.2614L65.7618 72.1997L65.7424 72.146C65.7366 72.1297 65.7308 72.115 65.7268 72.1019L65.7169 72.0693L65.7088 72.0415C65.7088 72.0415 65.7084 72.0332 65.7149 72.0312C65.7182 72.031 65.7215 72.0309 65.7233 72.0341L65.7234 72.0357L65.7252 72.0389Z" fill="black"/>
<path d="M70.4799 70.1689C70.4648 70.1332 70.4514 70.099 70.4379 70.0632L70.3945 69.9609C70.387 69.9447 70.3778 69.9269 70.3703 69.9107L70.3478 69.8604C70.3403 69.8442 70.3312 69.828 70.322 69.8119L70.298 69.7634C70.2905 69.7472 70.2797 69.7311 70.2706 69.715L70.2449 69.6682C70.2266 69.6359 70.2069 69.6071 70.1886 69.5748C70.1704 69.5442 70.149 69.5155 70.1292 69.4849C70.1094 69.4544 70.088 69.4273 70.0665 69.3969C70.0558 69.3825 70.0451 69.3681 70.0344 69.3537L70.0024 69.3122C69.9811 69.2851 69.9565 69.2582 69.9335 69.2311C69.9105 69.2041 69.886 69.1788 69.863 69.1518C69.8384 69.1265 69.8123 69.1013 69.7894 69.0759C69.7648 69.0506 69.7387 69.0271 69.7126 69.0035C69.7003 68.9909 69.6865 68.98 69.6726 68.9691L69.6327 68.9346C69.6066 68.9111 69.5773 68.891 69.5512 68.8675L69.4666 68.8038C69.4373 68.7837 69.4081 68.7636 69.3805 68.7435C69.365 68.7343 69.3513 68.7251 69.3359 68.7159L69.2912 68.6867C69.2604 68.6684 69.2296 68.6517 69.2005 68.6333C69.1697 68.6166 69.1374 68.6017 69.1066 68.5834L69.0113 68.5385C68.9791 68.5252 68.9468 68.5103 68.9146 68.497L68.8163 68.4589C68.7825 68.4474 68.7487 68.4359 68.7166 68.4242L68.6155 68.3946L68.5129 68.3684L68.4089 68.3472C68.3737 68.3407 68.3386 68.3359 68.3034 68.3294L68.1964 68.315C68.1614 68.3119 68.1247 68.3088 68.088 68.3057C68.0514 68.3043 68.0165 68.3028 67.9799 68.3013C67.9434 68.3015 67.9069 68.3018 67.8703 68.3003L67.8637 68.3007C67.8637 68.3007 67.8554 68.3011 67.8487 68.2998C67.8421 68.3001 67.8354 68.3005 67.8288 68.3008L67.7858 68.303C67.7576 68.3045 67.7279 68.3077 67.6982 68.3109L67.6535 68.3132L67.609 68.3188L67.5643 68.3211C67.5643 68.3211 67.5495 68.3236 67.5412 68.324L67.5263 68.3248L67.523 68.3249C67.523 68.3249 67.523 68.3249 67.518 68.3252C67.518 68.3252 67.5111 68.3206 67.5125 68.3155C67.5124 68.3122 67.5124 68.3122 67.514 68.3121C67.5156 68.3104 67.5157 68.312 67.5156 68.3104C67.5172 68.3103 67.5172 68.3103 67.5189 68.3102L67.5239 68.31C67.5239 68.31 67.534 68.3127 67.5342 68.3161C67.5343 68.3194 67.5329 68.3244 67.5296 68.3246L67.5263 68.3248C67.5263 68.3248 67.5263 68.3248 67.528 68.3247C67.528 68.3247 67.528 68.3247 67.5294 68.3213C67.5308 68.3162 67.524 68.3116 67.5256 68.3115C67.5223 68.3117 67.5223 68.3117 67.5223 68.3117L67.5356 68.311L67.5567 68.3033L67.5993 68.2928L67.6845 68.2701C67.7124 68.2637 67.7418 68.2555 67.7697 68.2491C67.7845 68.2467 67.7993 68.2426 67.8124 68.2403C67.8272 68.2378 67.842 68.2354 67.8569 68.2347L67.9674 68.2206C68.0055 68.2187 68.0419 68.2168 68.0799 68.2132L68.1927 68.2123C68.231 68.2137 68.2676 68.2151 68.3058 68.2164C68.3441 68.2194 68.3808 68.2225 68.4175 68.2256C68.4543 68.2303 68.4927 68.235 68.5295 68.2414L68.6402 68.2622L68.7494 68.2881L68.8572 68.3191L68.9637 68.355L69.0687 68.3961L69.1723 68.4422L69.2729 68.4934C69.3054 68.5117 69.3379 68.5299 69.3704 68.5498C69.403 68.5697 69.4339 68.5897 69.4665 68.6096C69.4975 68.6312 69.5285 68.6528 69.5595 68.6745C69.5889 68.6979 69.6199 68.7195 69.6493 68.7429C69.6788 68.7679 69.7066 68.7914 69.7361 68.8164C69.764 68.8415 69.7918 68.8666 69.8181 68.8935C69.8444 68.9204 69.8707 68.9472 69.897 68.9741C69.9217 69.0027 69.948 69.0295 69.9727 69.0581C69.9957 69.0868 70.0205 69.1154 70.0436 69.1458C70.0651 69.1762 70.0899 69.2065 70.1097 69.237C70.1313 69.2691 70.1528 69.2995 70.1727 69.3316C70.1927 69.3638 70.2126 69.396 70.2308 69.4282C70.2492 69.4621 70.2675 69.4944 70.2841 69.5284C70.3008 69.5624 70.3175 69.5964 70.3326 69.6305C70.3476 69.6645 70.3627 69.7003 70.3761 69.7344C70.3879 69.7703 70.4013 69.8045 70.4132 69.8404C70.4233 69.8764 70.4351 69.9123 70.4453 69.9483C70.4538 69.9844 70.464 70.022 70.4725 70.0581L70.4948 70.1682C70.4948 70.1682 70.4936 70.1765 70.4887 70.1784C70.4854 70.1786 70.4803 70.1772 70.4802 70.1739L70.4799 70.1689Z" fill="black"/>
<path d="M66.0679 70.4852L66.0676 70.4802C66.0676 70.4802 66.0639 70.4721 66.0635 70.4655L66.0589 70.4408C66.0589 70.4408 66.0584 70.4309 66.0564 70.4244L66.0555 70.4061C66.0548 70.3929 66.0524 70.3781 66.0516 70.3632C66.0508 70.3483 66.05 70.3317 66.0507 70.3135C66.0497 70.2952 66.0538 70.2768 66.0544 70.2568C66.0539 70.2469 66.0567 70.2368 66.0577 70.2251L66.0627 70.1933C66.0666 70.1715 66.0721 70.1497 66.0774 70.1245C66.0801 70.1127 66.0845 70.1009 66.0872 70.0891C66.0916 70.0773 66.0943 70.0655 66.0987 70.0537C66.1161 70.0046 66.1368 69.9554 66.1624 69.906C66.176 69.8804 66.1897 69.8564 66.2051 69.8324L66.2281 69.7964L66.2546 69.7618C66.2903 69.7151 66.3278 69.67 66.3705 69.628C66.4131 69.5859 66.4576 69.5471 66.504 69.5132C66.5263 69.4954 66.552 69.4792 66.5745 69.4647C66.5986 69.4502 66.6227 69.434 66.647 69.4228C66.6954 69.3954 66.7441 69.3746 66.7913 69.3556C66.8385 69.3382 66.8843 69.3242 66.9269 69.3137C66.9695 69.3032 67.0091 69.2979 67.0454 69.2943C67.0818 69.2925 67.1116 69.2909 67.1381 69.2895C67.1629 69.2883 67.1847 69.2921 67.198 69.2931C67.2046 69.2927 67.2097 69.2941 67.2131 69.2956L67.2214 69.2952C67.2214 69.2952 67.2283 69.3015 67.2286 69.3064C67.2288 69.3097 67.2255 69.3116 67.2223 69.3134L67.2044 69.3193C67.193 69.3232 67.1749 69.3275 67.1521 69.3353C67.1063 69.3493 67.0428 69.3725 66.9699 69.4078C66.9521 69.417 66.9326 69.4246 66.9133 69.4356C66.8938 69.4449 66.8745 69.4559 66.8535 69.4669C66.8132 69.4906 66.7713 69.516 66.7297 69.5447C66.7088 69.559 66.688 69.5734 66.6673 69.5894C66.6465 69.6054 66.6258 69.6214 66.6051 69.6391C66.5637 69.6728 66.5241 69.7097 66.4861 69.7465C66.4482 69.7833 66.4122 69.825 66.3777 69.865C66.3433 69.9049 66.314 69.948 66.2847 69.991C66.2708 70.0116 66.257 70.0339 66.2448 70.0544C66.2326 70.075 66.2203 70.0955 66.2098 70.116C66.1992 70.1365 66.1887 70.1569 66.1797 70.1757C66.1708 70.196 66.1618 70.2147 66.1544 70.2334C66.1398 70.2707 66.1267 70.3062 66.1166 70.3366L66.1039 70.3804L66.0943 70.4191C66.0888 70.441 66.0865 70.461 66.0822 70.4728L66.0781 70.4913C66.0781 70.4913 66.0735 70.4982 66.0685 70.4968C66.0652 70.497 66.0633 70.4937 66.0615 70.4905L66.0613 70.4872L66.0679 70.4852Z" fill="black"/>
<path d="M66.8053 72.0032L66.8103 72.0029C66.8103 72.0029 66.8171 72.0076 66.8222 72.009L66.868 72.0282C66.8782 72.0326 66.8884 72.0371 66.8986 72.0415C66.9104 72.0459 66.9223 72.0519 66.9343 72.058C66.9462 72.064 66.9598 72.0699 66.9734 72.0759C66.9802 72.0788 66.987 72.0818 66.9937 72.0847L67.0158 72.0936C67.0158 72.0936 67.0311 72.1011 67.0379 72.104L67.0617 72.1144C67.077 72.122 67.094 72.1294 67.111 72.1368L67.2146 72.1829L67.3232 72.2287C67.3605 72.2434 67.3978 72.2597 67.4351 72.2744C67.4724 72.2891 67.5097 72.3037 67.5469 72.3184L67.6028 72.3388C67.6112 72.3416 67.6213 72.3445 67.6298 72.3473C67.6382 72.3502 67.6484 72.3547 67.6569 72.3575C67.6923 72.369 67.7278 72.3804 67.7598 72.3904C67.7766 72.3945 67.7935 72.4003 67.8087 72.4045C67.8171 72.4074 67.8238 72.4087 67.8323 72.4116C67.8406 72.4128 67.8474 72.4158 67.8558 72.417C67.8709 72.4212 67.8844 72.4238 67.8994 72.4263L67.9397 72.4342C67.9648 72.4379 67.9882 72.4417 68.0082 72.444C68.0182 72.4434 68.0265 72.4447 68.0349 72.4459C68.0432 72.4455 68.0498 72.4451 68.0549 72.4465C68.0598 72.4463 68.0648 72.446 68.0681 72.4458L68.0764 72.4454C68.0764 72.4454 68.0832 72.4501 68.0835 72.455C68.0837 72.4583 68.0821 72.4601 68.0789 72.4619L68.0643 72.4693C68.0643 72.4693 68.053 72.4749 68.0465 72.4769L68.022 72.4864C68.0024 72.4924 67.9796 72.5002 67.9533 72.5049C67.9401 72.5072 67.9253 72.5097 67.9105 72.5121C67.8956 72.5129 67.8791 72.5154 67.8626 72.5162C67.8278 72.518 67.7913 72.5182 67.753 72.5152C67.7147 72.5122 67.6729 72.5078 67.631 72.5C67.5891 72.4922 67.5471 72.4827 67.505 72.47C67.4628 72.4572 67.4189 72.4429 67.3783 72.4267C67.3359 72.4107 67.2951 72.3912 67.2559 72.3716C67.2167 72.3521 67.1791 72.3308 67.1414 72.3078C67.1242 72.2971 67.1054 72.2865 67.0882 72.2741C67.071 72.2617 67.0554 72.2509 67.0399 72.2401C67.0245 72.2292 67.0089 72.2168 66.995 72.2058C66.9812 72.1949 66.9673 72.184 66.9552 72.1731C66.943 72.1621 66.9308 72.1511 66.9187 72.1418C66.9082 72.1307 66.896 72.1213 66.8873 72.1118C66.8768 72.1024 66.868 72.0929 66.861 72.085L66.8382 72.0613C66.8241 72.047 66.8152 72.0342 66.8081 72.0263L66.7975 72.0136C66.7975 72.0136 66.7954 72.0054 66.7969 72.002C66.7985 72.0002 66.8018 72.0001 66.8052 72.0015L66.8085 72.0014L66.8053 72.0032Z" fill="black"/>
<path d="M67.2853 67.8547L67.2804 67.8549C67.2804 67.8549 67.2723 67.8587 67.2674 67.8606L67.2445 67.8668C67.2363 67.8689 67.2248 67.8711 67.2151 67.8766C67.2053 67.8804 67.1939 67.8843 67.1809 67.8883C67.1694 67.8922 67.1548 67.898 67.1418 67.9036C67.1353 67.9056 67.1272 67.9093 67.1206 67.9113L67.0979 67.9208C67.0832 67.9266 67.0669 67.9324 67.0525 67.9414C67.0363 67.9489 67.0199 67.9547 67.0038 67.9639C66.9957 67.9676 66.9876 67.9713 66.9779 67.9752C66.9698 67.9789 66.9601 67.9844 66.952 67.9881C66.9439 67.9935 66.9342 67.9973 66.9261 68.0011L66.9003 68.0157C66.8825 68.0249 66.8648 68.0358 66.8454 68.0467C66.8358 68.0522 66.8278 68.0576 66.8181 68.0631L66.7907 68.0795L66.7634 68.0975C66.7537 68.1029 66.7441 68.1084 66.7345 68.1155L66.7055 68.1336C66.6958 68.1391 66.6863 68.1463 66.6766 68.1517C66.6573 68.1644 66.638 68.177 66.6188 68.1896C66.5802 68.2148 66.5418 68.2417 66.5049 68.2668C66.4857 68.2794 66.4681 68.2936 66.4489 68.3063C66.4393 68.3134 66.4313 68.3188 66.4217 68.3259C66.4121 68.3331 66.4024 68.3385 66.3945 68.3456L66.2887 68.4191L66.1909 68.4856L66.146 68.5161C66.1315 68.5252 66.1187 68.5341 66.1059 68.5431L66.0384 68.5864C66.0191 68.599 66.0047 68.6081 65.9934 68.6153C65.9886 68.6189 65.9838 68.6208 65.9822 68.6225L65.9772 68.6228L65.9742 68.6279C65.9742 68.6279 65.9659 68.6283 65.9641 68.6251C65.9639 68.6218 65.9637 68.6185 65.9636 68.6168L65.9728 68.6014C65.9789 68.5912 65.9882 68.5774 66.0005 68.5585C66.0128 68.5413 66.0283 68.5189 66.047 68.4947C66.0656 68.4705 66.0875 68.4444 66.1126 68.4166C66.1377 68.3887 66.1644 68.3591 66.1943 68.3277C66.2243 68.2963 66.2575 68.2647 66.2924 68.233C66.3272 68.2013 66.3638 68.1696 66.4037 68.1393C66.442 68.1091 66.4836 68.0787 66.5236 68.0501C66.5444 68.0357 66.5654 68.023 66.5863 68.0103C66.5975 68.0031 66.6072 67.9976 66.6184 67.9904L66.6507 67.9721C66.6716 67.9594 66.6944 67.95 66.7154 67.9389C66.7381 67.9295 66.7591 67.9184 66.7802 67.909C66.8013 67.8996 66.8241 67.8902 66.8453 67.8841L66.8779 67.8724C66.8877 67.8686 66.8992 67.8664 66.909 67.8625C66.9188 67.8604 66.9302 67.8564 66.9401 67.8543L66.9696 67.8478C66.9893 67.8434 67.009 67.8391 67.0271 67.8365C67.0452 67.8323 67.0634 67.8313 67.0816 67.8304L67.1312 67.8278C67.1627 67.8262 67.1894 67.8281 67.211 67.8287C67.2226 67.8281 67.231 67.831 67.2394 67.8322L67.2611 67.8344L67.2794 67.8367C67.2794 67.8367 67.2863 67.8414 67.2865 67.8447C67.2866 67.848 67.2834 67.8498 67.2819 67.8515L67.2786 67.8517L67.2853 67.8547Z" fill="black"/>
<path d="M68.2772 71.8375C69.6556 71.3678 68.9512 72.2558 68.2751 72.3106C67.5578 72.3693 67.9199 71.9572 68.3969 71.7765" fill="black"/>
<path d="M72.6719 81.7412C72.6719 81.7412 72.6591 81.7518 72.6527 81.7554C72.6123 81.7774 72.5619 81.7635 72.5399 81.7231C72.2598 81.2165 71.9894 80.7045 71.7281 80.2086C71.555 79.8773 71.3896 79.5656 71.2225 79.254C70.615 78.1271 70.0996 76.9855 69.6863 75.8586C69.2359 74.6257 68.9111 73.4146 68.7219 72.2578C68.7146 72.2134 68.7456 72.1703 68.79 72.163C68.8344 72.1558 68.8775 72.1867 68.8848 72.2311C69.2438 74.4262 70.1031 76.8277 71.3678 79.1768C71.5366 79.4883 71.7005 79.8018 71.8736 80.133C72.1332 80.629 72.4035 81.1394 72.6835 81.6443C72.7017 81.6766 72.6955 81.7167 72.6702 81.7412L72.6719 81.7412Z" fill="black"/>
<path d="M68.5791 71.7122C68.5967 70.2556 69.2445 71.2263 69.0591 71.8783C68.8609 72.5724 68.5736 72.0876 68.5621 71.577" fill="black"/>
</svg>
