<svg width="115" height="124" viewBox="0 0 115 124" fill="none" xmlns="http://www.w3.org/2000/svg">
<g clip-path="url(#clip0_744_11296)">
<path d="M0 123.62L85.59 3.99001L77.94 1.26001L0 123.62Z" fill="#FC6792"/>
<path d="M0 123.62L93.13 10.75L88.57 6.72998L0 123.62Z" fill="#FEB782"/>
<path d="M0 123.62L98.74 13.74L95.05 6.72998L0 123.62Z" fill="#FCFEA6"/>
<path d="M0 123.62L105.09 15.64L99.22 10.76L0 123.62Z" fill="#84BBFF"/>
<path d="M0 123.62L114.23 25.9799L106.72 21.1899L0 123.62Z" fill="#A42FFE"/>
<path d="M0 123.62L90.91 4.06L87.16 0L0 123.62Z" fill="#FD9A98"/>
<path d="M111.74 17.94L107.1 12.27L0 123.62" fill="#9D85FE"/>
<path d="M75.6038 25.2176C69.8575 31.1666 69.5297 40.2065 74.8773 45.3719L75.1816 45.6659L91.9517 28.3043L93.3165 26.8913L96.0322 24.0798L95.7206 23.7789C90.373 18.6135 81.3499 19.2543 75.6036 25.2034L75.6038 25.2176ZM85.0927 34.1871L84.1338 31.8882L85.7227 29.8372L83.14 30.0458L81.685 27.898L81.0804 30.4235L78.5921 31.1435L80.8028 32.4945L80.7195 35.0894L82.6852 33.4023L85.0297 34.2523L78.9265 40.5709C76.174 37.5621 76.5067 32.5048 79.7054 29.1934C82.904 25.8819 87.9466 25.3742 91.049 28.0207L85.0857 34.1943L85.0927 34.1871ZM91.658 27.3903C88.215 24.4148 82.6168 24.9322 79.0892 28.5842C75.5616 32.2362 75.2385 37.849 78.3315 41.1868L77.7576 41.781C74.4037 38.1912 74.7759 32.1216 78.6254 28.1363C82.475 24.1509 88.5283 23.5829 92.2319 26.7961L91.658 27.3903ZM92.8268 26.1802C88.7825 22.6238 82.1738 23.2157 78.0023 27.5343C73.8308 31.853 73.4682 38.4782 77.1627 42.3969L76.5607 43.0201C72.5982 38.8424 73.0093 31.7319 77.5098 27.0726C82.0103 22.4134 89.1023 21.7561 93.4218 25.5643L92.8198 26.1874L92.8268 26.1802ZM94.0237 24.9411C89.3706 20.7968 81.7231 21.4637 76.8936 26.4635C72.0642 31.4632 71.6697 39.1221 75.9658 43.636L75.1679 44.462C70.488 39.5914 70.9494 31.2688 76.2198 25.8125C81.4901 20.3562 89.799 19.6138 94.8216 24.1151L94.0167 24.9484L94.0237 24.9411Z" fill="white"/>
</g>
<defs>
<clipPath id="clip0_744_11296">
<rect width="114.23" height="123.62" fill="white"/>
</clipPath>
</defs>
</svg>
