<svg width="800" height="449" viewBox="0 0 800 449" fill="none" xmlns="http://www.w3.org/2000/svg">
<g clip-path="url(#clip0_21_4350)">
<path d="M400.753 216.263L906.984 378.913L874.401 437.755L400.753 216.263Z" fill="#A4A2A7"/>
<path d="M400.753 216.263L906.548 321.001L879.591 372.479L400.753 216.263Z" fill="#A4A2A7"/>
<path d="M400.753 216.263L841.204 422.443L795.681 487.864L400.753 216.263Z" fill="#A4A2A7"/>
<path d="M400.753 216.263L903.507 354.635L872.828 400.477L400.753 216.267V216.263Z" fill="#7280CD"/>
<path d="M400.753 216.263C412.763 221.945 889.883 419.915 889.883 419.915L874.957 447.589L400.753 216.263Z" fill="#EB77CE"/>
<path d="M400.753 216.263L933.56 204.894L935.953 178.092L400.753 216.263Z" fill="black"/>
<path d="M400.753 216.263L913.219 344.113L917.276 321.138L400.753 216.263Z" fill="black"/>
<path d="M400.753 216.263L922.968 325.289L928.349 305.659L400.753 216.263Z" fill="#FFA7C8"/>
<path d="M400.753 216.263L941.674 257.082L946.113 240.898L400.753 216.263Z" fill="#A4E600"/>
<path d="M400.753 216.263L943.159 291.621L947.598 275.429L400.753 216.263Z" fill="#FFC600"/>
<path d="M400.753 216.263L918.65 223.776L923.682 205.047L400.753 216.263Z" fill="#85D9EB"/>
<path d="M400.753 216.263L934.551 240.387L938.654 224.116L400.753 216.263Z" fill="#00A2EC"/>
<path d="M400.753 216.263L918.538 272.49L923.313 253.878L400.753 216.263Z" fill="white"/>
<path d="M400.753 216.263L920.745 304.464L925.54 285.648L400.753 216.263Z" fill="#FF5861"/>
<path d="M400.753 216.263L180.343 -97.9805L152.842 -85.2582L400.753 216.263Z" fill="#C479A0"/>
<path d="M400.753 216.263L151.182 -93.9624L125.718 -79.036L400.753 216.263Z" fill="#ECA6CB"/>
<path d="M86.6016 -52.6035L110.074 -66.5378L400.753 216.263L86.6016 -52.6035Z" fill="white"/>
<path d="M400.753 216.263L85.4854 -56.7751L63.8257 -44.5011L400.753 216.263Z" fill="#D6C7E9"/>
<path d="M31.6367 -15.9642L54.122 -28.4167L400.753 216.263L31.6367 -15.9642Z" fill="#6C83CE"/>
<path d="M400.753 216.263L67.6172 -41.637L47.5796 -30.5335L400.753 216.263Z" fill="#9AC7E8"/>
<path d="M400.753 216.263L126.241 -83.3198L105.038 -71.3654L400.753 216.263Z" fill="#D6C7E9"/>
<path d="M400.753 216.263L-52.0859 -39.9062L-51.7458 -7.83688L400.753 216.263Z" fill="#F9921E"/>
<path d="M400.753 216.263L-43.5273 -3.66919L-43.183 28.9771L400.753 216.263Z" fill="#FDFD08"/>
<path d="M-25.7172 131.133L-26.0781 94.1284L400.753 216.263L-25.7172 131.133Z" fill="#750185"/>
<path d="M400.753 216.263L-6.87061 -40.8857L-6.50968 -7.05642L400.753 216.263Z" fill="#FD1E26"/>
<path d="M400.753 216.263L-52.0234 54.239L-51.6584 88.5789L400.753 216.263Z" fill="#011897"/>
<path d="M400.753 216.263L-70.0242 14.7229L-70.1113 49.0047L400.753 216.263Z" fill="#0DBB01"/>
<path d="M111.829 157.23L128.826 160.708L123.781 103.119L182.011 78.3139L165.736 68.0364L103.785 93.6346L111.829 157.23Z" fill="#F7A8B8"/>
<path d="M196.726 87.6077L182.011 78.314L123.785 103.119L128.826 160.708L144.528 163.921L142.475 112.069L196.726 87.6077Z" fill="white"/>
<path d="M93.177 153.415L111.829 157.23L103.781 93.6346L165.736 68.0364L147.54 56.5427L80.8516 82.747L93.177 153.415Z" fill="#55CDFC"/>
<path d="M55.9023 70.8672L72.7663 149.239L93.1774 153.415L80.8436 82.7344L147.524 56.5302L127.154 43.6667L55.9023 70.8672Z" fill="#623715"/>
<path d="M55.8894 70.8548L127.137 43.6544L103.98 29.031L26.7871 56.0737L50.181 144.619L72.7658 149.239L55.8894 70.8548Z" fill="black"/>
<path d="M400.753 216.263L383.877 548.4L361.997 546.2L400.753 216.263Z" fill="#7F7F7F"/>
<path d="M400.753 216.263L443.147 555.004L462.886 557.204L400.753 216.263Z" fill="#9AD9EB"/>
<path d="M400.753 216.263L403.25 550.559L423.396 552.804L400.753 216.263Z" fill="#9AD9EB"/>
<path d="M400.753 216.263L478.817 539.825L499.95 537.01L400.753 216.263Z" fill="#7F7F7F"/>
<path d="M400.753 216.263L461.032 547.23L481.119 549.334L400.753 216.263Z" fill="#C4C4C4"/>
<path d="M400.753 216.263L422.35 537.259L441.173 539.356L400.753 216.263Z" fill="white"/>
<path d="M400.753 216.263L403.251 544.133L384.205 542.012L400.753 216.263Z" fill="#C4C4C4"/>
<path d="M400.754 216.263L-42.0206 167.316L-46.6919 187.497L400.754 216.263Z" fill="#F0DEF1"/>
<path d="M400.753 216.263L-30.8237 127.941L-36.25 148.284L400.753 216.263Z" fill="#94339B"/>
<path d="M400.754 216.263L-31.4127 207.114L-35.4658 227.071L400.754 216.263Z" fill="#94339B"/>
<path d="M400.754 216.263L-36.9634 187.958L-40.9419 207.322L400.754 216.263Z" fill="#A492A4"/>
<path d="M400.754 216.263L-21.1654 150.43L-26.3926 168.698L400.754 216.263Z" fill="#A492A4"/>
<path d="M400.753 216.263L-53.6702 267.538L-54.4004 286.669L400.753 216.263Z" fill="white"/>
<path d="M400.753 216.263L-51.7123 226.299L-52.5752 248.868L400.753 216.263Z" fill="#3AA63F"/>
<path d="M400.753 216.263L-35.9725 301.226L-36.6777 319.66L400.753 216.263Z" fill="black"/>
<path d="M400.753 216.263L-44.4644 284.909L-45.1821 303.696L400.753 216.263Z" fill="#AAAAAA"/>
<path d="M400.753 216.263L-37.4452 245.003L-38.2168 265.201L400.753 216.263Z" fill="#A8D47A"/>
<path d="M257.05 515.721L249.832 511.333L400.753 216.263L257.05 515.721Z" fill="#6D0270"/>
<path d="M278.983 524.819L258.614 512.437L400.753 216.263L278.983 524.819Z" fill="white"/>
<path d="M225.907 488.661L253.051 504.82L400.753 216.263L225.907 488.661Z" fill="#D3D3D3"/>
<path d="M400.753 216.263L346.871 514.803L310.708 499.304L400.753 216.263Z" fill="#0BD36A"/>
<path d="M376.475 506.186L341.291 491.106L400.753 216.263L376.475 506.186Z" fill="#F51EB9"/>
<path d="M400.753 216.263L319.204 493.231L283.452 477.911L400.753 216.263Z" fill="#1C90F4"/>
<path d="M400.753 216.271L141.177 448.514L118.442 440.018L400.753 216.271Z" fill="#FFF798"/>
<path d="M400.753 216.271L169.777 487.595L179.306 500.616L400.753 216.271Z" fill="#FFEBFB"/>
<path d="M160.247 474.573L150.714 461.544L400.753 216.271L160.247 474.573Z" fill="#FFEBFB"/>
<path d="M211.113 523.068L181.974 520.469L400.753 216.271L211.113 523.068Z" fill="#FFF798"/>
<path d="M400.753 216.271L182.886 496.029L191.159 507.336L400.753 216.271Z" fill="#FFDDCD"/>
<path d="M175.688 480.712L166.412 468.036L400.753 216.271L175.688 480.712Z" fill="white"/>
<path d="M153.381 458.962L143.943 446.065L400.753 216.271L153.381 458.962Z" fill="#FFDDCD"/>
<path d="M400.754 216.263L278.354 -96.6025L235.159 -91.2812L400.754 216.263Z" fill="#FFFAA7"/>
<path d="M400.754 216.263L200.543 -67.7085L233.089 -76.6204L400.754 216.263Z" fill="#86D9EC"/>
<path d="M400.754 216.263L318.828 -97.6443L288.099 -91.2728L400.754 216.263Z" fill="#FFA7C8"/>
<path d="M400.21 215.345L232.694 -76.6867L244.991 -77.687L400.21 215.345Z" fill="#BDB8B5"/>
<path d="M400.753 216.263L286.908 -97.2957L275.001 -96.2206L400.753 216.263Z" fill="#BDB8B5"/>
<path d="M400.753 216.263L-17.4492 408.828L-14.5577 444.326L400.753 216.263Z" fill="#E0E0E0"/>
<path d="M400.753 216.263L-2.98682 491.712L5.22738 529.277L400.753 216.263Z" fill="#FF9BC2"/>
<path d="M-46.5718 320.665L-41.7304 350.75L400.753 216.263L-46.5718 320.665Z" fill="#00DBDD"/>
<path d="M400.753 216.263L-64.021 357.188L-57.6654 382.881L400.753 216.263Z" fill="#00BAF0"/>
<path d="M400.753 216.263L-31.5376 450.665L-26.9576 468.169L400.753 216.263Z" fill="#AEFB94"/>
<path d="M400.753 216.263L-41.3032 396.716L-36.271 419.131L400.753 216.263Z" fill="#FFF997"/>
<path d="M400.753 216.263L-7.62891 476.205L-3.21896 493.07L400.753 216.263Z" fill="#FF5F9A"/>
<path d="M400.753 216.263L-19.353 463.653L-14.8601 480.841L400.753 216.263Z" fill="#F1BBE6"/>
<path d="M400.753 216.263L-34.4126 373.982L-29.1688 391.328L400.753 216.263Z" fill="#6BE6FF"/>
<path d="M400.753 216.263L515.154 470.543L535.208 461.291L400.753 216.263Z" fill="white"/>
<path d="M400.753 216.263L546.343 483.245L565.987 473.988L400.753 216.263Z" fill="#D1D1D1"/>
<path d="M400.753 216.263L559.146 465.595L580.034 456.339L400.753 216.263Z" fill="black"/>
<path d="M502.252 488.512L520.809 476.782L400.753 216.263L502.252 488.512Z" fill="#6D0270"/>
<path d="M400.753 216.263L857.28 47.1079L861.561 62.6403L400.753 216.263Z" fill="#7F7F7F"/>
<path d="M400.753 216.263L840.167 -14.9678L844.44 0.543901L400.753 216.263Z" fill="#FFAEC9"/>
<path d="M400.753 216.263L848.717 16.0596L853.923 34.9334L400.753 216.263Z" fill="#FFAEC9"/>
<path d="M400.753 216.263L818.204 -36.6726L822.324 -21.7296L400.753 216.263Z" fill="#7F7F7F"/>
<path d="M401.96 215.499L828.97 -26.0132L834.566 -5.71144L401.96 215.499Z" fill="#C4C4C4"/>
<path d="M400.753 216.263L833.276 6.72437L837.441 21.8293L400.753 216.263Z" fill="white"/>
<path d="M400.753 216.263L848.252 33.8169L852.488 49.1833L400.753 216.263Z" fill="#C4C4C4"/>
<path d="M400.753 216.263L399.832 418.956L386.86 418.919L400.753 216.263Z" fill="#7F7F7F"/>
<path d="M447.885 419.118L435.357 419.077L400.753 216.263L447.885 419.118Z" fill="#FFE111"/>
<path d="M423.654 419.039L409.017 418.998L400.753 216.263L423.654 419.039Z" fill="#FFE111"/>
<path d="M468.081 407.18L457.655 407.143L400.753 216.263L468.081 407.18Z" fill="#7F7F7F"/>
<path d="M459.41 413.029L446.633 412.992L400.753 216.263L459.41 413.029Z" fill="#C2C2C2"/>
<path d="M433.714 408.903L422.654 409.368L400.753 216.263L433.714 408.903Z" fill="white"/>
<path d="M408.806 414.972L399.833 414.93L400.753 216.263L408.806 414.972Z" fill="#C2C2C2"/>
<path d="M400.753 216.263L210.113 382.475L215.818 401.137L400.753 216.263Z" fill="#BC18D4"/>
<path d="M213.855 360.807L219.315 378.017L400.753 216.263L213.855 360.807Z" fill="white"/>
<path d="M400.753 216.263L231.3 404.204L240.642 421.522L400.753 216.263Z" fill="#333EBB"/>
<path d="M400.753 216.263L215.577 347.541L219.327 360.807L400.753 216.263Z" fill="#FB759E"/>
<path d="M400.753 216.263L238.112 377.203L243.501 394.998L400.753 216.263Z" fill="black"/>
<path d="M400.753 216.263L808.604 164.929L807.057 189.108L400.753 216.263Z" fill="#28246C"/>
<path d="M400.753 216.263L807.289 92.5305L805.771 116.966L400.753 216.263Z" fill="#93C73D"/>
<path d="M400.753 216.263L809.724 115.804L806.211 141.295L400.753 216.263Z" fill="#0A733B"/>
<path d="M400.753 216.263L804.244 141.44L802.722 165.942L400.753 216.263Z" fill="#4DBFED"/>
<path d="M766.168 149.422C765.948 149.812 765.733 150.202 765.513 150.588C764.857 151.721 764.127 152.751 763.376 153.747C762.256 155.212 761.153 156.673 760.041 158.105C758.85 159.62 757.659 161.111 756.469 162.58C755.274 164.033 754.079 165.461 752.884 166.868C752.627 167.167 752.362 167.449 752.125 167.773C752.051 167.789 752.017 167.872 751.968 167.93C749.947 170.234 747.927 172.476 745.907 174.655C745.811 174.759 745.761 174.742 745.67 174.622C743.749 172.098 741.828 169.641 739.904 167.246C739.821 167.146 739.733 167.05 739.65 166.951C739.231 166.395 738.779 165.876 738.344 165.344C737.352 164.153 736.357 162.983 735.361 161.825C735.282 161.737 735.203 161.65 735.124 161.563C735.012 161.43 735.012 161.43 735.166 161.351C735.759 161.048 736.344 160.737 736.929 160.405C737.062 160.33 737.199 160.256 737.327 160.168C737.427 160.102 737.489 160.114 737.572 160.21C738.389 161.173 739.211 162.148 740.032 163.128C741.119 164.444 742.206 165.772 743.289 167.125C743.318 167.158 743.334 167.208 743.38 167.212C743.409 167.258 743.438 167.312 743.475 167.353C744.231 168.308 744.986 169.271 745.736 170.247C745.824 170.359 745.873 170.363 745.965 170.267C746.558 169.607 747.155 168.956 747.749 168.287C747.964 168.042 748.197 167.827 748.383 167.54C748.586 167.391 748.74 167.171 748.914 166.976C750.055 165.672 751.192 164.344 752.333 162.995C753.544 161.542 754.76 160.065 755.971 158.566C757.149 157.088 758.327 155.59 759.506 154.071C760.447 152.838 761.397 151.601 762.335 150.335C762.509 150.103 762.683 149.87 762.829 149.596C762.916 149.472 763.007 149.351 763.09 149.218C764.65 146.728 765.845 143.947 766.388 140.701C766.409 140.585 766.446 140.551 766.525 140.576C767.301 140.817 768.014 141.236 768.637 141.917C768.703 141.992 768.724 142.058 768.695 142.199C768.272 144.296 767.616 146.251 766.79 148.094C766.591 148.538 766.38 148.974 766.172 149.414L766.168 149.422Z" fill="#FBFCFC"/>
<path d="M767.741 129.925C767.932 130.428 768.139 130.909 768.31 131.432C768.65 132.478 768.886 133.582 769.036 134.744C769.044 134.811 769.073 134.89 769.027 134.944C768.99 134.989 768.944 134.935 768.903 134.915C768.077 134.549 767.223 134.329 766.339 134.263C766.244 134.255 766.21 134.18 766.181 134.072C765.854 132.794 765.356 131.677 764.717 130.71C764.65 130.61 764.58 130.523 764.509 130.432C764.48 130.382 764.456 130.332 764.422 130.286C763.651 129.278 762.784 128.464 761.813 127.842C760.805 127.202 759.718 126.862 758.54 126.899C757.162 126.949 755.822 127.493 754.52 128.365C753.184 129.245 751.981 130.386 750.848 131.673C750.529 132.03 750.205 132.383 749.927 132.794C749.562 133.196 749.239 133.653 748.919 134.105C748.048 135.326 747.314 136.658 746.509 137.916C746.442 138.019 746.372 138.115 746.318 138.223C746.252 138.347 746.21 138.339 746.144 138.244C745.542 137.397 744.945 136.558 744.335 135.737C743.837 135.077 743.285 134.491 742.688 133.981C742.671 133.96 742.655 133.939 742.638 133.927C742.086 133.429 741.501 132.985 740.887 132.603C739.531 131.772 738.083 131.225 736.453 131.2C735.046 131.187 733.673 131.59 732.329 132.403C731.134 133.117 730.085 134.055 729.118 135.118C728.753 135.517 728.388 135.915 728.085 136.367C727.662 136.89 727.313 137.463 727.006 138.057C726.044 139.9 725.658 141.776 725.84 143.706C726.011 145.524 726.616 147.151 727.5 148.666C727.989 149.513 728.554 150.298 729.184 151.037C729.238 151.099 729.267 151.194 729.354 151.223C729.4 151.277 729.437 151.34 729.487 151.389C730.499 152.489 731.557 153.56 732.59 154.673C733.076 155.2 733.557 155.727 734.046 156.258C734.167 156.391 734.171 156.391 734.013 156.478C733.283 156.881 732.545 157.271 731.79 157.607C731.678 157.657 731.615 157.645 731.532 157.553C730.636 156.578 729.736 155.615 728.832 154.668C727.998 153.809 727.185 152.942 726.475 151.979C726.322 151.775 726.193 151.551 726.019 151.369C725.832 151.07 725.641 150.775 725.459 150.476C724.6 149.073 723.949 147.583 723.575 145.956C723.161 144.167 723.123 142.328 723.546 140.427C723.799 139.281 724.218 138.169 724.783 137.09C724.812 137.032 724.857 136.978 724.866 136.911C725.073 136.571 725.268 136.218 725.488 135.886C727.251 133.229 729.417 131.046 732.126 129.556C733.864 128.58 735.627 128.161 737.39 128.224C739.257 128.302 740.929 128.925 742.485 129.892C743.87 130.776 745.115 131.901 746.21 133.275C746.297 133.383 746.339 133.35 746.413 133.234C747.749 131.166 749.268 129.307 750.977 127.667C752.342 126.339 753.79 125.227 755.349 124.459C757.677 123.301 759.917 123.118 762.049 124.031C764.211 124.994 765.995 126.704 767.368 129.199C767.496 129.436 767.617 129.689 767.741 129.934V129.925Z" fill="#FCFCFB"/>
<path d="M743.891 150.485C743.978 150.368 743.87 150.352 743.829 150.323C743.223 149.854 742.617 149.389 742.003 148.94C739.933 147.459 737.822 146.097 735.631 144.947C734.308 144.275 732.959 143.69 731.549 143.258C730.043 142.81 728.496 142.847 726.907 143.229C726.795 143.254 726.761 143.237 726.753 143.117C726.712 142.353 726.778 141.589 726.94 140.817C726.961 140.713 727.002 140.672 727.102 140.651C728.172 140.415 729.238 140.29 730.292 140.352C731.242 140.41 732.15 140.635 733.042 140.917C735.291 141.647 737.411 142.722 739.485 143.935C741.684 145.267 743.812 146.774 745.886 148.438C745.998 148.529 746.069 148.525 746.185 148.422C748.687 146.085 751.259 143.81 753.926 141.656C755.689 140.199 757.486 138.8 759.369 137.617C760.299 137.028 761.244 136.492 762.223 136.156C763.115 135.849 764.02 135.703 764.916 135.662C766.057 135.612 767.164 135.77 768.226 136.218C770.994 137.418 772.753 140.087 773.487 144.213C773.748 145.69 773.844 147.218 773.844 148.766C773.844 148.862 773.844 148.953 773.844 149.048C773.815 149.526 773.815 150.007 773.786 150.485C773.665 152.626 773.329 154.685 772.641 156.603C771.72 159.147 770.334 160.949 768.542 162.086C767.571 162.692 766.559 163.053 765.509 163.223C764.588 163.373 763.663 163.352 762.734 163.244C761.336 163.082 760.045 162.443 758.764 161.746C758.647 161.683 758.643 161.621 758.73 161.509C759.299 160.804 759.863 160.09 760.427 159.367C760.494 159.28 760.556 159.293 760.63 159.33C761.17 159.583 761.713 159.799 762.277 159.932C762.601 160.007 762.929 160.023 763.252 160.052C764.48 160.164 765.688 159.977 766.862 159.434C767.861 158.965 768.757 158.23 769.504 157.138C770.309 155.951 770.828 154.527 771.13 152.938C771.367 151.697 771.483 150.439 771.471 149.169C771.475 149.106 771.483 149.04 771.483 148.978C771.496 147.691 771.408 146.425 771.18 145.201C770.711 142.714 769.716 140.884 768.094 139.838C767.164 139.248 766.165 138.987 765.119 138.954C763.763 138.912 762.423 139.178 761.108 139.904C759.722 140.659 758.403 141.602 757.104 142.598C754.727 144.391 752.449 146.342 750.205 148.322C749.529 148.911 748.861 149.509 748.189 150.103C748.147 150.14 748.039 150.165 748.122 150.277C748.056 150.393 748.122 150.439 748.185 150.489C748.981 151.14 749.782 151.784 750.595 152.419C752.321 153.793 754.072 155.142 755.876 156.408C756.055 156.532 756.055 156.536 755.901 156.723C755.395 157.358 754.885 157.985 754.379 158.616C754.279 158.741 754.204 158.761 754.084 158.67C752.964 157.852 751.856 157.01 750.765 156.146C749.18 154.918 747.629 153.656 746.11 152.357C746.003 152.265 745.928 152.282 745.824 152.373C743.833 154.129 741.792 155.748 739.701 157.226C738.046 158.367 736.357 159.417 734.611 160.305C733.362 160.928 732.088 161.48 730.752 161.82C730.188 161.962 729.62 162.053 729.035 162.074C728.425 162.094 727.815 162.099 727.209 162.036C725.276 161.837 723.467 161.256 721.866 160.069C720.244 158.894 719.199 157.329 718.638 155.445C718.294 154.299 718.157 153.12 718.166 151.921C718.166 151.863 718.161 151.8 718.157 151.742C718.182 150.978 718.236 150.211 718.373 149.447C718.821 147.01 719.904 144.873 721.937 143.167C721.957 143.15 721.978 143.129 721.999 143.117C722.032 143.096 722.057 143.042 722.103 143.059C722.144 143.075 722.127 143.129 722.127 143.167C722.127 144.063 722.206 144.943 722.372 145.807C722.385 145.877 722.376 145.931 722.327 145.993C721.36 147.176 720.87 148.521 720.646 149.957C720.568 150.451 720.53 150.949 720.518 151.448C720.518 151.51 720.522 151.568 720.526 151.626C720.526 151.672 720.518 151.717 720.518 151.763C720.501 152.622 720.588 153.465 720.792 154.291C721.07 155.424 721.563 156.441 722.364 157.292C723.082 158.064 723.945 158.599 724.915 158.961C726.143 159.425 727.409 159.583 728.707 159.517C729.213 159.492 729.715 159.434 730.209 159.301C731.499 158.952 732.719 158.384 733.914 157.74C736.511 156.312 738.979 154.565 741.406 152.672C742.211 152.033 743.007 151.369 743.8 150.688C743.866 150.634 743.932 150.584 743.87 150.472L743.891 150.485Z" fill="#FBFCFC"/>
<path d="M664.005 86.7358L676.547 129.124L400.753 216.263L664.005 86.7358Z" fill="#24AE4D"/>
<path d="M634.804 65.5044L647.407 108.362L400.753 216.263L634.804 65.5044Z" fill="white"/>
<path d="M665.437 127.198L678.243 169.005L400.753 216.263L665.437 127.198Z" fill="black"/>
<path d="M400.877 216.043L398.587 -60.7517H364.062L400.753 216.263" fill="#995095"/>
<path d="M401.396 214.656L436.903 -88.0518L395.459 -122.035L400.753 216.263" fill="#D30470"/>
<path d="M400.753 216.263L365.722 -51.2047L329.684 -54.4839L400.442 211.145L400.753 216.263Z" fill="#0038A5"/>
<path d="M559.751 -30.4173L603.411 -36.7639L400.752 216.263L559.751 -30.4173Z" fill="#D22D00"/>
<path d="M400.752 216.263C401.3 215.229 586.912 -16.2089 586.912 -16.2089L635.28 -27.9849L400.752 216.259V216.263Z" fill="#FD9856"/>
<path d="M400.752 216.263C401.702 214.901 635.483 -28.0596 635.483 -28.0596L660.01 -16.624L400.752 216.267V216.263Z" fill="white"/>
<path d="M754.195 -13.1995L682.504 -9.45957C682.504 -9.45957 402.425 214.756 400.749 216.259C400.749 216.259 755.079 -12.4025 754.191 -13.1995H754.195Z" fill="#A00362"/>
<path d="M400.752 216.263C401.545 215.179 662.955 -19.2681 662.955 -19.2681L700.052 -23.5559L400.752 216.263Z" fill="#D163A2"/>
<path d="M454.265 361.716L428.174 292.596L437.123 290.434L468.561 356.025L454.265 361.716Z" fill="#FD1E26"/>
<path d="M444.014 371.114L419.715 294.286L428.174 292.596L456.696 367.228L444.014 371.114Z" fill="#F9921E"/>
<path d="M431.447 371.114L412.31 295.764L419.715 294.286L443.308 367.835L431.447 371.114Z" fill="#FDFD08"/>
<path d="M416.488 377.307L404.971 297.229L412.31 295.764L432.037 374.422L416.488 377.307Z" fill="#0DBB01"/>
<path d="M401.271 373.505L396.542 298.914L404.971 297.229L415.642 371.305L401.271 373.505Z" fill="#011897"/>
<path d="M375.911 377.029L388.912 300.437L396.542 298.914L401.694 377.531L375.911 377.029Z" fill="#750185"/>
<path d="M442.998 303.057L386.627 314.318L400.753 216.259L442.998 303.057Z" fill="#FCD700"/>
<path d="M440.741 295.22L440.43 294.535L440.737 295.224L440.741 295.22Z" fill="#55CDFC"/>
<path d="M389.241 295.764L387.834 295.195V295.207L389.241 295.776V295.764Z" fill="white"/>
<path d="M444.521 305.925L442.119 301.043L417.675 323.524L386.702 312.508L385.889 317.867L418.754 329.103L444.521 305.925Z" fill="#241F20"/>
<path d="M441.397 299.566L439.729 296.175L416.596 317.946L387.594 306.63L386.897 311.238L386.702 312.508L417.675 323.524L442.118 301.043L441.397 299.566Z" fill="#7C4A21"/>
<path d="M439.393 295.49L437.157 290.944L415.406 311.782L388.428 301.13L387.66 306.199L387.594 306.63L416.596 317.946L439.729 296.174L439.393 295.49Z" fill="#55CDFC"/>
<path d="M389.24 295.776L388.427 301.131L415.405 311.782L437.156 290.944L434.671 285.885L414.231 305.862L389.24 295.776Z" fill="#F7A8B8"/>
<path d="M414.231 305.863L434.671 285.88L432.249 280.949L412.929 299.113L390.07 290.318L389.24 295.764L414.231 305.863Z" fill="white"/>
<path d="M389.24 295.764V295.776L414.231 305.863L389.24 295.764Z" fill="white"/>
<path d="M419.592 279.409C420.438 282.95 416.853 286.673 411.593 287.723C406.329 288.774 401.628 286.706 401.089 283.104C400.55 279.501 404.13 275.777 409.087 274.789C414.045 273.802 418.749 275.869 419.592 279.409Z" stroke="#7B03AE" stroke-width="2" stroke-miterlimit="10"/>
<path d="M400.753 216.263L689.291 531.033L681.699 555.772L400.753 216.263Z" fill="#011897"/>
<path d="M708.773 522.291L701.181 547.022L400.753 216.263L708.773 522.291Z" fill="#0DBB01"/>
<path d="M400.753 216.263L702.04 456.185L744.795 452.761L400.753 216.263Z" fill="#FD1E26"/>
<path d="M400.753 216.263L662.997 569.831L672.091 540.202L400.753 216.263Z" fill="#750185"/>
<path d="M400.753 216.263L707.159 488.985L716.033 460.079L400.753 216.263Z" fill="#F9921E"/>
<path d="M696.704 473.702L687.88 502.434L400.753 216.263L696.704 473.702Z" fill="#FDFD08"/>
<path d="M578.437 384.758C583.423 384.758 587.464 380.714 587.464 375.725C587.464 370.737 583.423 366.693 578.437 366.693C573.451 366.693 569.41 370.737 569.41 375.725C569.41 380.714 573.451 384.758 578.437 384.758Z" fill="white"/>
<path d="M571.612 382.08C569.916 380.258 569.032 377.88 569.119 375.393C569.206 372.903 570.26 370.599 572.085 368.901C573.907 367.204 576.284 366.32 578.769 366.407C581.258 366.494 583.56 367.548 585.257 369.375C586.954 371.197 587.838 373.575 587.75 376.062C587.663 378.552 586.61 380.856 584.784 382.554C582.963 384.251 580.586 385.135 578.101 385.048C575.612 384.961 573.309 383.907 571.612 382.08ZM584.826 369.773C581.544 366.249 576.01 366.05 572.484 369.329C568.962 372.612 568.762 378.149 572.04 381.678C575.321 385.202 580.856 385.401 584.382 382.122C587.904 378.838 588.103 373.301 584.826 369.773Z" fill="black"/>
<path d="M563.211 415.47C569.766 409.156 575.035 400.128 577.4 391.345C578.316 387.937 579.528 382.906 577.064 379.818C574.732 376.896 571.181 379.926 569.331 381.781C566.016 385.098 563.601 389.099 561.502 393.267C559.241 397.766 557.121 402.461 555.81 407.334C555.039 410.198 553.794 414.062 554.686 416.993C555.898 420.965 561.618 417.005 563.211 415.47Z" fill="white"/>
<path d="M554.487 417.055C553.661 414.345 554.611 410.895 555.379 408.127C555.462 407.832 555.537 407.554 555.611 407.284C557.03 402.021 559.407 396.978 561.316 393.175C563.884 388.066 566.31 384.509 569.181 381.636C570.082 380.74 570.895 380.046 571.675 379.527C572.803 378.772 573.84 378.39 574.753 378.403C575.591 378.411 576.333 378.743 576.956 379.391C577.047 379.486 577.134 379.586 577.221 379.694C577.819 380.445 578.242 381.354 578.482 382.4C578.69 383.305 578.764 384.338 578.702 385.476C578.599 387.46 578.109 389.498 577.595 391.403C575.209 400.273 569.882 409.326 563.348 415.623C562.564 416.379 561.033 417.512 559.519 418.222C557.536 419.147 556.018 419.156 555.138 418.238C554.852 417.939 554.632 417.545 554.487 417.059V417.055ZM574.749 378.809C573.33 378.797 571.554 379.843 569.472 381.927C566.634 384.766 564.232 388.29 561.681 393.358C559.776 397.144 557.412 402.158 556.005 407.388C555.931 407.662 555.856 407.94 555.773 408.235C555.022 410.953 554.089 414.341 554.881 416.935C555.01 417.354 555.196 417.694 555.437 417.948C556.383 418.931 558.084 418.433 559.349 417.844C560.822 417.155 562.311 416.055 563.066 415.324C569.546 409.077 574.832 400.095 577.2 391.295C577.707 389.411 578.192 387.402 578.292 385.455C578.416 383.081 577.96 381.279 576.902 379.951C576.823 379.851 576.744 379.76 576.661 379.677C576.118 379.112 575.475 378.822 574.753 378.814L574.749 378.809Z" fill="black"/>
<path d="M559.27 397.916C557.893 400.975 556.673 404.113 555.806 407.334C555.034 410.198 553.79 414.062 554.682 416.993C555.893 420.965 561.614 417.005 563.207 415.47C565.862 412.909 568.31 409.907 570.434 406.653C568.563 406.105 566.725 404.204 566.418 402.623C563.439 403.528 560.403 401.124 559.49 398.563C559.415 398.36 559.341 398.136 559.266 397.916H559.27Z" fill="black"/>
<path d="M559.536 412.12C559.461 412.037 559.461 411.908 559.544 411.829C562.56 408.936 564.589 405.512 566.253 402.527C566.306 402.428 566.435 402.39 566.535 402.448C566.634 402.502 566.672 402.631 566.613 402.731C564.933 405.74 562.888 409.194 559.83 412.128C559.748 412.207 559.619 412.203 559.54 412.124L559.536 412.12Z" fill="white"/>
<path d="M575.943 379.108L576.001 378.805L576.068 378.457C576.093 378.32 576.126 378.17 576.163 378.004L576.279 377.469C576.321 377.278 576.371 377.079 576.416 376.875L576.491 376.56C576.516 376.452 576.545 376.348 576.574 376.24L576.744 375.588C576.802 375.368 576.856 375.153 576.91 374.933C576.935 374.825 576.964 374.717 576.989 374.613C577.018 374.509 577.047 374.405 577.08 374.302C577.146 374.098 577.217 373.907 577.292 373.729C577.329 373.638 577.37 373.555 577.404 373.467C577.441 373.384 577.478 373.301 577.516 373.227C577.59 373.073 577.661 372.932 577.731 372.812C577.802 372.691 577.864 372.587 577.918 372.5C577.972 372.413 578.018 372.351 578.047 372.305C578.08 372.259 578.096 372.239 578.096 372.239C578.105 372.226 578.125 372.222 578.138 372.235C578.146 372.243 578.15 372.251 578.15 372.259C578.15 372.259 578.15 372.289 578.142 372.342C578.138 372.396 578.13 372.475 578.113 372.575C578.101 372.675 578.08 372.795 578.051 372.928C578.022 373.065 577.997 373.218 577.96 373.38C577.943 373.463 577.922 373.546 577.897 373.638C577.872 373.725 577.852 373.816 577.827 373.907C577.781 374.094 577.723 374.289 577.657 374.488C577.59 374.688 577.507 374.891 577.429 375.094C577.346 375.302 577.263 375.51 577.188 375.721C577.039 376.145 576.889 376.568 576.748 376.967C576.678 377.166 576.611 377.357 576.545 377.539L576.367 378.054C576.313 378.212 576.259 378.357 576.217 378.49L576.101 378.826L576.001 379.121C576.001 379.121 575.981 379.146 575.964 379.137C575.952 379.133 575.943 379.117 575.943 379.104V379.108Z" fill="black"/>
<path d="M566.286 402.772C566.228 402.71 566.211 402.61 566.257 402.531C566.962 401.27 567.638 399.987 568.294 398.75C568.733 397.92 569.144 397.14 569.567 396.359C572.749 390.486 574.919 384.475 575.836 378.98C575.857 378.868 575.96 378.793 576.072 378.809C576.184 378.83 576.259 378.934 576.242 379.046C575.761 381.943 574.936 384.978 573.799 388.058C572.758 390.876 571.459 393.732 569.928 396.55C569.505 397.326 569.094 398.111 568.655 398.937C567.999 400.178 567.319 401.461 566.614 402.727C566.56 402.826 566.431 402.864 566.331 402.805C566.311 402.793 566.294 402.78 566.282 402.764L566.286 402.772Z" fill="black"/>
<path d="M537.548 388.958C544.207 382.757 553.504 377.979 562.398 376.099C565.85 375.368 570.936 374.435 573.886 377.066C576.674 379.553 573.454 382.935 571.504 384.687C568.015 387.817 563.892 390.013 559.615 391.881C555.001 393.894 550.201 395.753 545.265 396.799C542.365 397.414 538.44 398.447 535.561 397.393C531.661 395.969 535.926 390.469 537.548 388.958Z" fill="white"/>
<path d="M534.35 396.87C533.483 395.94 533.57 394.425 534.607 392.491C535.395 391.017 536.611 389.548 537.407 388.805C544.045 382.62 553.371 377.797 562.353 375.896C564.282 375.489 566.339 375.111 568.326 375.115C569.463 375.115 570.492 375.248 571.384 375.501C572.417 375.796 573.301 376.269 574.018 376.908C574.122 377 574.217 377.095 574.309 377.191C574.923 377.851 575.213 378.606 575.176 379.445C575.134 380.358 574.699 381.371 573.881 382.458C573.317 383.209 572.583 383.986 571.641 384.832C568.621 387.543 564.937 389.772 559.697 392.063C555.798 393.765 550.637 395.865 545.306 396.994C545.028 397.052 544.75 397.115 544.451 397.181C541.643 397.795 538.15 398.555 535.49 397.584C535.018 397.409 534.632 397.169 534.35 396.866V396.87ZM574.006 377.473C573.927 377.386 573.836 377.303 573.745 377.216C572.475 376.082 570.704 375.53 568.326 375.526C566.377 375.526 564.344 375.896 562.44 376.298C553.528 378.183 544.273 382.973 537.689 389.108C536.918 389.826 535.739 391.254 534.972 392.686C534.316 393.914 533.727 395.587 534.652 396.588C534.889 396.841 535.217 397.048 535.632 397.198C538.179 398.128 541.605 397.38 544.36 396.779C544.659 396.712 544.941 396.65 545.219 396.592C550.512 395.471 555.648 393.383 559.527 391.685C564.725 389.415 568.376 387.207 571.363 384.525C573.554 382.558 574.699 380.843 574.761 379.424C574.794 378.702 574.541 378.042 574.006 377.469V377.473Z" fill="black"/>
<path d="M554.852 393.852C551.724 395.064 548.525 396.106 545.265 396.799C542.365 397.414 538.44 398.447 535.561 397.393C531.661 395.969 535.926 390.469 537.548 388.958C540.249 386.443 543.377 384.164 546.742 382.217C547.185 384.114 548.982 386.053 550.546 386.451C549.48 389.378 551.712 392.545 554.221 393.595C554.421 393.678 554.64 393.769 554.856 393.852H554.852Z" fill="black"/>
<path d="M540.689 392.81C540.61 392.727 540.614 392.594 540.697 392.52C543.792 389.627 547.352 387.767 550.446 386.256C550.55 386.206 550.675 386.248 550.724 386.352C550.774 386.455 550.733 386.58 550.629 386.63C547.563 388.128 544.033 389.971 540.979 392.827C540.896 392.906 540.764 392.902 540.689 392.819V392.81Z" fill="white"/>
<path d="M574.516 378.162L574.815 378.079L575.159 377.983C575.292 377.946 575.441 377.904 575.603 377.855L576.126 377.705L576.711 377.535C577.113 377.415 577.545 377.29 577.976 377.161C578.192 377.095 578.403 377.024 578.615 376.954C578.826 376.883 579.03 376.817 579.233 376.759C579.436 376.701 579.631 376.655 579.822 376.618C579.918 376.597 580.009 376.58 580.096 376.56C580.187 376.543 580.27 376.526 580.353 376.514C580.519 376.485 580.677 376.464 580.809 376.448C580.946 376.427 581.067 376.414 581.166 376.406C581.266 376.398 581.345 376.394 581.399 376.389C581.452 376.389 581.482 376.389 581.482 376.389C581.482 376.389 581.511 376.402 581.511 376.418C581.511 376.431 581.506 376.439 581.498 376.443C581.498 376.443 581.473 376.46 581.428 376.489C581.382 376.518 581.311 376.56 581.224 376.609C581.137 376.659 581.029 376.717 580.905 376.78C580.78 376.842 580.635 376.904 580.478 376.971C580.399 377.004 580.316 377.037 580.233 377.07C580.146 377.103 580.059 377.137 579.967 377.17C579.785 377.236 579.59 377.294 579.382 377.352C579.279 377.377 579.175 377.406 579.067 377.427C578.959 377.448 578.851 377.469 578.743 377.489C578.524 377.531 578.304 377.572 578.08 377.618L577.42 377.751C577.312 377.772 577.204 377.797 577.096 377.813L576.781 377.871C576.574 377.909 576.37 377.946 576.18 377.979L575.64 378.066C575.474 378.091 575.321 378.116 575.184 378.137L574.831 378.187L574.524 378.228C574.524 378.228 574.495 378.22 574.491 378.203C574.491 378.187 574.499 378.174 574.512 378.17L574.516 378.162Z" fill="black"/>
<path d="M575.537 370.458L575.52 370.466C575.52 370.466 575.495 370.483 575.474 370.495C575.433 370.52 575.371 370.553 575.296 370.599C575.259 370.624 575.217 370.645 575.176 370.67C575.134 370.699 575.084 370.728 575.035 370.757C574.935 370.819 574.827 370.894 574.707 370.973C574.649 371.014 574.591 371.056 574.528 371.101C574.47 371.151 574.404 371.193 574.342 371.247C574.313 371.272 574.28 371.296 574.246 371.321C574.213 371.346 574.184 371.375 574.151 371.4L574.105 371.442C574.105 371.442 574.072 371.471 574.056 371.483L573.96 371.57C573.927 371.6 573.898 371.633 573.865 371.662C573.832 371.691 573.802 371.72 573.769 371.753L573.678 371.849L573.587 371.944C573.466 372.077 573.346 372.214 573.238 372.359C573.126 372.5 573.023 372.65 572.927 372.799L572.89 372.857C572.89 372.857 572.869 372.895 572.857 372.915C572.836 372.953 572.811 372.99 572.79 373.027C572.749 373.102 572.707 373.181 572.666 373.256C572.624 373.33 572.595 373.409 572.554 373.48C572.537 373.517 572.521 373.555 572.504 373.592L572.479 373.646L572.458 373.7L572.417 373.808C572.404 373.845 572.392 373.878 572.379 373.916C572.35 373.986 572.334 374.057 572.313 374.123C572.292 374.19 572.28 374.256 572.259 374.318C572.243 374.381 572.23 374.443 572.218 374.497C572.205 374.555 572.197 374.609 572.189 374.659C572.185 374.684 572.18 374.708 572.176 374.733C572.176 374.758 572.168 374.779 572.168 374.8C572.155 374.887 572.147 374.953 572.139 374.999C572.139 375.024 572.135 375.041 572.131 375.053V375.078C572.131 375.078 572.114 375.095 572.106 375.095C572.097 375.095 572.089 375.086 572.089 375.078L572.077 375.007C572.068 374.962 572.056 374.895 572.052 374.808V374.742C572.043 374.717 572.039 374.692 572.039 374.667C572.039 374.613 572.039 374.559 572.035 374.497C572.035 374.435 572.035 374.372 572.039 374.306L572.048 374.202C572.048 374.165 572.052 374.132 572.06 374.094C572.073 374.019 572.081 373.945 572.097 373.866L572.122 373.745L572.155 373.625L572.172 373.563L572.193 373.501C572.205 373.459 572.218 373.418 572.234 373.372C572.267 373.289 572.292 373.202 572.334 373.115C572.367 373.027 572.409 372.944 572.45 372.857C572.471 372.816 572.496 372.774 572.516 372.729L572.55 372.666L572.587 372.604C572.682 372.434 572.799 372.272 572.919 372.114C573.039 371.956 573.176 371.811 573.313 371.67C573.45 371.529 573.595 371.404 573.74 371.288C573.815 371.23 573.885 371.176 573.96 371.126C574.031 371.072 574.105 371.027 574.18 370.981C574.217 370.956 574.251 370.935 574.288 370.915L574.392 370.852C574.462 370.815 574.528 370.778 574.599 370.744L574.699 370.699C574.732 370.682 574.761 370.67 574.794 370.657C574.856 370.632 574.914 370.607 574.972 370.587L575.13 370.529L575.267 370.487C575.308 370.475 575.346 370.462 575.379 370.454L575.462 370.433L575.532 370.417C575.532 370.417 575.553 370.417 575.557 370.433C575.557 370.441 575.557 370.45 575.549 370.454H575.545L575.537 370.458Z" fill="black"/>
<path d="M579.598 382.591C579.689 382.558 579.777 382.528 579.868 382.499L580.129 382.404C580.171 382.387 580.216 382.367 580.258 382.35L580.386 382.3C580.428 382.284 580.469 382.263 580.511 382.242L580.635 382.188C580.677 382.172 580.718 382.147 580.76 382.126L580.88 382.068C580.963 382.026 581.038 381.981 581.121 381.939C581.199 381.898 581.274 381.848 581.353 381.802C581.432 381.756 581.502 381.707 581.581 381.657C581.618 381.632 581.656 381.607 581.693 381.582L581.801 381.507C581.872 381.458 581.942 381.399 582.013 381.346C582.083 381.292 582.149 381.233 582.22 381.179C582.286 381.121 582.353 381.059 582.419 381.005C582.486 380.947 582.548 380.885 582.61 380.822C582.643 380.793 582.672 380.76 582.701 380.727L582.793 380.632C582.855 380.569 582.909 380.499 582.971 380.436L583.141 380.233C583.195 380.163 583.249 380.092 583.303 380.026C583.328 379.988 583.353 379.955 583.377 379.918L583.456 379.81C583.506 379.735 583.552 379.66 583.601 379.59C583.647 379.515 583.689 379.436 583.738 379.361L583.863 379.129C583.9 379.05 583.942 378.971 583.979 378.892L584.087 378.652C584.12 378.569 584.153 378.486 584.186 378.407L584.274 378.158L584.352 377.904L584.419 377.647C584.439 377.56 584.456 377.473 584.477 377.386L584.527 377.12C584.539 377.033 584.551 376.941 584.564 376.85C584.572 376.759 584.581 376.672 584.589 376.58C584.593 376.489 584.597 376.398 584.605 376.306V376.29C584.605 376.29 584.605 376.269 584.61 376.252C584.61 376.236 584.61 376.219 584.61 376.203V376.095C584.61 376.024 584.605 375.949 584.601 375.875V375.763L584.593 375.651V375.538C584.593 375.538 584.589 375.501 584.589 375.48V375.443V375.435C584.589 375.435 584.589 375.435 584.589 375.422C584.589 375.422 584.601 375.406 584.614 375.41C584.622 375.41 584.622 375.41 584.622 375.414C584.626 375.418 584.622 375.418 584.626 375.418C584.626 375.422 584.626 375.422 584.626 375.426V375.439C584.626 375.439 584.618 375.464 584.61 375.464C584.601 375.464 584.589 375.46 584.589 375.451V375.443C584.589 375.443 584.589 375.443 584.589 375.447C584.589 375.447 584.589 375.447 584.597 375.451C584.61 375.455 584.622 375.439 584.622 375.443C584.622 375.435 584.622 375.435 584.622 375.435V375.468L584.639 375.522L584.659 375.63L584.705 375.846C584.717 375.916 584.734 375.991 584.746 376.062C584.751 376.099 584.759 376.136 584.763 376.169C584.767 376.207 584.771 376.244 584.771 376.282L584.792 376.56C584.792 376.655 584.792 376.746 584.796 376.842L584.784 377.124C584.776 377.22 584.767 377.311 584.759 377.406C584.746 377.502 584.734 377.593 584.722 377.684C584.705 377.776 584.688 377.871 584.668 377.963L584.601 378.237L584.522 378.506L584.431 378.772L584.327 379.034L584.211 379.291L584.083 379.544L583.942 379.789C583.892 379.868 583.842 379.947 583.788 380.026C583.734 380.104 583.68 380.179 583.626 380.258C583.568 380.333 583.51 380.407 583.452 380.482C583.39 380.553 583.332 380.627 583.27 380.698C583.203 380.769 583.141 380.835 583.075 380.906C583.008 380.972 582.942 381.038 582.871 381.101C582.801 381.163 582.73 381.225 582.66 381.287C582.585 381.345 582.515 381.408 582.44 381.466C582.365 381.52 582.291 381.578 582.212 381.632C582.133 381.682 582.054 381.74 581.975 381.786C581.892 381.835 581.813 381.885 581.73 381.931C581.648 381.976 581.565 382.022 581.482 382.064C581.394 382.105 581.311 382.147 581.224 382.184C581.137 382.221 581.05 382.259 580.963 382.292C580.876 382.325 580.785 382.358 580.697 382.387C580.606 382.412 580.519 382.441 580.428 382.466C580.337 382.487 580.245 382.512 580.154 382.533C580.063 382.549 579.967 382.57 579.876 382.587L579.598 382.628C579.598 382.628 579.577 382.624 579.573 382.612C579.573 382.603 579.577 382.591 579.586 382.591H579.598Z" fill="black"/>
<path d="M579.378 371.516H579.391C579.391 371.516 579.412 371.508 579.428 371.508L579.49 371.5C579.49 371.5 579.515 371.5 579.532 371.496H579.577C579.611 371.496 579.648 371.491 579.685 371.491C579.723 371.491 579.764 371.491 579.81 371.496C579.855 371.496 579.901 371.508 579.951 371.512C579.976 371.512 580.001 371.521 580.03 371.525L580.108 371.541C580.162 371.554 580.216 371.57 580.279 371.587C580.308 371.595 580.337 371.608 580.366 371.616C580.395 371.628 580.424 371.637 580.453 371.649C580.573 371.699 580.693 371.757 580.814 371.828C580.876 371.865 580.934 371.902 580.992 371.944L581.079 372.006L581.162 372.077C581.274 372.172 581.382 372.272 581.482 372.384C581.581 372.496 581.673 372.612 581.751 372.733C581.793 372.791 581.83 372.857 581.863 372.915C581.897 372.977 581.934 373.04 581.959 373.102C582.021 373.226 582.067 373.351 582.108 373.471C582.145 373.592 582.174 373.708 582.195 373.816C582.216 373.924 582.224 374.023 582.228 374.115C582.228 374.206 582.228 374.281 582.228 374.347C582.228 374.409 582.216 374.463 582.212 374.497C582.212 374.513 582.208 374.526 582.204 374.534V374.555C582.204 374.555 582.187 374.571 582.175 374.571C582.166 374.571 582.162 374.563 582.158 374.555L582.145 374.509C582.137 374.48 582.129 374.434 582.112 374.376C582.083 374.26 582.033 374.098 581.955 373.911C581.934 373.866 581.917 373.816 581.892 373.766C581.872 373.716 581.847 373.666 581.822 373.613C581.768 373.509 581.71 373.401 581.643 373.293C581.61 373.239 581.577 373.185 581.54 373.131C581.502 373.077 581.465 373.023 581.424 372.969C581.345 372.861 581.258 372.757 581.171 372.658C581.083 372.558 580.984 372.463 580.888 372.371C580.793 372.28 580.689 372.201 580.586 372.122C580.536 372.085 580.482 372.048 580.432 372.014C580.382 371.981 580.333 371.948 580.283 371.919C580.233 371.89 580.183 371.861 580.138 371.836C580.088 371.811 580.042 371.786 579.997 371.765C579.905 371.724 579.818 371.687 579.743 371.657L579.636 371.62L579.54 371.591C579.486 371.574 579.436 371.566 579.407 371.554L579.362 371.541C579.362 371.541 579.345 371.529 579.349 371.516C579.349 371.508 579.358 371.504 579.366 371.5H579.374L579.378 371.516Z" fill="black"/>
<path d="M575.487 373.164V373.177C575.487 373.177 575.474 373.194 575.47 373.206L575.416 373.318C575.404 373.343 575.391 373.368 575.379 373.393C575.366 373.422 575.35 373.451 575.333 373.48C575.317 373.509 575.3 373.542 575.283 373.575C575.275 373.592 575.267 373.609 575.259 373.625L575.234 373.679C575.234 373.679 575.213 373.717 575.205 373.733L575.176 373.791C575.155 373.829 575.134 373.87 575.113 373.912L574.985 374.165L574.856 374.43C574.815 374.522 574.769 374.613 574.727 374.704C574.686 374.796 574.645 374.887 574.603 374.978L574.545 375.115C574.537 375.136 574.528 375.161 574.52 375.182C574.512 375.203 574.499 375.227 574.491 375.248C574.458 375.335 574.425 375.423 574.396 375.501C574.383 375.543 574.367 375.584 574.354 375.622C574.346 375.643 574.342 375.659 574.333 375.68C574.329 375.701 574.321 375.717 574.317 375.738C574.304 375.775 574.296 375.809 574.288 375.846L574.263 375.945C574.25 376.008 574.238 376.066 574.23 376.116C574.23 376.141 574.226 376.161 574.221 376.182C574.221 376.203 574.221 376.219 574.217 376.232C574.217 376.244 574.217 376.257 574.217 376.265V376.286C574.217 376.286 574.205 376.302 574.192 376.302C574.184 376.302 574.18 376.298 574.176 376.29L574.159 376.253C574.159 376.253 574.147 376.224 574.143 376.207L574.122 376.145C574.109 376.095 574.093 376.037 574.084 375.97C574.08 375.937 574.076 375.9 574.072 375.862C574.072 375.825 574.068 375.784 574.068 375.742C574.068 375.655 574.072 375.564 574.084 375.468C574.097 375.373 574.113 375.269 574.138 375.165C574.163 375.061 574.192 374.958 574.23 374.854C574.267 374.75 574.308 374.642 574.354 374.543C574.4 374.439 574.454 374.339 574.508 374.244C574.562 374.148 574.62 374.057 574.682 373.966C574.711 373.924 574.74 373.878 574.773 373.837C574.806 373.795 574.835 373.758 574.864 373.721C574.893 373.683 574.927 373.646 574.956 373.613C574.985 373.58 575.014 373.546 575.043 373.517C575.072 373.488 575.101 373.459 575.126 373.43C575.155 373.405 575.18 373.376 575.205 373.355C575.23 373.33 575.254 373.31 575.275 373.293L575.337 373.239C575.375 373.206 575.408 373.185 575.429 373.169L575.462 373.144C575.462 373.144 575.483 373.14 575.491 373.144C575.495 373.148 575.495 373.156 575.491 373.164V373.173L575.487 373.164Z" fill="black"/>
<path d="M585.796 374.899V374.887C585.796 374.887 585.788 374.866 585.784 374.854L585.771 374.796C585.767 374.775 585.763 374.746 585.751 374.721C585.742 374.696 585.734 374.667 585.726 374.634C585.717 374.605 585.705 374.567 585.693 374.534C585.688 374.517 585.68 374.497 585.676 374.48L585.655 374.422C585.643 374.385 585.63 374.343 585.61 374.306C585.593 374.264 585.581 374.223 585.56 374.181C585.552 374.16 585.543 374.14 585.535 374.115C585.527 374.094 585.514 374.069 585.506 374.048C585.493 374.028 585.485 374.003 585.477 373.982L585.444 373.916C585.423 373.87 585.398 373.824 585.373 373.774C585.361 373.75 585.348 373.729 585.336 373.704L585.298 373.633L585.257 373.563C585.245 373.538 585.232 373.513 585.216 373.488L585.174 373.413C585.162 373.388 585.145 373.364 585.133 373.339C585.103 373.289 585.074 373.239 585.045 373.189C584.987 373.09 584.925 372.99 584.867 372.894C584.838 372.845 584.805 372.799 584.776 372.749C584.759 372.724 584.747 372.703 584.73 372.679C584.714 372.654 584.701 372.629 584.684 372.608L584.514 372.334L584.361 372.081L584.29 371.965C584.27 371.927 584.249 371.894 584.228 371.861L584.129 371.687C584.1 371.637 584.079 371.599 584.062 371.57C584.054 371.558 584.05 371.545 584.046 371.541V371.529L584.033 371.521C584.033 371.521 584.033 371.5 584.042 371.496C584.05 371.496 584.058 371.496 584.062 371.496L584.1 371.521C584.124 371.537 584.158 371.562 584.203 371.595C584.245 371.628 584.299 371.67 584.357 371.72C584.415 371.77 584.477 371.828 584.543 371.894C584.61 371.96 584.68 372.031 584.755 372.11C584.83 372.189 584.904 372.276 584.979 372.367C585.054 372.459 585.128 372.554 585.199 372.658C585.269 372.757 585.34 372.865 585.406 372.969C585.44 373.023 585.469 373.077 585.498 373.131C585.514 373.16 585.527 373.185 585.543 373.214L585.585 373.297C585.614 373.351 585.634 373.409 585.659 373.463C585.68 373.521 585.705 373.575 585.726 373.629C585.747 373.683 585.767 373.741 585.78 373.795L585.805 373.878C585.813 373.903 585.817 373.932 585.825 373.957C585.829 373.982 585.838 374.011 585.842 374.036L585.854 374.111C585.863 374.16 585.871 374.21 585.875 374.256C585.883 374.302 585.883 374.347 585.883 374.393V374.517C585.883 374.596 585.875 374.663 585.871 374.717C585.871 374.746 585.863 374.767 585.859 374.787L585.85 374.841L585.842 374.887C585.842 374.887 585.829 374.903 585.821 374.903C585.813 374.903 585.809 374.895 585.805 374.891V374.883L585.796 374.899Z" fill="black"/>
<path d="M575.711 376.867C576.706 380.374 574.578 378.498 574.529 376.8C574.475 374.999 575.458 375.958 575.848 377.174" fill="black"/>
<path d="M550.384 386.58C550.384 386.58 550.359 386.547 550.351 386.53C550.301 386.426 550.342 386.302 550.446 386.252C551.749 385.617 553.064 385.007 554.337 384.417C555.188 384.027 555.989 383.653 556.789 383.276C559.685 381.902 562.606 380.76 565.476 379.872C568.617 378.905 571.687 378.249 574.603 377.925C574.715 377.913 574.819 377.996 574.831 378.108C574.844 378.22 574.761 378.324 574.649 378.336C569.115 378.951 563 380.789 556.963 383.649C556.163 384.031 555.358 384.401 554.507 384.791C553.234 385.376 551.923 385.986 550.624 386.621C550.541 386.663 550.442 386.642 550.384 386.576V386.58Z" fill="black"/>
<path d="M575.985 377.639C579.623 377.871 577.113 379.366 575.508 378.818C573.798 378.233 575.047 377.577 576.325 377.614" fill="black"/>
<path d="M400.753 216.263L682.778 353.377L696.435 339.152L400.753 216.263Z" fill="#2A29AB"/>
<path d="M726.819 335.213L737.643 316.829L400.753 216.263L726.819 335.213Z" fill="#FF0099"/>
<path d="M400.753 216.263L658.919 364.398L669.975 346.943L400.753 216.263Z" fill="#7F7DE1"/>
<path d="M400.753 216.263L703.981 342.195L714.386 325.766L400.753 216.263Z" fill="black"/>
<path d="M400.753 216.263L441.368 224.61L734.175 294.527L722.899 312.33L400.753 216.263Z" fill="#FF7EB0"/>
<path d="M400.753 216.263L588.966 169.728L589.364 189.116L400.753 216.263Z" fill="#74C892"/>
<path d="M400.753 216.263L400.782 216.259L583.411 209.26L582.714 220.368L400.753 216.263Z" fill="#E493B3"/>
<path d="M400.753 216.263L574.454 191.034L573.902 201.698L400.753 216.263Z" fill="#B3E2C9"/>
<path d="M566.933 202.283L566.207 211.519L400.753 216.263L566.933 202.283Z" fill="white"/>
<path d="M564.344 233.51L566.953 219.775L400.753 216.263L564.344 233.51Z" fill="#D84370"/>
<path d="M400.753 216.263L316.889 396.944L274.723 391.627L400.753 216.263Z" fill="#FD228A"/>
<path d="M400.752 216.263L380.719 406.757L345.875 404.341L400.752 216.263Z" fill="#22AFFD"/>
<path d="M400.753 216.263L339.395 425.423L299.341 422.46L400.753 216.263Z" fill="#FCD700"/>
<path d="M400.753 216.263L88.7881 239.736L89.0909 258.66L400.753 216.263Z" fill="#7CDEF5"/>
<path d="M400.753 216.263L93.1318 280.937L94.783 302.708L400.753 216.263Z" fill="#FDF48D"/>
<path d="M400.753 216.263L100.98 257.041L99.3418 279.58L400.753 216.263Z" fill="#40CBF6"/>
<path d="M400.753 216.263L107.527 218.795L106.702 239.23L400.753 216.263Z" fill="#CDCBCD"/>
<path d="M400.753 216.263L99.6365 200.016L96.2388 219.094L400.753 216.263Z" fill="#F0A1B8"/>
<path d="M400.753 216.263L113.327 176.261L105.797 200.668L400.753 216.263Z" fill="#F77592"/>
<path d="M400.753 216.263L212.602 290.048L214.672 301.313L400.753 216.263Z" fill="#65DA69"/>
<path d="M400.753 216.263L208.947 267.223L210.847 279.787L400.753 216.263Z" fill="#FF95C6"/>
<path d="M400.753 216.263L231.495 319.494L227.056 307.183L400.753 216.263Z" fill="#FF95C6"/>
<path d="M400.753 216.263L219.97 298.765L222.003 309.827L400.753 216.263Z" fill="#9780FE"/>
<path d="M400.753 216.263L219.489 276.948L222.094 286.325L400.753 216.263Z" fill="#9780FE"/>
<path d="M400.753 216.263L462.285 334.433L447.956 335.234L400.753 216.263Z" fill="black"/>
<path d="M400.753 216.263L477.792 336.425L464.687 339.929L400.753 216.263Z" fill="#9A5AD0"/>
<path d="M400.753 216.263L477.68 312.562L469.698 324.579L400.753 216.263Z" fill="white"/>
<path d="M400.753 216.263L491.258 315.721L481.488 327.028L400.753 216.263Z" fill="#FDF332"/>
<path d="M492.333 -108.37L535.283 -81.3977L400.753 216.263L492.333 -108.37Z" fill="white"/>
<path d="M437.314 -111.969L400.753 216.263L481.505 -68.1484L437.314 -111.969Z" fill="#B47DDA"/>
<path d="M400.753 216.263L577.648 -57.1984L532.744 -76.5288L400.753 216.263Z" fill="#4A8022"/>
<path d="M292.79 329.771L308.409 351.323L400.753 216.263" fill="white"/>
<path d="M400.753 216.263L311.044 336.205L323.631 353.576L400.753 216.263Z" fill="#FFF346"/>
<path d="M400.753 216.263L284.095 308.337L298.192 327.787L400.753 216.263Z" fill="#FF9719"/>
<path d="M495.498 69.8669L523.435 129.021L400.753 216.263L495.498 69.8669Z" fill="#FCD700"/>
<path d="M481.223 146.11C489.127 146.11 495.535 139.698 495.535 131.789C495.535 123.88 489.127 117.469 481.223 117.469C473.318 117.469 466.91 123.88 466.91 131.789C466.91 139.698 473.318 146.11 481.223 146.11Z" stroke="#7B03AE" stroke-width="4" stroke-miterlimit="10"/>
<path d="M300.582 84.3699L302.382 86.5989L400.753 216.263L309.613 79.4387L300.582 84.3699Z" fill="black"/>
<path d="M400.753 216.263L279.279 95.324L269.451 100.982L400.753 216.263Z" fill="white"/>
<path d="M285.792 92.655L400.753 216.263L293.492 86.4619L285.792 92.655Z" fill="white"/>
<path d="M259.457 119.814L400.753 216.263L268.335 111.093L259.457 119.814Z" fill="black"/>
<path d="M272.421 103.588L400.753 216.263L264.738 108.32L272.421 103.588Z" fill="#BABABA"/>
<path d="M282.983 100.766L400.753 216.263L292.247 96.5027L282.983 100.766Z" fill="#B5F183"/>
<path d="M296.333 89.8282L400.724 216.221L302.382 86.5989L296.333 89.8282Z" fill="#BABABA"/>
<path d="M257.552 224.054L400.753 216.263L258.825 213.535L257.552 224.054Z" fill="#F7A8B8"/>
<path d="M247.836 233.734L400.753 216.263L247.695 223.855L247.836 233.734Z" fill="#55CDFC"/>
<path d="M250.504 213.465L400.753 216.263L252.176 200.863L250.504 213.465Z" fill="white"/>
<path d="M261.954 190.631L249.076 188.884L245.513 200.411L400.753 216.263L261.344 192.761L261.954 190.631Z" fill="#F7A8B8"/>
<path d="M264.65 182.641L261.954 190.631L261.344 192.761L400.753 216.263L264.65 182.641Z" fill="#55CDFC"/>
<path d="M400.753 216.263L399.322 34.4601L375.891 28.5286L400.5 214.81L400.753 216.263Z" fill="#058D70"/>
<path d="M400.753 216.263L335.102 26.7852L320.395 27.8229L400.753 216.263Z" fill="#7BADE2"/>
<path d="M345.37 24.7679L366.03 23.7302L400.753 216.263L345.37 24.7679Z" fill="#98E8C1"/>
<path d="M400.753 216.263L312.55 29.7988L297.155 45.2026L400.753 216.263Z" fill="#3D1A78"/>
<path d="M310.061 43.0567L324 36.0667L400.753 216.263L310.061 43.0567Z" fill="#5148CC"/>
<path d="M338.881 45.8956L356.745 44.887L400.753 216.263L338.881 45.8956Z" fill="#F4F0FF"/>
<path d="M360.682 37.6024L379.79 36.6394L400.753 216.263L360.682 37.6024Z" fill="#27CEAA"/>
</g>
<defs>
<clipPath id="clip0_21_4350">
<rect width="800" height="449" fill="white"/>
</clipPath>
</defs>
</svg>
