<svg width="800" height="449" viewBox="0 0 800 449" fill="none" xmlns="http://www.w3.org/2000/svg">
<g clip-path="url(#clip0_21_4353)">
<g clip-path="url(#clip1_21_4353)">
<path d="M299.502 217.171L869.719 225.955L862.101 247.3L299.502 217.171Z" fill="black"/>
<path d="M299.502 217.171L872.591 268.944L864.966 290.304L299.502 217.171Z" fill="black"/>
<path d="M299.502 217.171L864.634 185.281L857.295 205.847L299.502 217.171Z" fill="black"/>
<path d="M299.502 217.171L906.549 204.814L897.515 226.623L299.502 217.171Z" fill="white"/>
<path d="M299.502 217.171L882.67 247.182L875.279 269.255L299.502 217.171Z" fill="white"/>
<path d="M299.502 217.171L879.306 290.098L865.548 326.125L299.502 217.171Z" fill="white"/>
<path d="M741.189 224.153L680.122 223.187L662.578 235.856L751.941 240.452L741.189 224.153Z" fill="#FBFB0D"/>
<path d="M764.314 259.217L645.155 248.437L630.757 258.835L691.422 266.469L703.62 256.028L709.915 268.79L776.117 277.119L764.314 259.217Z" fill="#011995"/>
<path d="M721.056 193.625L699.729 209.027L730.795 208.395L721.056 193.625Z" fill="#FB1F26"/>
<path d="M730.795 208.395L699.729 209.027L680.122 223.187L741.189 224.153L730.795 208.395Z" fill="#F7901E"/>
<path d="M751.941 240.452L662.578 235.855L645.155 248.437L764.314 259.217L751.941 240.452Z" fill="#0DB904"/>
<path d="M724.841 299.04L800.129 313.533L776.116 277.119L709.914 268.791L724.841 299.04Z" fill="#750184"/>
<path d="M606.598 276.279L666.479 287.805L691.422 266.469L630.757 258.835L606.598 276.279Z" fill="#750185"/>
</g>
<path d="M400.753 216.263L906.984 378.913L874.401 437.756L400.753 216.263Z" fill="#A4A2A7"/>
<path d="M400.753 216.263L906.549 321.001L879.591 372.48L400.753 216.263Z" fill="#A4A2A7"/>
<path d="M400.753 216.263L841.204 422.443L795.682 487.865L400.753 216.263Z" fill="#A4A2A7"/>
<path d="M400.753 216.263L903.508 354.635L872.829 400.477L400.753 216.267V216.263Z" fill="#7280CD"/>
<path d="M400.753 216.263C412.764 221.945 889.884 419.915 889.884 419.915L874.957 447.589L400.753 216.263Z" fill="#EB77CE"/>
<path d="M400.753 216.263L652.888 210.883L654.02 198.983L400.753 216.263Z" fill="black"/>
<path d="M400.754 216.263L643.263 276.761L645.184 265.89L400.754 216.263Z" fill="black"/>
<path d="M400.754 216.263L647.877 267.853L650.424 258.564L400.754 216.263Z" fill="#FFA7C8"/>
<path d="M400.754 216.263L656.73 236.382L658.829 227.922L400.754 216.263Z" fill="#A4E600"/>
<path d="M400.754 216.263L657.431 251.923L659.534 244.26L400.754 216.263Z" fill="#FFC600"/>
<path d="M400.754 216.263L645.831 219.82L648.217 210.954L400.754 216.263Z" fill="#85D9EB"/>
<path d="M400.754 216.263L653.357 227.678L655.303 219.978L400.754 216.263Z" fill="#00A2EC"/>
<path d="M400.754 216.263L645.782 242.87L648.043 234.061L400.754 216.263Z" fill="white"/>
<path d="M400.754 216.263L646.827 258.004L649.092 249.096L400.754 216.263Z" fill="#FF5861"/>
<path d="M400.753 216.263L180.343 -97.9805L152.842 -85.2582L400.753 216.263Z" fill="#C479A0"/>
<path d="M400.753 216.263L151.182 -93.9624L125.718 -79.036L400.753 216.263Z" fill="#ECA6CB"/>
<path d="M86.6016 -52.6035L110.074 -66.5378L400.753 216.263L86.6016 -52.6035Z" fill="white"/>
<path d="M400.753 216.263L85.4854 -56.7751L63.8257 -44.5011L400.753 216.263Z" fill="#D6C7E9"/>
<path d="M31.6372 -15.964L54.1225 -28.4165L400.753 216.263L31.6372 -15.964Z" fill="#6C83CE"/>
<path d="M400.753 216.263L67.6177 -41.637L47.5801 -30.5335L400.753 216.263Z" fill="#9AC7E8"/>
<path d="M400.753 216.263L126.241 -83.3196L105.038 -71.3652L400.753 216.263Z" fill="#D6C7E9"/>
<path d="M400.754 216.263L-52.085 -39.9062L-51.7448 -7.83689L400.754 216.263Z" fill="#F9921E"/>
<path d="M400.754 216.263L-43.5264 -3.66943L-43.182 28.9769L400.754 216.263Z" fill="#FDFD08"/>
<path d="M-25.7167 131.133L-26.0776 94.1284L400.753 216.263L-25.7167 131.133Z" fill="#750185"/>
<path d="M400.754 216.263L-6.86963 -40.8857L-6.5087 -7.05642L400.754 216.263Z" fill="#FD1E26"/>
<path d="M400.753 216.263L-52.0229 54.239L-51.6579 88.5789L400.753 216.263Z" fill="#011897"/>
<path d="M400.753 216.263L-70.0237 14.7229L-70.1108 49.0047L400.753 216.263Z" fill="#0DBB01"/>
<path d="M111.829 157.23L128.826 160.708L123.781 103.119L182.011 78.3139L165.736 68.0364L103.785 93.6346L111.829 157.23Z" fill="#F7A8B8"/>
<path d="M196.726 87.6074L182.011 78.3137L123.786 103.119L128.826 160.708L144.529 163.921L142.475 112.068L196.726 87.6074Z" fill="white"/>
<path d="M93.177 153.415L111.829 157.23L103.781 93.6346L165.736 68.0364L147.54 56.5427L80.8516 82.747L93.177 153.415Z" fill="#55CDFC"/>
<path d="M55.9023 70.8672L72.7663 149.239L93.1774 153.415L80.8436 82.7344L147.524 56.5302L127.154 43.6667L55.9023 70.8672Z" fill="#623715"/>
<path d="M55.8899 70.8548L127.138 43.6544L103.98 29.031L26.7876 56.0737L50.1815 144.619L72.7663 149.239L55.8899 70.8548Z" fill="black"/>
<path d="M400.753 216.263L383.877 548.4L361.997 546.2L400.753 216.263Z" fill="#7F7F7F"/>
<path d="M400.753 216.263L443.148 555.004L462.887 557.204L400.753 216.263Z" fill="#9AD9EB"/>
<path d="M400.753 216.263L403.251 550.559L423.396 552.804L400.753 216.263Z" fill="#9AD9EB"/>
<path d="M400.753 216.263L478.817 539.825L499.95 537.011L400.753 216.263Z" fill="#7F7F7F"/>
<path d="M400.753 216.263L461.032 547.23L481.12 549.334L400.753 216.263Z" fill="#C4C4C4"/>
<path d="M400.753 216.263L422.351 537.26L441.173 539.356L400.753 216.263Z" fill="white"/>
<path d="M400.753 216.263L403.251 544.133L384.205 542.012L400.753 216.263Z" fill="#C4C4C4"/>
<path d="M400.754 216.263L-42.0206 167.316L-46.6919 187.498L400.754 216.263Z" fill="#F0DEF1"/>
<path d="M400.753 216.263L-30.8237 127.941L-36.25 148.285L400.753 216.263Z" fill="#94339B"/>
<path d="M400.754 216.263L-31.4127 207.114L-35.4658 227.071L400.754 216.263Z" fill="#94339B"/>
<path d="M400.753 216.263L-36.9639 187.958L-40.9424 207.322L400.753 216.263Z" fill="#A492A4"/>
<path d="M400.753 216.263L-21.1658 150.431L-26.3931 168.698L400.753 216.263Z" fill="#A492A4"/>
<path d="M400.754 216.263L-53.6698 267.538L-54.3999 286.669L400.754 216.263Z" fill="white"/>
<path d="M400.754 216.263L-51.7113 226.3L-52.5742 248.868L400.754 216.263Z" fill="#3AA63F"/>
<path d="M400.754 216.263L-35.9715 301.226L-36.6768 319.66L400.754 216.263Z" fill="black"/>
<path d="M400.754 216.263L-44.4639 284.909L-45.1816 303.696L400.754 216.263Z" fill="#AAAAAA"/>
<path d="M400.754 216.263L-37.4447 245.003L-38.2163 265.201L400.754 216.263Z" fill="#A8D47A"/>
<path d="M257.051 515.721L249.832 511.333L400.753 216.263L257.051 515.721Z" fill="#6D0270"/>
<path d="M278.984 524.82L258.615 512.438L400.753 216.263L278.984 524.82Z" fill="white"/>
<path d="M225.907 488.662L253.051 504.821L400.753 216.263L225.907 488.662Z" fill="#D3D3D3"/>
<path d="M400.753 216.263L346.871 514.804L310.708 499.304L400.753 216.263Z" fill="#0BD36A"/>
<path d="M376.476 506.186L341.292 491.106L400.753 216.263L376.476 506.186Z" fill="#F51EB9"/>
<path d="M400.753 216.263L319.205 493.232L283.452 477.911L400.753 216.263Z" fill="#1C90F4"/>
<path d="M400.753 216.271L141.177 448.514L118.442 440.018L400.753 216.271Z" fill="#FFF798"/>
<path d="M400.754 216.271L169.777 487.594L179.307 500.616L400.754 216.271Z" fill="#FFEBFB"/>
<path d="M160.248 474.573L150.714 461.544L400.754 216.271L160.248 474.573Z" fill="#FFEBFB"/>
<path d="M211.113 523.068L181.974 520.469L400.753 216.271L211.113 523.068Z" fill="#FFF798"/>
<path d="M400.754 216.271L182.887 496.029L191.159 507.336L400.754 216.271Z" fill="#FFDDCD"/>
<path d="M175.689 480.712L166.413 468.036L400.754 216.271L175.689 480.712Z" fill="white"/>
<path d="M153.382 458.962L143.944 446.065L400.754 216.271L153.382 458.962Z" fill="#FFDDCD"/>
<path d="M400.753 216.263L278.353 -96.6023L235.158 -91.2809L400.753 216.263Z" fill="#FFFAA7"/>
<path d="M400.753 216.263L200.542 -67.7083L233.088 -76.6201L400.753 216.263Z" fill="#86D9EC"/>
<path d="M400.753 216.263L318.827 -97.6443L288.098 -91.2728L400.753 216.263Z" fill="#FFA7C8"/>
<path d="M400.209 215.345L232.694 -76.6867L244.99 -77.687L400.209 215.345Z" fill="#BDB8B5"/>
<path d="M400.753 216.263L286.908 -97.2957L275.001 -96.2206L400.753 216.263Z" fill="#BDB8B5"/>
<path d="M400.753 216.263L-17.4487 408.829L-14.5572 444.326L400.753 216.263Z" fill="#E0E0E0"/>
<path d="M400.753 216.263L-2.98682 491.712L5.22738 529.278L400.753 216.263Z" fill="#FF9BC2"/>
<path d="M-46.5718 320.665L-41.7304 350.75L400.753 216.263L-46.5718 320.665Z" fill="#00DBDD"/>
<path d="M400.753 216.263L-64.0205 357.188L-57.6649 382.882L400.753 216.263Z" fill="#00BAF0"/>
<path d="M400.754 216.263L-31.5371 450.665L-26.9571 468.169L400.754 216.263Z" fill="#AEFB94"/>
<path d="M400.753 216.263L-41.3032 396.716L-36.271 419.131L400.753 216.263Z" fill="#FFF997"/>
<path d="M400.753 216.263L-7.62891 476.205L-3.21896 493.07L400.753 216.263Z" fill="#FF5F9A"/>
<path d="M400.753 216.263L-19.353 463.653L-14.8601 480.841L400.753 216.263Z" fill="#F1BBE6"/>
<path d="M400.753 216.263L-34.4121 373.982L-29.1683 391.329L400.753 216.263Z" fill="#6BE6FF"/>
<path d="M400.703 216.263L77.6074 332.64L88.1697 350.293L400.703 216.263Z" fill="#313146"/>
<path d="M400.704 216.263L78.2881 318.581L88.1991 336.608L400.704 216.263Z" fill="#3F4082"/>
<path d="M400.703 216.263L36.8765 301.268L53.1597 334.902L400.703 216.263Z" fill="#4848C2"/>
<path d="M400.703 216.263L110.336 395.152L103.536 375.738L400.703 216.263Z" fill="#453232"/>
<path d="M400.708 216.275L77.338 392.034L61.9302 357.429L400.708 216.275Z" fill="#1E1E1E"/>
<path d="M400.703 216.263L121.57 403.623L114.069 384.467L400.703 216.263Z" fill="#7E4443"/>
<path d="M400.703 216.263L110.037 446.543L92.9614 412.506L400.703 216.263Z" fill="#C14A4A"/>
<path d="M141.645 345.491C141.624 345.582 141.599 345.678 141.587 345.769C141.413 347.089 141.292 348.417 141.056 349.725C140.79 351.186 140.214 352.543 139.106 353.573C137.417 355.133 135.434 355.922 133.103 355.548C131.788 355.341 130.688 354.673 129.705 353.797C128.465 352.693 127.527 351.356 126.747 349.907C125.723 348.01 124.909 346.026 124.466 343.909C124.113 342.216 124.022 340.518 124.416 338.816C124.955 336.513 126.295 334.819 128.336 333.653C129.295 333.105 130.315 332.706 131.402 332.491C133.099 332.15 134.65 332.507 136.086 333.449C137.098 334.113 137.953 334.956 138.757 335.853C138.791 335.89 138.82 335.932 138.857 335.956C138.899 335.986 138.948 335.998 138.998 336.015C139.015 335.965 139.044 335.911 139.04 335.865C139.027 335.695 139.002 335.529 138.981 335.359C138.753 333.657 138.529 331.951 138.293 330.249C138.26 330.025 138.318 329.921 138.529 329.834C139.492 329.436 140.446 329.025 141.4 328.61C141.583 328.531 141.657 328.56 141.749 328.738C141.944 329.132 141.985 329.523 141.96 329.971C141.886 331.299 141.844 332.632 141.869 333.96C141.906 335.894 142.01 337.829 142.093 339.767C142.097 339.896 142.147 340.041 142.222 340.14C143.678 342.137 145.2 344.08 146.831 345.935C147.378 346.558 147.955 347.16 148.511 347.778C148.619 347.898 148.731 347.944 148.892 347.919C149.133 347.882 149.374 347.878 149.614 347.84C149.78 347.815 149.867 347.865 149.925 348.023C149.988 348.206 150.067 348.384 150.158 348.554C150.266 348.749 150.195 348.828 150.008 348.907C148.93 349.359 147.855 349.824 146.781 350.285C146.499 350.406 146.212 350.518 145.939 350.655C145.76 350.742 145.657 350.713 145.528 350.559C144.229 349.003 143.022 347.38 141.902 345.69C141.852 345.62 141.798 345.549 141.749 345.479H141.661L141.645 345.491ZM129.581 346.031C130.145 347.346 130.767 348.629 131.576 349.812C132.215 350.746 132.937 351.597 133.899 352.211C134.522 352.61 135.194 352.892 135.953 352.788C137.164 352.622 138.044 351.95 138.65 350.908C139.322 349.75 139.55 348.463 139.649 347.151C139.79 345.341 139.625 343.54 139.521 341.734C139.513 341.614 139.45 341.485 139.388 341.377C138.811 340.452 138.247 339.522 137.641 338.617C136.866 337.463 135.995 336.38 134.899 335.508C134.26 335.002 133.568 334.607 132.759 334.433C131.083 334.076 128.481 335.118 127.971 337.704C127.768 338.733 127.809 339.759 127.971 340.784C128.257 342.606 128.863 344.333 129.585 346.022L129.581 346.031Z" fill="white"/>
<path d="M400.753 216.263L515.155 470.543L535.209 461.291L400.753 216.263Z" fill="white"/>
<path d="M400.753 216.263L546.344 483.245L565.987 473.988L400.753 216.263Z" fill="#D1D1D1"/>
<path d="M400.753 216.263L559.146 465.595L580.034 456.339L400.753 216.263Z" fill="black"/>
<path d="M502.253 488.512L520.809 476.782L400.753 216.263L502.253 488.512Z" fill="#6D0270"/>
<path d="M400.754 216.263L857.281 47.1077L861.562 62.6401L400.754 216.263Z" fill="#7F7F7F"/>
<path d="M400.754 216.263L840.168 -14.968L844.441 0.543657L400.754 216.263Z" fill="#FFAEC9"/>
<path d="M400.754 216.263L848.718 16.0596L853.925 34.9334L400.754 216.263Z" fill="#FFAEC9"/>
<path d="M400.753 216.263L818.205 -36.6726L822.324 -21.7296L400.753 216.263Z" fill="#7F7F7F"/>
<path d="M401.961 215.499L828.97 -26.0134L834.567 -5.71169L401.961 215.499Z" fill="#C4C4C4"/>
<path d="M400.754 216.263L833.277 6.72437L837.442 21.8293L400.754 216.263Z" fill="white"/>
<path d="M400.754 216.263L848.253 33.8169L852.489 49.1833L400.754 216.263Z" fill="#C4C4C4"/>
<path d="M400.753 216.263L399.832 418.956L386.86 418.919L400.753 216.263Z" fill="#7F7F7F"/>
<path d="M447.886 419.118L435.357 419.077L400.754 216.263L447.886 419.118Z" fill="#FFE111"/>
<path d="M423.654 419.039L409.018 418.998L400.754 216.263L423.654 419.039Z" fill="#FFE111"/>
<path d="M468.081 407.18L457.656 407.143L400.754 216.263L468.081 407.18Z" fill="#7F7F7F"/>
<path d="M459.411 413.029L446.633 412.992L400.754 216.263L459.411 413.029Z" fill="#C2C2C2"/>
<path d="M433.714 408.903L422.654 409.368L400.754 216.263L433.714 408.903Z" fill="white"/>
<path d="M408.806 414.972L399.833 414.93L400.754 216.263L408.806 414.972Z" fill="#C2C2C2"/>
<path d="M400.753 216.263L210.113 382.475L215.818 401.137L400.753 216.263Z" fill="#BC18D4"/>
<path d="M213.855 360.808L219.315 378.017L400.753 216.263L213.855 360.808Z" fill="white"/>
<path d="M400.753 216.263L231.3 404.205L240.642 421.522L400.753 216.263Z" fill="#333EBB"/>
<path d="M400.753 216.263L215.577 347.541L219.327 360.808L400.753 216.263Z" fill="#FB759E"/>
<path d="M400.753 216.263L238.112 377.203L243.501 394.998L400.753 216.263Z" fill="black"/>
<path d="M400.754 216.263L808.605 164.929L807.058 189.108L400.754 216.263Z" fill="#28246C"/>
<path d="M400.753 216.263L807.29 92.5305L805.771 116.966L400.753 216.263Z" fill="#93C73D"/>
<path d="M400.754 216.263L809.725 115.804L806.212 141.295L400.754 216.263Z" fill="#0A733B"/>
<path d="M400.754 216.263L804.245 141.44L802.723 165.942L400.754 216.263Z" fill="#4DBFED"/>
<path d="M766.169 149.422C765.949 149.812 765.734 150.202 765.514 150.588C764.858 151.721 764.128 152.751 763.377 153.747C762.257 155.212 761.154 156.673 760.042 158.105C758.851 159.62 757.66 161.111 756.47 162.58C755.275 164.033 754.08 165.461 752.885 166.868C752.628 167.167 752.363 167.449 752.126 167.773C752.052 167.789 752.018 167.872 751.969 167.93C749.948 170.234 747.928 172.476 745.908 174.655C745.812 174.759 745.762 174.742 745.671 174.622C743.75 172.098 741.829 169.641 739.905 167.245C739.822 167.146 739.734 167.05 739.651 166.951C739.232 166.395 738.78 165.876 738.345 165.344C737.353 164.153 736.357 162.983 735.362 161.825C735.283 161.737 735.204 161.65 735.125 161.563C735.013 161.43 735.013 161.43 735.167 161.351C735.76 161.048 736.345 160.737 736.93 160.405C737.063 160.33 737.2 160.255 737.328 160.168C737.428 160.102 737.49 160.114 737.573 160.21C738.39 161.173 739.212 162.148 740.033 163.128C741.12 164.444 742.207 165.772 743.29 167.125C743.319 167.158 743.335 167.208 743.381 167.212C743.41 167.258 743.439 167.312 743.476 167.353C744.231 168.308 744.987 169.271 745.737 170.247C745.825 170.359 745.874 170.363 745.966 170.267C746.559 169.607 747.156 168.956 747.75 168.287C747.965 168.042 748.198 167.827 748.384 167.54C748.587 167.391 748.741 167.171 748.915 166.976C750.056 165.672 751.193 164.344 752.334 162.995C753.545 161.542 754.761 160.065 755.972 158.566C757.15 157.088 758.328 155.59 759.507 154.071C760.448 152.838 761.398 151.601 762.336 150.335C762.51 150.103 762.684 149.87 762.83 149.596C762.917 149.472 763.008 149.351 763.091 149.218C764.651 146.728 765.846 143.947 766.389 140.701C766.41 140.585 766.447 140.551 766.526 140.576C767.302 140.817 768.015 141.236 768.638 141.917C768.704 141.992 768.725 142.058 768.696 142.199C768.273 144.296 767.617 146.251 766.792 148.094C766.592 148.538 766.381 148.974 766.173 149.414L766.169 149.422Z" fill="#FBFCFC"/>
<path d="M767.741 129.925C767.932 130.428 768.139 130.909 768.309 131.432C768.65 132.478 768.886 133.582 769.035 134.744C769.044 134.811 769.073 134.89 769.027 134.944C768.99 134.989 768.944 134.935 768.903 134.915C768.077 134.549 767.223 134.329 766.339 134.263C766.244 134.255 766.21 134.18 766.181 134.072C765.854 132.794 765.356 131.677 764.717 130.71C764.65 130.61 764.58 130.523 764.509 130.432C764.48 130.382 764.455 130.332 764.422 130.286C763.651 129.278 762.784 128.464 761.813 127.842C760.805 127.202 759.718 126.862 758.54 126.899C757.162 126.949 755.822 127.493 754.52 128.365C753.184 129.245 751.981 130.386 750.848 131.673C750.529 132.03 750.205 132.383 749.927 132.794C749.562 133.196 749.238 133.653 748.919 134.105C748.048 135.326 747.314 136.658 746.509 137.916C746.442 138.019 746.372 138.115 746.318 138.223C746.251 138.347 746.21 138.339 746.144 138.244C745.542 137.397 744.945 136.558 744.335 135.737C743.837 135.077 743.285 134.491 742.688 133.981C742.671 133.96 742.655 133.939 742.638 133.927C742.086 133.429 741.501 132.985 740.887 132.603C739.531 131.772 738.083 131.225 736.453 131.2C735.046 131.187 733.673 131.59 732.329 132.403C731.134 133.117 730.084 134.055 729.118 135.118C728.753 135.517 728.388 135.915 728.085 136.367C727.662 136.89 727.313 137.463 727.006 138.057C726.044 139.9 725.658 141.776 725.84 143.706C726.011 145.524 726.616 147.151 727.5 148.666C727.989 149.513 728.554 150.298 729.184 151.037C729.238 151.099 729.267 151.194 729.354 151.223C729.4 151.277 729.437 151.34 729.487 151.389C730.499 152.489 731.557 153.56 732.59 154.673C733.076 155.2 733.557 155.727 734.046 156.258C734.167 156.391 734.171 156.391 734.013 156.478C733.283 156.881 732.545 157.271 731.79 157.607C731.678 157.657 731.615 157.645 731.532 157.553C730.636 156.578 729.736 155.615 728.832 154.668C727.998 153.809 727.185 152.942 726.475 151.979C726.322 151.775 726.193 151.551 726.019 151.369C725.832 151.07 725.641 150.775 725.459 150.476C724.6 149.073 723.949 147.583 723.575 145.956C723.161 144.167 723.123 142.328 723.546 140.427C723.799 139.281 724.218 138.169 724.783 137.09C724.812 137.032 724.857 136.978 724.866 136.911C725.073 136.571 725.268 136.218 725.488 135.886C727.251 133.229 729.417 131.046 732.126 129.556C733.864 128.58 735.627 128.161 737.39 128.224C739.257 128.302 740.929 128.925 742.485 129.892C743.87 130.776 745.115 131.901 746.21 133.275C746.297 133.383 746.339 133.35 746.413 133.234C747.749 131.166 749.268 129.307 750.977 127.667C752.342 126.339 753.789 125.227 755.349 124.459C757.677 123.301 759.917 123.118 762.049 124.031C764.211 124.994 765.995 126.704 767.368 129.199C767.496 129.436 767.617 129.689 767.741 129.934V129.925Z" fill="#FCFCFB"/>
<path d="M743.891 150.485C743.978 150.368 743.87 150.352 743.829 150.323C743.223 149.854 742.617 149.389 742.003 148.94C739.933 147.459 737.822 146.097 735.631 144.947C734.308 144.275 732.959 143.69 731.549 143.258C730.043 142.81 728.496 142.847 726.907 143.229C726.795 143.254 726.761 143.237 726.753 143.117C726.712 142.353 726.778 141.589 726.94 140.817C726.961 140.713 727.002 140.672 727.102 140.651C728.172 140.415 729.238 140.29 730.292 140.352C731.242 140.41 732.15 140.635 733.042 140.917C735.291 141.647 737.411 142.722 739.485 143.935C741.684 145.267 743.812 146.774 745.886 148.438C745.998 148.529 746.069 148.525 746.185 148.422C748.687 146.085 751.259 143.81 753.926 141.656C755.689 140.199 757.486 138.8 759.369 137.617C760.299 137.028 761.244 136.492 762.223 136.156C763.115 135.849 764.02 135.703 764.916 135.662C766.057 135.612 767.164 135.77 768.226 136.218C770.994 137.418 772.753 140.087 773.487 144.213C773.748 145.69 773.844 147.218 773.844 148.766C773.844 148.862 773.844 148.953 773.844 149.048C773.815 149.526 773.815 150.007 773.786 150.485C773.665 152.626 773.329 154.685 772.641 156.603C771.72 159.147 770.334 160.949 768.542 162.086C767.571 162.692 766.559 163.053 765.509 163.223C764.588 163.373 763.663 163.352 762.734 163.244C761.336 163.082 760.045 162.443 758.764 161.746C758.647 161.683 758.643 161.621 758.73 161.509C759.299 160.804 759.863 160.09 760.427 159.367C760.494 159.28 760.556 159.293 760.63 159.33C761.17 159.583 761.713 159.799 762.277 159.932C762.601 160.007 762.929 160.023 763.252 160.052C764.48 160.164 765.688 159.977 766.862 159.434C767.861 158.965 768.757 158.23 769.504 157.138C770.309 155.951 770.828 154.527 771.13 152.938C771.367 151.697 771.483 150.439 771.471 149.169C771.475 149.106 771.483 149.04 771.483 148.978C771.496 147.691 771.408 146.425 771.18 145.201C770.711 142.714 769.716 140.884 768.094 139.838C767.164 139.248 766.165 138.987 765.119 138.954C763.763 138.912 762.423 139.178 761.108 139.904C759.722 140.659 758.403 141.602 757.104 142.598C754.727 144.391 752.449 146.342 750.205 148.322C749.529 148.911 748.861 149.509 748.189 150.103C748.147 150.14 748.039 150.165 748.122 150.277C748.056 150.393 748.122 150.439 748.185 150.489C748.981 151.14 749.782 151.784 750.595 152.419C752.321 153.793 754.072 155.142 755.876 156.408C756.055 156.532 756.055 156.536 755.901 156.723C755.395 157.358 754.885 157.985 754.379 158.616C754.279 158.741 754.204 158.761 754.084 158.67C752.964 157.852 751.856 157.01 750.765 156.146C749.18 154.918 747.629 153.656 746.11 152.357C746.003 152.265 745.928 152.282 745.824 152.373C743.833 154.129 741.792 155.748 739.701 157.226C738.046 158.367 736.357 159.417 734.611 160.305C733.362 160.928 732.088 161.48 730.752 161.82C730.188 161.962 729.62 162.053 729.035 162.074C728.425 162.094 727.815 162.099 727.209 162.036C725.276 161.837 723.467 161.256 721.866 160.069C720.244 158.894 719.199 157.329 718.638 155.445C718.294 154.299 718.157 153.12 718.166 151.921C718.166 151.863 718.161 151.8 718.157 151.742C718.182 150.978 718.236 150.211 718.373 149.447C718.821 147.01 719.904 144.873 721.937 143.167C721.957 143.15 721.978 143.129 721.999 143.117C722.032 143.096 722.057 143.042 722.103 143.059C722.144 143.075 722.127 143.129 722.127 143.167C722.127 144.063 722.206 144.943 722.372 145.807C722.385 145.877 722.376 145.931 722.327 145.993C721.36 147.176 720.87 148.521 720.646 149.957C720.568 150.451 720.53 150.949 720.518 151.448C720.518 151.51 720.522 151.568 720.526 151.626C720.526 151.672 720.518 151.717 720.518 151.763C720.501 152.622 720.588 153.465 720.792 154.291C721.07 155.424 721.563 156.441 722.364 157.292C723.082 158.064 723.945 158.599 724.915 158.961C726.143 159.425 727.409 159.583 728.707 159.517C729.213 159.492 729.715 159.434 730.209 159.301C731.499 158.952 732.719 158.384 733.914 157.74C736.511 156.312 738.979 154.565 741.406 152.672C742.211 152.033 743.007 151.369 743.8 150.688C743.866 150.634 743.932 150.584 743.87 150.472L743.891 150.485Z" fill="#FBFCFC"/>
<path d="M664.006 86.7358L676.548 129.124L400.754 216.263L664.006 86.7358Z" fill="#24AE4D"/>
<path d="M634.804 65.5044L647.407 108.362L400.753 216.263L634.804 65.5044Z" fill="white"/>
<path d="M665.438 127.198L678.244 169.005L400.754 216.263L665.438 127.198Z" fill="black"/>
<path d="M400.878 216.043L398.587 -60.7515H364.063L400.753 216.263" fill="#995095"/>
<path d="M401.396 214.657L436.904 -88.0515L397.534 -122.034L400.753 216.263" fill="#D30470"/>
<path d="M400.753 216.263L365.722 -51.2045L329.684 -54.4836L400.442 211.145L400.753 216.263Z" fill="#0038A5"/>
<path d="M559.752 -30.4173L603.412 -36.7639L400.753 216.263L559.752 -30.4173Z" fill="#D22D00"/>
<path d="M400.753 216.263C401.301 215.229 586.912 -16.2089 586.912 -16.2089L635.281 -27.9849L400.753 216.259V216.263Z" fill="#FD9856"/>
<path d="M400.753 216.263C401.703 214.901 635.484 -28.0596 635.484 -28.0596L660.01 -16.624L400.753 216.267V216.263Z" fill="white"/>
<path d="M754.196 -13.1997L682.504 -9.45981C682.504 -9.45981 402.425 214.756 400.749 216.259C400.749 216.259 755.079 -12.4027 754.192 -13.1997H754.196Z" fill="#A00362"/>
<path d="M400.753 216.263C401.545 215.179 662.956 -19.2681 662.956 -19.2681L700.052 -23.5559L400.753 216.263Z" fill="#D163A2"/>
<path d="M454.266 361.717L428.175 292.597L437.124 290.434L468.562 356.026L454.266 361.717Z" fill="#FD1E26"/>
<path d="M444.015 371.114L419.716 294.286L428.175 292.597L456.697 367.229L444.015 371.114Z" fill="#F9921E"/>
<path d="M431.449 371.114L412.312 295.764L419.717 294.286L443.31 367.835L431.449 371.114Z" fill="#FDFD08"/>
<path d="M416.489 377.307L404.972 297.229L412.311 295.764L432.038 374.423L416.489 377.307Z" fill="#0DBB01"/>
<path d="M401.272 373.505L396.542 298.914L404.972 297.229L415.643 371.305L401.272 373.505Z" fill="#011897"/>
<path d="M375.912 377.029L388.913 300.438L396.543 298.915L401.695 377.531L375.912 377.029Z" fill="#750185"/>
<path d="M442.998 303.057L386.627 314.318L400.753 216.259L442.998 303.057Z" fill="#FCD700"/>
<path d="M440.741 295.22L440.43 294.535L440.737 295.224L440.741 295.22Z" fill="#55CDFC"/>
<path d="M389.241 295.764L387.834 295.195V295.208L389.241 295.776V295.764Z" fill="white"/>
<path d="M444.521 305.925L442.119 301.044L417.675 323.525L386.702 312.509L385.889 317.867L418.754 329.104L444.521 305.925Z" fill="#241F20"/>
<path d="M441.397 299.566L439.729 296.175L416.597 317.946L387.594 306.631L386.897 311.238L386.702 312.508L417.675 323.525L442.119 301.044L441.397 299.566Z" fill="#7C4A21"/>
<path d="M439.393 295.49L437.157 290.945L415.406 311.782L388.428 301.131L387.66 306.199L387.594 306.631L416.596 317.946L439.729 296.175L439.393 295.49Z" fill="#55CDFC"/>
<path d="M389.241 295.776L388.428 301.131L415.406 311.782L437.157 290.945L434.672 285.885L414.232 305.863L389.241 295.776Z" fill="#F7A8B8"/>
<path d="M414.232 305.863L434.672 285.881L432.249 280.95L412.929 299.114L390.07 290.318L389.241 295.764L414.232 305.863Z" fill="white"/>
<path d="M389.241 295.764V295.777L414.232 305.863L389.241 295.764Z" fill="white"/>
<path d="M419.592 279.41C420.438 282.95 416.854 286.674 411.594 287.724C406.329 288.774 401.629 286.707 401.089 283.104C400.55 279.501 404.13 275.778 409.088 274.79C414.045 273.802 418.75 275.869 419.592 279.41Z" stroke="#7B03AE" stroke-width="2" stroke-miterlimit="10"/>
<path d="M400.753 216.263L689.292 531.033L681.7 555.772L400.753 216.263Z" fill="#011897"/>
<path d="M708.773 522.292L701.181 547.022L400.753 216.263L708.773 522.292Z" fill="#0DBB01"/>
<path d="M400.753 216.263L702.04 456.185L744.795 452.761L400.753 216.263Z" fill="#FD1E26"/>
<path d="M400.753 216.263L662.998 569.831L672.091 540.203L400.753 216.263Z" fill="#750185"/>
<path d="M400.753 216.263L707.159 488.985L716.033 460.079L400.753 216.263Z" fill="#F9921E"/>
<path d="M696.705 473.702L687.881 502.434L400.753 216.263L696.705 473.702Z" fill="#FDFD08"/>
<path d="M578.437 384.758C583.423 384.758 587.464 380.714 587.464 375.726C587.464 370.737 583.423 366.694 578.437 366.694C573.451 366.694 569.41 370.737 569.41 375.726C569.41 380.714 573.451 384.758 578.437 384.758Z" fill="white"/>
<path d="M571.613 382.081C569.916 380.258 569.033 377.88 569.12 375.394C569.207 372.903 570.261 370.599 572.086 368.902C573.907 367.204 576.284 366.32 578.769 366.407C581.258 366.494 583.561 367.548 585.258 369.375C586.954 371.197 587.838 373.576 587.751 376.062C587.664 378.552 586.61 380.856 584.785 382.554C582.963 384.251 580.586 385.136 578.101 385.048C575.612 384.961 573.31 383.907 571.613 382.081ZM584.826 369.773C581.545 366.249 576.01 366.05 572.484 369.329C568.962 372.613 568.763 378.15 572.04 381.678C575.322 385.202 580.856 385.401 584.382 382.122C587.904 378.839 588.104 373.302 584.826 369.773Z" fill="black"/>
<path d="M563.212 415.47C569.767 409.156 575.036 400.128 577.401 391.345C578.317 387.937 579.529 382.907 577.065 379.818C574.733 376.896 571.182 379.926 569.332 381.782C566.017 385.098 563.602 389.1 561.503 393.267C559.242 397.766 557.122 402.461 555.811 407.334C555.04 410.198 553.795 414.063 554.687 416.993C555.899 420.966 561.619 417.006 563.212 415.47V415.47Z" fill="white"/>
<path d="M554.488 417.055C553.662 414.345 554.612 410.896 555.38 408.127C555.463 407.832 555.538 407.554 555.612 407.284C557.031 402.021 559.408 396.978 561.317 393.176C563.885 388.066 566.311 384.509 569.182 381.636C570.082 380.74 570.896 380.047 571.676 379.528C572.804 378.772 573.841 378.39 574.754 378.403C575.592 378.411 576.334 378.743 576.957 379.391C577.048 379.486 577.135 379.586 577.222 379.694C577.82 380.445 578.243 381.354 578.483 382.4C578.691 383.305 578.765 384.339 578.703 385.476C578.6 387.46 578.11 389.498 577.596 391.403C575.21 400.274 569.883 409.327 563.349 415.623C562.565 416.379 561.034 417.512 559.52 418.222C557.537 419.148 556.019 419.156 555.139 418.238C554.853 417.94 554.633 417.545 554.488 417.06V417.055ZM574.75 378.81C573.331 378.797 571.555 379.843 569.473 381.927C566.635 384.766 564.233 388.29 561.682 393.358C559.777 397.144 557.413 402.158 556.006 407.388C555.932 407.662 555.857 407.94 555.774 408.235C555.023 410.954 554.09 414.341 554.882 416.935C555.011 417.354 555.197 417.695 555.438 417.948C556.384 418.932 558.085 418.434 559.35 417.844C560.823 417.155 562.312 416.055 563.067 415.325C569.547 409.078 574.833 400.095 577.201 391.295C577.708 389.411 578.193 387.402 578.293 385.455C578.417 383.081 577.961 381.279 576.903 379.951C576.824 379.852 576.745 379.76 576.662 379.677C576.119 379.113 575.476 378.822 574.754 378.814L574.75 378.81Z" fill="black"/>
<path d="M559.272 397.916C557.894 400.975 556.675 404.113 555.807 407.334C555.036 410.198 553.791 414.063 554.683 416.993C555.895 420.966 561.616 417.006 563.209 415.47C565.864 412.909 568.311 409.908 570.435 406.653C568.564 406.106 566.727 404.205 566.42 402.623C563.441 403.528 560.404 401.125 559.491 398.564C559.417 398.36 559.342 398.136 559.267 397.916H559.272Z" fill="black"/>
<path d="M559.536 412.12C559.462 412.037 559.462 411.908 559.545 411.83C562.561 408.936 564.589 405.512 566.253 402.528C566.307 402.428 566.436 402.391 566.535 402.449C566.635 402.503 566.672 402.631 566.614 402.731C564.934 405.74 562.888 409.194 559.831 412.128C559.748 412.207 559.619 412.203 559.541 412.124L559.536 412.12Z" fill="white"/>
<path d="M575.944 379.109L576.002 378.806L576.069 378.457C576.094 378.32 576.127 378.171 576.164 378.004L576.28 377.469C576.322 377.278 576.372 377.079 576.417 376.875L576.492 376.56C576.517 376.452 576.546 376.348 576.575 376.24L576.745 375.589C576.803 375.369 576.857 375.153 576.911 374.933C576.936 374.825 576.965 374.717 576.99 374.613C577.019 374.509 577.048 374.406 577.081 374.302C577.147 374.099 577.218 373.908 577.293 373.729C577.33 373.638 577.371 373.555 577.405 373.468C577.442 373.385 577.479 373.302 577.517 373.227C577.591 373.073 577.662 372.932 577.732 372.812C577.803 372.691 577.865 372.588 577.919 372.5C577.973 372.413 578.019 372.351 578.048 372.305C578.081 372.26 578.097 372.239 578.097 372.239C578.106 372.227 578.126 372.222 578.139 372.235C578.147 372.243 578.151 372.251 578.151 372.26C578.151 372.26 578.151 372.289 578.143 372.343C578.139 372.397 578.131 372.476 578.114 372.575C578.102 372.675 578.081 372.795 578.052 372.928C578.023 373.065 577.998 373.219 577.961 373.38C577.944 373.463 577.923 373.546 577.898 373.638C577.873 373.725 577.853 373.816 577.828 373.908C577.782 374.094 577.724 374.289 577.658 374.489C577.591 374.688 577.508 374.891 577.43 375.095C577.347 375.302 577.264 375.51 577.189 375.722C577.04 376.145 576.89 376.568 576.749 376.967C576.679 377.166 576.612 377.357 576.546 377.54L576.368 378.054C576.314 378.212 576.26 378.357 576.218 378.49L576.102 378.826L576.002 379.121C576.002 379.121 575.982 379.146 575.965 379.138C575.953 379.133 575.944 379.117 575.944 379.104V379.109Z" fill="black"/>
<path d="M566.287 402.772C566.229 402.71 566.212 402.611 566.258 402.532C566.963 401.27 567.639 399.987 568.295 398.75C568.734 397.92 569.145 397.14 569.568 396.359C572.75 390.486 574.92 384.476 575.837 378.98C575.858 378.868 575.961 378.793 576.073 378.81C576.185 378.83 576.26 378.934 576.243 379.046C575.762 381.944 574.937 384.978 573.8 388.058C572.759 390.876 571.46 393.732 569.929 396.55C569.506 397.327 569.095 398.111 568.656 398.937C568 400.178 567.32 401.461 566.614 402.727C566.561 402.826 566.432 402.864 566.332 402.806C566.312 402.793 566.295 402.781 566.283 402.764L566.287 402.772Z" fill="black"/>
<path d="M537.549 388.959C544.208 382.757 553.505 377.98 562.399 376.099C565.851 375.369 570.937 374.435 573.887 377.066C576.675 379.553 573.455 382.936 571.505 384.687C568.016 387.817 563.893 390.013 559.616 391.881C555.002 393.894 550.202 395.753 545.266 396.799C542.366 397.414 538.441 398.447 535.562 397.393C531.662 395.969 535.927 390.47 537.549 388.959V388.959Z" fill="white"/>
<path d="M534.351 396.87C533.484 395.94 533.571 394.425 534.608 392.491C535.396 391.017 536.612 389.548 537.408 388.805C544.046 382.62 553.372 377.797 562.354 375.896C564.283 375.489 566.34 375.111 568.327 375.116C569.464 375.116 570.493 375.248 571.385 375.502C572.418 375.796 573.302 376.269 574.019 376.909C574.123 377 574.218 377.095 574.31 377.191C574.924 377.851 575.214 378.606 575.177 379.445C575.135 380.358 574.7 381.371 573.882 382.458C573.318 383.21 572.584 383.986 571.642 384.833C568.622 387.543 564.938 389.772 559.698 392.063C555.799 393.765 550.638 395.866 545.307 396.995C545.029 397.053 544.751 397.115 544.452 397.181C541.644 397.796 538.151 398.555 535.491 397.584C535.019 397.41 534.633 397.169 534.351 396.866V396.87ZM574.007 377.473C573.928 377.386 573.837 377.303 573.745 377.216C572.476 376.083 570.705 375.531 568.327 375.526C566.378 375.526 564.345 375.896 562.441 376.299C553.529 378.183 544.274 382.973 537.69 389.108C536.919 389.826 535.74 391.254 534.973 392.686C534.317 393.915 533.728 395.587 534.653 396.588C534.89 396.841 535.218 397.049 535.632 397.198C538.18 398.128 541.606 397.381 544.361 396.779C544.66 396.712 544.942 396.65 545.22 396.592C550.513 395.471 555.649 393.383 559.528 391.686C564.726 389.415 568.377 387.207 571.364 384.525C573.555 382.558 574.7 380.844 574.762 379.424C574.795 378.702 574.542 378.042 574.007 377.469V377.473Z" fill="black"/>
<path d="M554.853 393.852C551.725 395.064 548.526 396.106 545.266 396.799C542.366 397.414 538.441 398.447 535.562 397.393C531.662 395.969 535.927 390.469 537.549 388.959C540.25 386.443 543.378 384.164 546.743 382.218C547.186 384.114 548.983 386.053 550.547 386.451C549.481 389.378 551.713 392.545 554.222 393.595C554.422 393.678 554.641 393.769 554.857 393.852H554.853Z" fill="black"/>
<path d="M540.69 392.81C540.611 392.727 540.615 392.595 540.698 392.52C543.793 389.627 547.353 387.767 550.447 386.256C550.551 386.207 550.676 386.248 550.725 386.352C550.775 386.456 550.734 386.58 550.63 386.63C547.564 388.128 544.034 389.971 540.98 392.827C540.897 392.906 540.765 392.902 540.69 392.819V392.81Z" fill="white"/>
<path d="M574.518 378.162L574.816 378.079L575.161 377.984C575.293 377.946 575.443 377.905 575.604 377.855L576.127 377.705L576.712 377.535C577.115 377.415 577.546 377.29 577.977 377.162C578.193 377.095 578.405 377.025 578.616 376.954C578.828 376.884 579.031 376.817 579.235 376.759C579.438 376.701 579.633 376.655 579.824 376.618C579.919 376.597 580.01 376.581 580.097 376.56C580.189 376.543 580.272 376.527 580.355 376.514C580.521 376.485 580.678 376.464 580.811 376.448C580.948 376.427 581.068 376.415 581.168 376.406C581.267 376.398 581.346 376.394 581.4 376.39C581.454 376.39 581.483 376.39 581.483 376.39C581.483 376.39 581.512 376.402 581.512 376.419C581.512 376.431 581.508 376.439 581.5 376.444C581.5 376.444 581.475 376.46 581.429 376.489C581.383 376.518 581.313 376.56 581.226 376.61C581.139 376.659 581.031 376.718 580.906 376.78C580.782 376.842 580.637 376.904 580.479 376.971C580.4 377.004 580.317 377.037 580.234 377.07C580.147 377.104 580.06 377.137 579.969 377.17C579.786 377.236 579.591 377.295 579.384 377.353C579.28 377.378 579.176 377.407 579.069 377.427C578.961 377.448 578.853 377.469 578.745 377.49C578.525 377.531 578.305 377.573 578.081 377.618L577.422 377.751C577.314 377.772 577.206 377.797 577.098 377.813L576.783 377.871C576.575 377.909 576.372 377.946 576.181 377.979L575.642 378.067C575.476 378.091 575.322 378.116 575.185 378.137L574.833 378.187L574.526 378.228C574.526 378.228 574.497 378.22 574.493 378.204C574.493 378.187 574.501 378.174 574.513 378.17L574.518 378.162Z" fill="black"/>
<path d="M575.538 370.458L575.521 370.467C575.521 370.467 575.497 370.483 575.476 370.496C575.434 370.52 575.372 370.554 575.297 370.599C575.26 370.624 575.219 370.645 575.177 370.67C575.136 370.699 575.086 370.728 575.036 370.757C574.936 370.819 574.829 370.894 574.708 370.973C574.65 371.014 574.592 371.056 574.53 371.102C574.472 371.151 574.405 371.193 574.343 371.247C574.314 371.272 574.281 371.297 574.248 371.322C574.215 371.347 574.186 371.376 574.152 371.4L574.107 371.442C574.107 371.442 574.074 371.471 574.057 371.483L573.962 371.571C573.928 371.6 573.899 371.633 573.866 371.662C573.833 371.691 573.804 371.72 573.771 371.753L573.679 371.849L573.588 371.944C573.468 372.077 573.348 372.214 573.24 372.359C573.128 372.5 573.024 372.65 572.929 372.799L572.891 372.857C572.891 372.857 572.87 372.895 572.858 372.916C572.837 372.953 572.812 372.99 572.792 373.028C572.75 373.102 572.709 373.181 572.667 373.256C572.626 373.331 572.597 373.41 572.555 373.48C572.539 373.517 572.522 373.555 572.505 373.592L572.48 373.646L572.46 373.7L572.418 373.808C572.406 373.845 572.393 373.879 572.381 373.916C572.352 373.986 572.335 374.057 572.315 374.123C572.294 374.19 572.281 374.256 572.261 374.319C572.244 374.381 572.232 374.443 572.219 374.497C572.207 374.555 572.198 374.609 572.19 374.659C572.186 374.684 572.182 374.709 572.178 374.734C572.178 374.759 572.169 374.779 572.169 374.8C572.157 374.887 572.149 374.954 572.14 374.999C572.14 375.024 572.136 375.041 572.132 375.053V375.078C572.132 375.078 572.115 375.095 572.107 375.095C572.099 375.095 572.091 375.086 572.091 375.078L572.078 375.008C572.07 374.962 572.057 374.895 572.053 374.808V374.742C572.045 374.717 572.041 374.692 572.041 374.667C572.041 374.613 572.041 374.559 572.037 374.497C572.037 374.435 572.037 374.372 572.041 374.306L572.049 374.202C572.049 374.165 572.053 374.132 572.062 374.094C572.074 374.02 572.082 373.945 572.099 373.866L572.124 373.746L572.157 373.625L572.174 373.563L572.194 373.501C572.207 373.459 572.219 373.418 572.236 373.372C572.269 373.289 572.294 373.202 572.335 373.115C572.368 373.028 572.41 372.945 572.451 372.857C572.472 372.816 572.497 372.774 572.518 372.729L572.551 372.667L572.588 372.604C572.684 372.434 572.8 372.272 572.92 372.114C573.041 371.957 573.177 371.811 573.314 371.67C573.451 371.529 573.596 371.405 573.742 371.288C573.816 371.23 573.887 371.176 573.962 371.127C574.032 371.073 574.107 371.027 574.181 370.981C574.219 370.956 574.252 370.936 574.289 370.915L574.393 370.853C574.464 370.815 574.53 370.778 574.6 370.745L574.7 370.699C574.733 370.682 574.762 370.67 574.795 370.657C574.858 370.633 574.916 370.608 574.974 370.587L575.131 370.529L575.268 370.487C575.31 370.475 575.347 370.462 575.38 370.454L575.463 370.433L575.534 370.417C575.534 370.417 575.555 370.417 575.559 370.433C575.559 370.442 575.559 370.45 575.55 370.454H575.546L575.538 370.458Z" fill="black"/>
<path d="M579.599 382.591C579.69 382.558 579.777 382.529 579.869 382.5L580.13 382.404C580.172 382.388 580.217 382.367 580.259 382.35L580.387 382.3C580.429 382.284 580.47 382.263 580.512 382.242L580.636 382.188C580.678 382.172 580.719 382.147 580.761 382.126L580.881 382.068C580.964 382.026 581.039 381.981 581.122 381.939C581.2 381.898 581.275 381.848 581.354 381.802C581.433 381.757 581.503 381.707 581.582 381.657C581.619 381.632 581.657 381.607 581.694 381.582L581.802 381.508C581.873 381.458 581.943 381.4 582.014 381.346C582.084 381.292 582.15 381.234 582.221 381.18C582.287 381.122 582.354 381.059 582.42 381.005C582.487 380.947 582.549 380.885 582.611 380.823C582.644 380.794 582.673 380.76 582.702 380.727L582.794 380.632C582.856 380.57 582.91 380.499 582.972 380.437L583.142 380.233C583.196 380.163 583.25 380.092 583.304 380.026C583.329 379.988 583.354 379.955 583.378 379.918L583.457 379.81C583.507 379.735 583.553 379.661 583.602 379.59C583.648 379.515 583.69 379.436 583.739 379.362L583.864 379.129C583.901 379.05 583.943 378.972 583.98 378.893L584.088 378.652C584.121 378.569 584.154 378.486 584.187 378.407L584.275 378.158L584.353 377.905L584.42 377.647C584.44 377.56 584.457 377.473 584.478 377.386L584.528 377.12C584.54 377.033 584.552 376.942 584.565 376.85C584.573 376.759 584.582 376.672 584.59 376.581C584.594 376.489 584.598 376.398 584.606 376.307V376.29C584.606 376.29 584.606 376.269 584.611 376.253C584.611 376.236 584.611 376.219 584.611 376.203V376.095C584.611 376.024 584.606 375.95 584.602 375.875V375.763L584.594 375.651V375.539C584.594 375.539 584.59 375.501 584.59 375.481V375.443V375.435C584.59 375.435 584.59 375.435 584.59 375.423C584.59 375.423 584.602 375.406 584.615 375.41C584.623 375.41 584.623 375.41 584.623 375.414C584.627 375.418 584.623 375.418 584.627 375.418C584.627 375.423 584.627 375.423 584.627 375.427V375.439C584.627 375.439 584.619 375.464 584.611 375.464C584.602 375.464 584.59 375.46 584.59 375.452V375.443C584.59 375.443 584.59 375.443 584.59 375.447C584.59 375.447 584.59 375.447 584.598 375.452C584.611 375.456 584.623 375.439 584.623 375.443C584.623 375.435 584.623 375.435 584.623 375.435V375.468L584.64 375.522L584.66 375.63L584.706 375.846C584.718 375.916 584.735 375.991 584.747 376.062C584.752 376.099 584.76 376.136 584.764 376.17C584.768 376.207 584.772 376.244 584.772 376.282L584.793 376.56C584.793 376.655 584.793 376.747 584.797 376.842L584.785 377.124C584.776 377.22 584.768 377.311 584.76 377.407C584.747 377.502 584.735 377.593 584.723 377.685C584.706 377.776 584.689 377.871 584.669 377.963L584.602 378.237L584.523 378.507L584.432 378.772L584.328 379.034L584.212 379.291L584.084 379.544L583.943 379.789C583.893 379.868 583.843 379.947 583.789 380.026C583.735 380.105 583.681 380.179 583.627 380.258C583.569 380.333 583.511 380.408 583.453 380.482C583.391 380.553 583.333 380.628 583.271 380.698C583.204 380.769 583.142 380.835 583.076 380.906C583.009 380.972 582.943 381.039 582.872 381.101C582.802 381.163 582.731 381.225 582.661 381.288C582.586 381.346 582.516 381.408 582.441 381.466C582.366 381.52 582.292 381.578 582.213 381.632C582.134 381.682 582.055 381.74 581.976 381.786C581.893 381.836 581.814 381.885 581.731 381.931C581.648 381.977 581.566 382.022 581.483 382.064C581.395 382.105 581.312 382.147 581.225 382.184C581.138 382.222 581.051 382.259 580.964 382.292C580.877 382.325 580.786 382.359 580.698 382.388C580.607 382.413 580.52 382.442 580.429 382.466C580.338 382.487 580.246 382.512 580.155 382.533C580.064 382.549 579.968 382.57 579.877 382.587L579.599 382.628C579.599 382.628 579.578 382.624 579.574 382.612C579.574 382.603 579.578 382.591 579.587 382.591H579.599Z" fill="black"/>
<path d="M579.379 371.517H579.392C579.392 371.517 579.412 371.508 579.429 371.508L579.491 371.5C579.491 371.5 579.516 371.5 579.533 371.496H579.578C579.612 371.496 579.649 371.492 579.686 371.492C579.724 371.492 579.765 371.492 579.811 371.496C579.856 371.496 579.902 371.508 579.952 371.512C579.977 371.512 580.002 371.521 580.031 371.525L580.109 371.542C580.163 371.554 580.217 371.571 580.28 371.587C580.309 371.595 580.338 371.608 580.367 371.616C580.396 371.629 580.425 371.637 580.454 371.649C580.574 371.699 580.694 371.757 580.815 371.828C580.877 371.865 580.935 371.903 580.993 371.944L581.08 372.006L581.163 372.077C581.275 372.172 581.383 372.272 581.483 372.384C581.582 372.496 581.673 372.612 581.752 372.733C581.794 372.791 581.831 372.857 581.864 372.915C581.898 372.978 581.935 373.04 581.96 373.102C582.022 373.227 582.068 373.351 582.109 373.472C582.146 373.592 582.175 373.708 582.196 373.816C582.217 373.924 582.225 374.024 582.229 374.115C582.229 374.206 582.229 374.281 582.229 374.347C582.229 374.41 582.217 374.464 582.213 374.497C582.213 374.513 582.209 374.526 582.205 374.534V374.555C582.205 374.555 582.188 374.572 582.175 374.572C582.167 374.572 582.163 374.563 582.159 374.555L582.146 374.509C582.138 374.48 582.13 374.435 582.113 374.377C582.084 374.26 582.034 374.098 581.956 373.912C581.935 373.866 581.918 373.816 581.893 373.766C581.873 373.717 581.848 373.667 581.823 373.613C581.769 373.509 581.711 373.401 581.644 373.293C581.611 373.239 581.578 373.185 581.541 373.131C581.503 373.077 581.466 373.023 581.425 372.969C581.346 372.861 581.259 372.758 581.172 372.658C581.084 372.558 580.985 372.463 580.889 372.372C580.794 372.28 580.69 372.201 580.587 372.123C580.537 372.085 580.483 372.048 580.433 372.015C580.383 371.981 580.333 371.948 580.284 371.919C580.234 371.89 580.184 371.861 580.139 371.836C580.089 371.811 580.043 371.786 579.997 371.766C579.906 371.724 579.819 371.687 579.744 371.658L579.637 371.62L579.541 371.591C579.487 371.575 579.437 371.566 579.408 371.554L579.363 371.542C579.363 371.542 579.346 371.529 579.35 371.517C579.35 371.508 579.359 371.504 579.367 371.5H579.375L579.379 371.517Z" fill="black"/>
<path d="M575.488 373.164V373.177C575.488 373.177 575.475 373.194 575.471 373.206L575.417 373.318C575.405 373.343 575.392 373.368 575.38 373.393C575.367 373.422 575.351 373.451 575.334 373.48C575.318 373.509 575.301 373.542 575.284 373.575C575.276 373.592 575.268 373.609 575.26 373.625L575.235 373.679C575.235 373.679 575.214 373.717 575.206 373.733L575.177 373.791C575.156 373.829 575.135 373.87 575.114 373.912L574.986 374.165L574.857 374.43C574.816 374.522 574.77 374.613 574.728 374.704C574.687 374.796 574.646 374.887 574.604 374.978L574.546 375.115C574.538 375.136 574.529 375.161 574.521 375.182C574.513 375.203 574.5 375.227 574.492 375.248C574.459 375.335 574.426 375.423 574.397 375.501C574.384 375.543 574.368 375.584 574.355 375.622C574.347 375.643 574.343 375.659 574.334 375.68C574.33 375.701 574.322 375.717 574.318 375.738C574.305 375.775 574.297 375.809 574.289 375.846L574.264 375.945C574.251 376.008 574.239 376.066 574.231 376.116C574.231 376.141 574.226 376.161 574.222 376.182C574.222 376.203 574.222 376.219 574.218 376.232C574.218 376.244 574.218 376.257 574.218 376.265V376.286C574.218 376.286 574.206 376.302 574.193 376.302C574.185 376.302 574.181 376.298 574.177 376.29L574.16 376.253C574.16 376.253 574.148 376.224 574.143 376.207L574.123 376.145C574.11 376.095 574.094 376.037 574.085 375.97C574.081 375.937 574.077 375.9 574.073 375.862C574.073 375.825 574.069 375.784 574.069 375.742C574.069 375.655 574.073 375.564 574.085 375.468C574.098 375.373 574.114 375.269 574.139 375.165C574.164 375.061 574.193 374.958 574.231 374.854C574.268 374.75 574.309 374.642 574.355 374.543C574.401 374.439 574.455 374.339 574.509 374.244C574.563 374.148 574.621 374.057 574.683 373.966C574.712 373.924 574.741 373.878 574.774 373.837C574.807 373.795 574.836 373.758 574.865 373.721C574.894 373.683 574.928 373.646 574.957 373.613C574.986 373.58 575.015 373.546 575.044 373.517C575.073 373.488 575.102 373.459 575.127 373.43C575.156 373.405 575.181 373.376 575.206 373.355C575.23 373.33 575.255 373.31 575.276 373.293L575.338 373.239C575.376 373.206 575.409 373.185 575.43 373.169L575.463 373.144C575.463 373.144 575.484 373.14 575.492 373.144C575.496 373.148 575.496 373.156 575.492 373.164V373.173L575.488 373.164Z" fill="black"/>
<path d="M585.797 374.9V374.887C585.797 374.887 585.789 374.866 585.785 374.854L585.772 374.796C585.768 374.775 585.764 374.746 585.752 374.721C585.743 374.696 585.735 374.667 585.727 374.634C585.719 374.605 585.706 374.568 585.694 374.534C585.689 374.518 585.681 374.497 585.677 374.48L585.656 374.422C585.644 374.385 585.631 374.343 585.611 374.306C585.594 374.264 585.582 374.223 585.561 374.181C585.553 374.161 585.544 374.14 585.536 374.115C585.528 374.094 585.515 374.069 585.507 374.049C585.494 374.028 585.486 374.003 585.478 373.982L585.445 373.916C585.424 373.87 585.399 373.824 585.374 373.775C585.362 373.75 585.349 373.729 585.337 373.704L585.299 373.634L585.258 373.563C585.246 373.538 585.233 373.513 585.217 373.488L585.175 373.414C585.163 373.389 585.146 373.364 585.134 373.339C585.104 373.289 585.075 373.239 585.046 373.189C584.988 373.09 584.926 372.99 584.868 372.895C584.839 372.845 584.806 372.799 584.777 372.749C584.76 372.725 584.748 372.704 584.731 372.679C584.715 372.654 584.702 372.629 584.685 372.608L584.515 372.334L584.362 372.081L584.291 371.965C584.271 371.928 584.25 371.894 584.229 371.861L584.13 371.687C584.101 371.637 584.08 371.6 584.063 371.571C584.055 371.558 584.051 371.546 584.047 371.542V371.529L584.034 371.521C584.034 371.521 584.034 371.5 584.042 371.496C584.051 371.496 584.059 371.496 584.063 371.496L584.101 371.521C584.125 371.537 584.159 371.562 584.204 371.595C584.246 371.629 584.3 371.67 584.358 371.72C584.416 371.77 584.478 371.828 584.544 371.894C584.611 371.961 584.681 372.031 584.756 372.11C584.831 372.189 584.905 372.276 584.98 372.368C585.055 372.459 585.129 372.554 585.2 372.658C585.27 372.758 585.341 372.866 585.407 372.969C585.441 373.023 585.47 373.077 585.499 373.131C585.515 373.16 585.528 373.185 585.544 373.214L585.586 373.297C585.615 373.351 585.636 373.409 585.66 373.463C585.681 373.521 585.706 373.575 585.727 373.629C585.748 373.683 585.768 373.741 585.781 373.795L585.806 373.878C585.814 373.903 585.818 373.932 585.826 373.957C585.831 373.982 585.839 374.011 585.843 374.036L585.855 374.111C585.864 374.161 585.872 374.211 585.876 374.256C585.884 374.302 585.884 374.347 585.884 374.393V374.518C585.884 374.597 585.876 374.663 585.872 374.717C585.872 374.746 585.864 374.767 585.86 374.788L585.851 374.841L585.843 374.887C585.843 374.887 585.831 374.904 585.822 374.904C585.814 374.904 585.81 374.895 585.806 374.891V374.883L585.797 374.9Z" fill="black"/>
<path d="M575.712 376.867C576.708 380.375 574.58 378.498 574.53 376.801C574.476 374.999 575.459 375.958 575.849 377.174" fill="black"/>
<path d="M550.385 386.58C550.385 386.58 550.36 386.547 550.352 386.53C550.302 386.426 550.343 386.302 550.447 386.252C551.75 385.617 553.065 385.007 554.338 384.417C555.189 384.027 555.989 383.654 556.79 383.276C559.686 381.902 562.606 380.761 565.477 379.872C568.618 378.905 571.688 378.249 574.604 377.926C574.716 377.913 574.82 377.996 574.832 378.108C574.845 378.22 574.762 378.324 574.65 378.336C569.116 378.951 563.001 380.79 556.964 383.65C556.164 384.031 555.359 384.401 554.508 384.791C553.235 385.376 551.924 385.986 550.625 386.622C550.542 386.663 550.443 386.642 550.385 386.576V386.58Z" fill="black"/>
<path d="M575.986 377.639C579.624 377.871 577.115 379.366 575.509 378.818C573.8 378.233 575.048 377.577 576.326 377.614" fill="black"/>
<path d="M400.877 216.275L720.75 371.795L736.241 355.66L400.877 216.275Z" fill="#2A29AB"/>
<path d="M770.703 351.19L782.979 330.34L400.877 216.275L770.703 351.19Z" fill="#FF0099"/>
<path d="M400.877 216.275L693.693 384.293L706.23 364.493L400.877 216.275Z" fill="#7F7DE1"/>
<path d="M400.877 216.275L744.799 359.11L756.602 340.472L400.877 216.275Z" fill="black"/>
<path d="M400.877 216.275L446.943 225.743L779.042 305.045L766.256 325.235L400.877 216.275Z" fill="#FF7EB0"/>
<path d="M400.753 216.263L567.36 175.07L567.713 192.234L400.753 216.263Z" fill="#74C892"/>
<path d="M400.754 216.263L400.779 216.259L562.445 210.062L561.827 219.895L400.754 216.263Z" fill="#E493B3"/>
<path d="M400.754 216.263L554.513 193.931L554.027 203.366L400.754 216.263Z" fill="#B3E2C9"/>
<path d="M547.858 203.885L547.211 212.062L400.754 216.263L547.858 203.885Z" fill="white"/>
<path d="M545.568 231.899L547.875 219.368L400.754 216.263L545.568 231.899Z" fill="#D84370"/>
<path d="M400.753 216.263L316.889 396.945L274.723 391.627L400.753 216.263Z" fill="#FD228A"/>
<path d="M400.752 216.263L380.719 406.757L345.875 404.341L400.752 216.263Z" fill="#22AFFD"/>
<path d="M400.753 216.263L339.395 425.424L299.341 422.46L400.753 216.263Z" fill="#FCD700"/>
<path d="M400.753 216.263L88.7881 239.736L89.0909 258.659L400.753 216.263Z" fill="#7CDEF5"/>
<path d="M400.753 216.263L93.1318 280.937L94.783 302.708L400.753 216.263Z" fill="#FDF48D"/>
<path d="M400.753 216.263L100.98 257.041L99.3418 279.58L400.753 216.263Z" fill="#40CBF6"/>
<path d="M400.753 216.263L107.527 218.795L106.702 239.229L400.753 216.263Z" fill="#CDCBCD"/>
<path d="M400.753 216.263L99.6365 200.016L96.2388 219.094L400.753 216.263Z" fill="#F0A1B8"/>
<path d="M400.753 216.263L113.327 176.261L105.797 200.668L400.753 216.263Z" fill="#F77592"/>
<path d="M400.754 216.263L212.603 290.048L214.673 301.314L400.754 216.263Z" fill="#65DA69"/>
<path d="M400.753 216.263L208.948 267.223L210.848 279.787L400.753 216.263Z" fill="#FF95C6"/>
<path d="M400.754 216.263L231.496 319.494L227.057 307.183L400.754 216.263Z" fill="#FF95C6"/>
<path d="M400.754 216.263L219.971 298.765L222.004 309.827L400.754 216.263Z" fill="#9780FE"/>
<path d="M400.754 216.263L219.49 276.948L222.095 286.325L400.754 216.263Z" fill="#9780FE"/>
<path d="M400.753 216.263L462.285 334.433L447.956 335.234L400.753 216.263Z" fill="black"/>
<path d="M400.753 216.263L477.793 336.426L464.687 339.929L400.753 216.263Z" fill="#9A5AD0"/>
<path d="M400.753 216.263L477.681 312.562L469.699 324.579L400.753 216.263Z" fill="white"/>
<path d="M400.753 216.263L491.259 315.721L481.489 327.028L400.753 216.263Z" fill="#FDF332"/>
<path d="M492.334 -108.37L535.284 -81.398L400.754 216.263L492.334 -108.37Z" fill="white"/>
<path d="M437.315 -111.969L400.753 216.263L481.506 -68.1484L437.315 -111.969Z" fill="#B47DDA"/>
<path d="M400.754 216.263L577.65 -57.1986L532.745 -76.5291L400.754 216.263Z" fill="#4A8022"/>
<path d="M292.791 329.772L308.41 351.323L400.754 216.263" fill="white"/>
<path d="M400.753 216.263L311.044 336.206L323.631 353.577L400.753 216.263Z" fill="#FFF346"/>
<path d="M400.753 216.263L284.095 308.337L298.192 327.788L400.753 216.263Z" fill="#FF9719"/>
<path d="M495.544 69.6968L523.485 128.85L400.803 216.093L495.544 69.6968Z" fill="#FCD700"/>
<path d="M481.223 146.11C489.128 146.11 495.536 139.698 495.536 131.789C495.536 123.88 489.128 117.469 481.223 117.469C473.319 117.469 466.911 123.88 466.911 131.789C466.911 139.698 473.319 146.11 481.223 146.11Z" stroke="#7B03AE" stroke-width="4" stroke-miterlimit="10"/>
<path d="M255.744 25.3367L258.353 28.5619L400.753 216.263L268.82 18.1973L255.744 25.3367Z" fill="black"/>
<path d="M400.753 216.263L224.907 41.1929L210.682 49.3825L400.753 216.263Z" fill="white"/>
<path d="M234.337 37.3328L400.753 216.263L245.484 28.3628L234.337 37.3328Z" fill="white"/>
<path d="M196.211 76.6493L400.753 216.263L209.068 64.0225L196.211 76.6493Z" fill="black"/>
<path d="M214.98 53.1555L400.753 216.263L203.857 60.0044L214.98 53.1555Z" fill="#BABABA"/>
<path d="M230.271 49.0712L400.753 216.263L243.68 42.9031L230.271 49.0712Z" fill="#B5F183"/>
<path d="M249.6 33.2356L400.712 216.204L258.353 28.5618L249.6 33.2356Z" fill="#BABABA"/>
<path d="M257.553 224.054L400.754 216.263L258.826 213.536L257.553 224.054Z" fill="#F7A8B8"/>
<path d="M247.837 233.734L400.754 216.263L247.696 223.855L247.837 233.734Z" fill="#55CDFC"/>
<path d="M250.504 213.465L400.754 216.263L252.176 200.863L250.504 213.465Z" fill="white"/>
<path d="M261.955 190.632L249.077 188.884L245.514 200.411L400.754 216.263L261.345 192.761L261.955 190.632Z" fill="#F7A8B8"/>
<path d="M264.651 182.641L261.955 190.631L261.345 192.761L400.754 216.263L264.651 182.641Z" fill="#55CDFC"/>
<path d="M400.754 216.263L399.322 34.4603L375.891 28.5288L400.501 214.81L400.754 216.263Z" fill="#058D70"/>
<path d="M400.754 216.263L335.102 26.7856L320.396 27.8234L400.754 216.263Z" fill="#7BADE2"/>
<path d="M345.37 24.7682L366.03 23.7305L400.754 216.263L345.37 24.7682Z" fill="#98E8C1"/>
<path d="M400.753 216.263L312.55 29.7991L297.155 45.2028L400.753 216.263Z" fill="#3D1A78"/>
<path d="M310.061 43.0569L324 36.0669L400.753 216.263L310.061 43.0569Z" fill="#5148CC"/>
<path d="M338.881 45.8961L356.745 44.8875L400.753 216.263L338.881 45.8961Z" fill="#F4F0FF"/>
<path d="M360.682 37.6026L379.79 36.6396L400.753 216.263L360.682 37.6026Z" fill="#27CEAA"/>
<path d="M400.678 216.076L225.375 172.982L233.424 157.246L400.678 216.076Z" fill="#8C26AE"/>
<path d="M400.678 216.076L400.653 216.068L246.89 143.644L252.246 135.027L400.678 216.076Z" fill="#C12678"/>
<path d="M400.678 216.076L246.222 162.148L251.267 153.826L400.678 216.076Z" fill="#A928AD"/>
<path d="M257.112 156.362L261.684 149.26L400.678 216.076L257.112 156.362Z" fill="#C0269A"/>
<path d="M276.768 131.569L264.646 142.311L400.678 216.076L276.768 131.569Z" fill="#C62253"/>
<path d="M400.708 216.263L419.696 46.199L452.382 46.9212L400.708 216.263Z" fill="white"/>
<path d="M400.708 216.263L448.848 60.2246L461.426 66.1022L400.708 216.263Z" fill="#349934"/>
<path d="M464.417 56.9331L486.786 83.3283L400.708 216.263L464.417 56.9331Z" fill="#D2D2D2"/>
<path d="M410.336 119.673L437.717 111.803L451.246 138.244L400.708 216.263L410.336 119.673Z" fill="black"/>
<path d="M400.757 216.271L698.431 285.735L684.035 314.994L400.757 216.271Z" fill="#E7516A"/>
<path d="M400.757 216.271L400.803 216.288L661.135 338.833L652.12 353.85L400.757 216.271Z" fill="#A3C95A"/>
<path d="M400.757 216.271L661.807 306.867L653.319 321.37L400.757 216.271Z" fill="#D86D65"/>
<path d="M643.155 317.14L635.451 329.522L400.757 216.271L643.155 317.14Z" fill="#B9A45B"/>
<path d="M613.899 362.779L630.522 341.601L400.757 216.271L613.899 362.779Z" fill="#92E454"/>
<path d="M400.753 216.263L592.468 236.523L586.278 254.787L400.753 216.263Z" fill="#D29023"/>
<path d="M400.753 216.263L400.782 216.267L573.894 271.598L569.485 281.747L400.753 216.263Z" fill="#7AADDA"/>
<path d="M400.753 216.263L571.687 251.524L567.564 261.304L400.753 216.263Z" fill="#E5CC32"/>
<path d="M560.851 259.494L557.043 267.883L400.753 216.263L560.851 259.494Z" fill="white"/>
<path d="M547.862 287.811L554.948 275.852L400.753 216.263L547.862 287.811Z" fill="#273855"/>
<path d="M400.757 216.263L590.879 306.079L577.943 322.657L400.757 216.263Z" fill="#E7F9E3"/>
<path d="M400.757 216.263L400.786 216.28L559.154 335.516L548.833 346.558L400.757 216.263Z" fill="#FAE1C2"/>
<path d="M400.757 216.263L564.095 314.052L556.333 322.641L400.757 216.263Z" fill="#FDFDFB"/>
<path d="M550.073 318.361L543.137 325.629L400.757 216.263L550.073 318.361Z" fill="#DDEFF7"/>
</g>
<defs>
<clipPath id="clip0_21_4353">
<rect width="800" height="449" fill="white"/>
</clipPath>
<clipPath id="clip1_21_4353">
<rect width="561.681" height="258.203" fill="white" transform="matrix(0.914182 0.405304 -0.404936 0.914345 404.058 -18.9158)"/>
</clipPath>
</defs>
</svg>
